<svg width="27" height="27" fill="none" xmlns="http://www.w3.org/2000/svg"><path d="M13.464 26.921a.61.61 0 01-.435-.176c-3.17-3.177-6.455-6.455-8.888-9.707C1.355 13.33 0 10.054 0 7.034 0 3.158 3.158 0 7.04 0c3.24 0 4.968 1.55 6.424 4.122C14.92 1.551 16.647 0 19.894 0a7.041 7.041 0 017.034 7.034c0 3.026-1.355 6.298-4.142 10.01-2.433 3.246-5.717 6.524-8.887 9.7a.618.618 0 01-.435.177zm-3.656-9.518a.611.611 0 01-.466-1.008l7.311-8.655a.612.612 0 11.933.788l-7.312 8.655a.61.61 0 01-.466.22zm.378-5.231a2.88 2.88 0 110-5.762 2.88 2.88 0 010 5.755v.007zm0-4.526a1.651 1.651 0 100 3.303 1.651 1.651 0 000-3.303zm6.556 10.98a2.882 2.882 0 11-.256-5.757 2.882 2.882 0 01.256 5.757zm0-4.526a1.65 1.65 0 10.006 3.303 1.652 1.652 0 10-.006-3.302z" fill="url(#paint0_linear_149_2643)"/><path d="M13.792 14.868v-.46c0-.35.075-.671.224-.964.152-.296.371-.531.658-.708.29-.179.643-.268 1.059-.268.422 0 .776.088 1.063.264.29.176.508.412.654.708.15.293.224.615.224.968v.46c0 .35-.075.673-.224.968-.15.293-.369.527-.658.704-.29.179-.643.268-1.059.268-.422 0-.776-.09-1.063-.268a1.741 1.741 0 01-.654-.704 2.117 2.117 0 01-.224-.968zm1.252-.46v.46c0 .202.05.393.147.572.1.179.28.268.542.268.261 0 .439-.088.534-.264a1.17 1.17 0 00.146-.576v-.46a1.25 1.25 0 00-.138-.58c-.092-.18-.272-.269-.542-.269-.258 0-.438.09-.538.269-.1.179-.15.372-.15.58zM9.27 9.87v-.46c0-.353.076-.676.228-.968.152-.296.371-.532.658-.708.29-.176.64-.265 1.05-.265.425 0 .78.089 1.067.265.287.176.505.412.654.708.15.292.224.615.224.967v.461c0 .352-.076.675-.228.968-.15.293-.369.527-.658.703-.287.174-.64.26-1.059.26-.419 0-.773-.088-1.063-.264a1.777 1.777 0 01-.654-.703 2.125 2.125 0 01-.22-.964zm1.26-.46v.46c0 .207.05.4.147.576.1.176.277.264.529.264.264 0 .443-.088.538-.264a1.17 1.17 0 00.146-.576v-.46a1.25 1.25 0 00-.138-.58c-.091-.18-.274-.269-.546-.269-.255 0-.432.09-.53.273a1.2 1.2 0 00-.146.575zm-.692 7.095l6.059-8.733h1.127l-6.059 8.733H9.838z" fill="#fff"/><defs><linearGradient id="paint0_linear_149_2643" x1="-14.309" y1="13.464" x2="23.34" y2="13.464" gradientUnits="userSpaceOnUse"><stop stop-color="#FF7B02"/><stop offset="1" stop-color="#EE354B"/></linearGradient></defs></svg>