<svg width="61" height="38" fill="none" xmlns="http://www.w3.org/2000/svg"><path d="M10.028 12.144h-8.21a.818.818 0 110-1.636h8.21a.818.818 0 010 1.636zM42.977 37.02a.818.818 0 01-.583-.237c-4.244-4.252-8.64-8.64-11.897-12.994-3.73-4.961-5.543-9.348-5.543-13.39 0-5.19 4.227-9.417 9.425-9.417 4.337 0 6.649 2.076 8.598 5.519C44.926 3.057 47.237.98 51.583.98c5.19 0 9.416 4.22 9.416 9.417 0 4.05-1.814 8.429-5.543 13.399-3.257 4.345-7.653 8.733-11.897 12.985a.828.828 0 01-.582.237zm-4.894-12.741a.818.818 0 01-.625-1.35l9.788-11.585a.817.817 0 011.385.128.817.817 0 01-.136.927l-9.788 11.584a.817.817 0 01-.624.296zm.506-7.003a3.855 3.855 0 110-7.712 3.856 3.856 0 010 7.703v.009zm0-6.059a2.21 2.21 0 100 4.422 2.21 2.21 0 000-4.422zm8.775 14.699a3.854 3.854 0 01-3.713-5.377 3.854 3.854 0 013.73-2.327 3.856 3.856 0 01-.017 7.704zm0-6.059a2.211 2.211 0 101.572 3.774 2.21 2.21 0 00-1.572-3.774zm-28.629-7.003h-.506a1.527 1.527 0 110-3.054h.506a1.523 1.523 0 011.077 2.6 1.531 1.531 0 01-1.077.454zm3.628-7.678h-.506a1.527 1.527 0 110-3.054h.506a1.527 1.527 0 110 3.054zm0 15.356h-.506a1.527 1.527 0 110-3.054h.506a1.523 1.523 0 011.077 2.6 1.531 1.531 0 01-1.077.454zm0 15.349h-.506a1.523 1.523 0 010-3.047h.506a1.52 1.52 0 010 3.038v.008zM18.735 28.2h-.506a1.523 1.523 0 110-3.046h.506a1.52 1.52 0 011.074 2.593 1.527 1.527 0 01-1.074.453zm-8.707-.7h-8.21a.823.823 0 010-1.645h8.21a.823.823 0 010 1.645zm3.628 7.678H5.438a.823.823 0 010-1.645h8.218a.819.819 0 01.579 1.397.827.827 0 01-.58.248zm0-15.356H5.438a.823.823 0 010-1.646h8.218a.823.823 0 010 1.646zm0-15.357H5.438a.818.818 0 110-1.637h8.218a.819.819 0 010 1.637z" fill="url(#paint0_linear_308_1919)"/><path d="M43.375 22.382v-.737c0-.559.118-1.072.354-1.54a2.81 2.81 0 011.043-1.132c.46-.287 1.019-.43 1.678-.43.668 0 1.23.141 1.684.423.459.282.804.659 1.036 1.132.236.468.355.984.355 1.547v.737c0 .559-.119 1.075-.355 1.547a2.76 2.76 0 01-1.043 1.126c-.46.286-1.018.43-1.677.43-.669 0-1.23-.144-1.684-.43a2.773 2.773 0 01-1.037-1.125 3.411 3.411 0 01-.354-1.548zm1.984-.737v.737c0 .322.077.627.231.913.16.287.446.43.86.43.413 0 .695-.14.845-.423.155-.282.232-.588.232-.92v-.737c0-.331-.073-.64-.218-.927-.146-.286-.432-.43-.86-.43-.408 0-.693.144-.852.43a1.882 1.882 0 00-.238.927zm-9.15-7.254v-.736c0-.564.12-1.08.361-1.548a2.81 2.81 0 011.043-1.132c.46-.282 1.014-.423 1.664-.423.673 0 1.236.141 1.69.423.455.282.8.66 1.037 1.132.236.468.355.984.355 1.548v.736c0 .563-.12 1.08-.362 1.548a2.76 2.76 0 01-1.043 1.125c-.454.277-1.014.416-1.677.416-.664 0-1.225-.141-1.684-.423a2.831 2.831 0 01-1.037-1.125 3.425 3.425 0 01-.347-1.541zm1.997-.736v.736c0 .332.078.639.232.92.16.282.439.423.839.423.418 0 .702-.14.852-.423.155-.281.232-.588.232-.92v-.736c0-.332-.073-.641-.218-.928-.146-.286-.434-.43-.866-.43-.405 0-.684.146-.839.437a1.942 1.942 0 00-.232.92zM37.11 25l9.6-13.964h1.786L38.895 25H37.11z" fill="#fff"/><defs><linearGradient id="paint0_linear_308_1919" x1="5.8" y1="19.004" x2="56.198" y2="19.004" gradientUnits="userSpaceOnUse"><stop stop-color="#FF7B02"/><stop offset="1" stop-color="#EE354B"/></linearGradient></defs></svg>