<svg width="45" height="45" fill="none" xmlns="http://www.w3.org/2000/svg"><path d="M39.567 26.144h-7.259V8.712h10.2c.816 0 1.677.428 2.138 1.069.349.483.443 1.037.268 1.564L40.149 25.72a.61.61 0 01-.582.424zm-7.962 0h-6.306V8.712h6.307l-.002 17.432zm-7.01 0H18.5c.162-.306.204-.676.087-1.03L13.239 8.981c.362-.172.763-.27 1.154-.27h10.202v17.432z" fill="url(#paint0_linear_201_14234)"/><path d="M17.334 26.144a.616.616 0 01-.582-.421L9.94 5.178c-.275-.828-.455-1.341-.664-1.498-.211-.158-.75-.17-1.61-.17h-4.11a.615.615 0 010-1.23h4.11c2.365 0 2.688.235 3.441 2.51l6.812 20.544a.614.614 0 01-.585.81z" fill="url(#paint1_linear_201_14234)"/><path d="M43.976 32.853H17.334a3.973 3.973 0 01-3.97-3.97 3.972 3.972 0 013.97-3.97.616.616 0 010 1.231c-1.51 0-2.74 1.23-2.74 2.74 0 1.51 1.23 2.74 2.74 2.74h26.642a.615.615 0 110 1.23z" fill="url(#paint2_linear_201_14234)"/><path d="M22.475 42.72a3.824 3.824 0 01-3.82-3.82 3.827 3.827 0 013.82-3.823 3.825 3.825 0 013.82 3.82 3.827 3.827 0 01-3.82 3.822z" fill="url(#paint3_linear_201_14234)"/><path d="M35.48 42.72a3.824 3.824 0 01-3.82-3.82 3.825 3.825 0 013.82-3.823c2.11 0 3.82 1.713 3.82 3.82a3.826 3.826 0 01-3.82 3.822z" fill="url(#paint4_linear_201_14234)"/><path d="M8.566 14.157h-6.61a.615.615 0 110-1.23h6.61a.615.615 0 110 1.23z" fill="url(#paint5_linear_201_14234)"/><path d="M9.537 18.025h-6.61a.615.615 0 110-1.23h6.61a.615.615 0 110 1.23z" fill="url(#paint6_linear_201_14234)"/><path d="M7.225 21.896H.615a.617.617 0 010-1.23h6.61a.615.615 0 110 1.23z" fill="url(#paint7_linear_201_14234)"/><defs><linearGradient id="paint0_linear_201_14234" x1="13.239" y1="17.428" x2="45.09" y2="17.428" gradientUnits="userSpaceOnUse"><stop stop-color="#FF7B02"/><stop offset="1" stop-color="#EE354B"/></linearGradient><linearGradient id="paint1_linear_201_14234" x1="2.941" y1="14.212" x2="18.025" y2="14.212" gradientUnits="userSpaceOnUse"><stop stop-color="#FF7B02"/><stop offset="1" stop-color="#EE354B"/></linearGradient><linearGradient id="paint2_linear_201_14234" x1="13.363" y1="28.884" x2="44.592" y2="28.884" gradientUnits="userSpaceOnUse"><stop stop-color="#FF7B02"/><stop offset="1" stop-color="#EE354B"/></linearGradient><linearGradient id="paint3_linear_201_14234" x1="18.655" y1="38.898" x2="26.295" y2="38.898" gradientUnits="userSpaceOnUse"><stop stop-color="#FF7B02"/><stop offset="1" stop-color="#EE354B"/></linearGradient><linearGradient id="paint4_linear_201_14234" x1="31.661" y1="38.898" x2="39.3" y2="38.898" gradientUnits="userSpaceOnUse"><stop stop-color="#FF7B02"/><stop offset="1" stop-color="#EE354B"/></linearGradient><linearGradient id="paint5_linear_201_14234" x1="1.34" y1="13.542" x2="9.181" y2="13.542" gradientUnits="userSpaceOnUse"><stop stop-color="#FF7B02"/><stop offset="1" stop-color="#EE354B"/></linearGradient><linearGradient id="paint6_linear_201_14234" x1="2.311" y1="17.41" x2="10.151" y2="17.41" gradientUnits="userSpaceOnUse"><stop stop-color="#FF7B02"/><stop offset="1" stop-color="#EE354B"/></linearGradient><linearGradient id="paint7_linear_201_14234" x1="0" y1="21.281" x2="7.841" y2="21.281" gradientUnits="userSpaceOnUse"><stop stop-color="#FF7B02"/><stop offset="1" stop-color="#EE354B"/></linearGradient></defs></svg>