<svg width="45" height="45" fill="none" xmlns="http://www.w3.org/2000/svg"><path d="M22.503 43.994a.551.551 0 01-.225-.039c-3.955-1.738-7.015-3.555-9.35-5.563-6.783-5.834-6.603-12.51-6.266-21.455.073-2.008.152-4.078.158-6.29 0-.314.27-.567.585-.545 2.216.169 5.484-.4 8.325-1.457 3.162-1.175 5.333-2.734 5.963-4.303a.546.546 0 01.506-.337c.225 0 .366-.029.574.056a.571.571 0 01.304.292C23.74 5.94 25.95 7.52 29.152 8.69c2.897 1.07 6.216 1.61 8.438 1.39a.546.546 0 01.602.54c0 2.222.084 4.303.157 6.311.338 8.944.518 15.627-6.272 21.46-2.334 2.009-5.394 3.826-9.349 5.564a.569.569 0 01-.225.04zm0-3.195a.55.55 0 01-.225-.05c-3.313-1.452-5.873-2.976-7.83-4.658-5.699-4.894-5.558-10.502-5.271-18 .056-1.677.124-3.404.13-5.25 0-.32.27-.567.584-.545 1.84.14 4.557-.337 6.92-1.21 2.615-.973 4.41-2.26 4.921-3.543a.546.546 0 01.507-.338c.208 0 .326-.022.517.057.135.05.248.157.304.292.546 1.3 2.374 2.604 5.023 3.572 2.413.883 5.164 1.333 7.015 1.153a.546.546 0 01.596.546c0 1.856.068 3.589.135 5.265.281 7.493.422 13.107-5.276 18-1.958 1.688-4.517 3.207-7.83 4.659a.508.508 0 01-.22.05zM10.397 13.416a171.358 171.358 0 01-.129 4.713c-.18 4.72-.332 8.793 1.181 12.263 1.632 3.736 5.04 6.593 11.054 9.26 6.008-2.667 9.417-5.524 11.048-9.26 1.519-3.47 1.361-7.543 1.181-12.262a171.594 171.594 0 01-.13-4.726c-1.968.073-4.55-.393-6.896-1.248-1.547-.563-4.134-1.733-5.31-3.528-1.142 1.761-3.684 2.92-5.203 3.482-2.307.856-4.838 1.334-6.796 1.306zm12.106 18.957a8.382 8.382 0 01-8.37-8.37c0-4.613 3.752-8.371 8.37-8.371 4.613 0 8.365 3.752 8.365 8.37a8.382 8.382 0 01-2.455 5.91 8.387 8.387 0 01-5.91 2.46zm0-15.65a7.284 7.284 0 000 14.547c4.01 0 7.273-3.263 7.273-7.268 0-4.016-3.262-7.279-7.273-7.279zm-3.167 11.52a.545.545 0 01-.416-.9l6.328-7.498a.547.547 0 11.833.703l-6.329 7.504a.546.546 0 01-.416.192zm.32-4.533a2.508 2.508 0 11.006-5.018 2.509 2.509 0 110 5.018h-.005zm0-3.921a1.415 1.415 0 100 2.83 1.415 1.415 0 000-2.83zm5.688 9.512a2.508 2.508 0 11.005-5.017 2.509 2.509 0 11-.005 5.017zm0-3.915a1.412 1.412 0 100 2.824 1.412 1.412 0 000-2.824zm-2.841 12.809c-.59 0-.765-.81-.225-1.047 4.534-1.985 7.25-4.219 8.82-7.24a.55.55 0 01.907-.099.55.55 0 01.066.606c-1.693 3.263-4.578 5.642-9.349 7.735a.518.518 0 01-.219.045zm-9.98-22.715c-.19 0-.382 0-.562-.017a.547.547 0 11.079-1.091c2.689.202 7.273-1.463 9.09-3.297a.545.545 0 11.777.766c-1.941 1.968-6.329 3.639-9.383 3.639z" fill="url(#paint0_linear_201_14246)"/><path d="M20.513 28.797c-.147 0-.293-.027-.43-.08a1.13 1.13 0 01-.364-.23l-3.973-3.74a1.014 1.014 0 010-1.495 1.174 1.174 0 011.589 0l3.178 2.992 7.152-6.731c.21-.199.497-.31.795-.31.298 0 .583.111.794.31.104.098.187.215.244.343a1.003 1.003 0 010 .81c-.057.128-.14.244-.244.343l-7.946 7.478a1.126 1.126 0 01-.364.23 1.18 1.18 0 01-.43.08z" fill="#fff"/><defs><linearGradient id="paint0_linear_201_14246" x1="6.145" y1="23.985" x2="38.861" y2="23.985" gradientUnits="userSpaceOnUse"><stop stop-color="#FF7B02"/><stop offset="1" stop-color="#EE354B"/></linearGradient></defs></svg>