<svg width="0" height="0" class="hidden">
  <symbol fill="none" xmlns="http://www.w3.org/2000/svg" viewBox="0 0 32 32" id="actions">
    <path d="M30.5286 16.0011L31.9326 12.3393C32.0865 11.9354 31.9665 11.4774 31.6286 11.2034L28.5848 8.73559L27.9688 4.86185C27.9008 4.43388 27.5649 4.0999 27.1369 4.03191L23.2631 3.41595L20.7973 0.37016C20.5253 0.032183 20.0574 -0.0878088 19.6634 0.0661807L15.9996 1.47208L12.3379 0.0681805C11.9319 -0.0878088 11.478 0.0361827 11.204 0.37216L8.73614 3.41795L4.8624 4.03391C4.65437 4.06741 4.46219 4.16564 4.31319 4.31464C4.16419 4.46364 4.06596 4.65582 4.03246 4.86385L3.4165 8.73759L0.37071 11.2054C0.0347334 11.4774 -0.0872582 11.9354 0.0667312 12.3393L1.47064 16.0011L0.0667312 19.6628C-0.0892581 20.0668 0.0347334 20.5248 0.37071 20.7968L3.4165 23.2626L4.03246 27.1363C4.10045 27.5643 4.43443 27.9003 4.8624 27.9683L8.73614 28.5842L11.204 31.628C11.3365 31.7928 11.518 31.9111 11.7222 31.9657C11.9265 32.0204 12.1428 32.0086 12.3399 31.932L15.9996 30.5301L19.6614 31.934C19.7757 31.9776 19.897 32 20.0194 32C20.3133 32 20.6033 31.87 20.7973 31.628L23.2631 28.5842L27.1369 27.9683C27.3456 27.9351 27.5384 27.8367 27.6878 27.6873C27.8373 27.5379 27.9356 27.345 27.9688 27.1363L28.5848 23.2626L31.6286 20.7968C31.9665 20.5228 32.0865 20.0668 31.9326 19.6628L30.5286 16.0011Z" fill="currentColor"></path>
    <path d="M12.9998 14.0012C11.3459 14.0012 10 12.6553 10 11.0014C10 9.34753 11.3459 8.00163 12.9998 8.00163C14.6537 8.00163 15.9996 9.34753 15.9996 11.0014C15.9996 12.6553 14.6537 14.0012 12.9998 14.0012ZM12.9998 10.0015C12.4478 10.0015 11.9999 10.4495 11.9999 11.0014C11.9999 11.5534 12.4478 12.0014 12.9998 12.0014C13.5518 12.0014 13.9997 11.5534 13.9997 11.0014C13.9997 10.4495 13.5518 10.0015 12.9998 10.0015ZM18.9994 24.0005C17.3455 24.0005 15.9996 22.6546 15.9996 21.0007C15.9996 19.3469 17.3455 18.0009 18.9994 18.0009C20.6533 18.0009 21.9992 19.3469 21.9992 21.0007C21.9992 22.6546 20.6533 24.0005 18.9994 24.0005ZM18.9994 20.0008C18.4494 20.0008 17.9995 20.4508 17.9995 21.0007C17.9995 21.5507 18.4494 22.0007 18.9994 22.0007C19.5493 22.0007 19.9993 21.5507 19.9993 21.0007C19.9993 20.4508 19.5493 20.0008 18.9994 20.0008ZM10.9999 24.0005C10.7979 24.0005 10.596 23.9405 10.42 23.8145C9.97 23.4926 9.86601 22.8686 10.188 22.4186L20.1873 8.4196C20.5093 7.96963 21.1332 7.86564 21.5832 8.18761C22.0332 8.50759 22.1352 9.13355 21.8152 9.58152L11.8159 23.5806C11.6179 23.8545 11.3119 24.0005 10.9999 24.0005Z" fill="#ffffff"></path>
  </symbol>
  <symbol fill="none" xmlns="http://www.w3.org/2000/svg" viewBox="0 0 9 15" id="arrow">
    <path d="M2.28672 1.05417L8.25443 7.00417C8.32526 7.075 8.37532 7.15173 8.40459 7.23437C8.43434 7.31701 8.44922 7.40555 8.44922 7.5C8.44922 7.59444 8.43434 7.68298 8.40459 7.76562C8.37532 7.84826 8.32526 7.925 8.25443 7.99583L2.28672 13.9635C2.12144 14.1288 1.91484 14.2115 1.66693 14.2115C1.41901 14.2115 1.20651 14.1229 1.02943 13.9458C0.852344 13.7687 0.763802 13.5622 0.763802 13.326C0.763802 13.0899 0.852344 12.8833 1.02943 12.7062L6.23568 7.5L1.02943 2.29375C0.864149 2.12847 0.78151 1.92494 0.78151 1.68317C0.78151 1.44092 0.870051 1.23125 1.04713 1.05417C1.22422 0.877082 1.43082 0.788541 1.66693 0.78854C1.90304 0.78854 2.10963 0.877081 2.28672 1.05417Z" fill="currentColor"></path>
  </symbol>
  <symbol fill="none" xmlns="http://www.w3.org/2000/svg" viewBox="0 0 36 26" id="category-icion-01">
    <rect width="36" height="26" fill="none"></rect>
    <path d="M3.00801 3.65859C3.17628 3.33008 3.30448 2.96952 3.52883 2.68107C3.92946 2.18429 4.49835 2 5.12332 2C6.4534 2 7.78349 2 9.11357 2C16.1245 2 23.1355 2 30.1385 2C31.0278 2 31.733 2.3205 32.1336 3.14579C32.2538 3.40219 32.3339 3.69866 32.3339 3.9791C32.3499 5.50949 32.3419 7.03187 32.3419 8.56227C32.3419 8.94687 32.1256 9.20327 31.789 9.21128C31.4445 9.21929 31.1961 8.96289 31.1961 8.57028C31.1881 7.12802 31.1961 5.68577 31.1961 4.24351C31.1961 3.47431 30.8916 3.16983 30.1224 3.16983C21.8214 3.16983 13.5205 3.16983 5.21146 3.16983C4.44226 3.16983 4.13778 3.47431 4.13778 4.24351C4.13778 8.91482 4.13778 13.5781 4.13778 18.2494C4.13778 19.0186 4.44226 19.3231 5.21146 19.3231C13.5124 19.3231 21.8134 19.3231 30.1224 19.3231C30.8916 19.3231 31.1961 19.0106 31.1961 18.2494C31.1961 16.8072 31.1961 15.3649 31.1961 13.9227C31.1961 13.8265 31.1961 13.7384 31.2041 13.6422C31.2362 13.3137 31.4605 13.1054 31.781 13.1134C32.0935 13.1134 32.3339 13.3377 32.3419 13.6582C32.3499 15.3248 32.3659 16.9915 32.3339 18.6661C32.3179 19.6035 31.4605 20.4128 30.5311 20.4769C30.4189 20.4849 30.3067 20.4849 30.1945 20.4849C29.6577 20.4929 29.7378 20.4208 29.7218 20.9737C29.7138 21.2381 29.7298 21.5025 29.6817 21.7589C29.5295 22.464 28.9366 22.9528 28.1834 22.9768C27.4462 23.0009 26.7011 23.0089 25.9639 22.9768C25.0585 22.9368 24.4415 22.2717 24.4255 21.3663C24.4255 21.1419 24.4175 20.9176 24.4255 20.6932C24.4335 20.549 24.3694 20.4849 24.2252 20.4929C24.1691 20.5009 24.113 20.4929 24.0569 20.4929C19.8023 20.4929 15.5476 20.4929 11.293 20.4929C10.9324 20.4929 10.9324 20.4929 10.9324 20.8615C10.9244 21.158 10.9484 21.4705 10.8843 21.7589C10.7161 22.4881 10.1231 22.9608 9.36195 22.9848C8.64083 23.0009 7.9197 23.0089 7.19857 22.9848C6.27713 22.9528 5.65215 22.2958 5.62811 21.3743C5.62811 21.2301 5.62811 21.0939 5.62811 20.9496C5.6201 20.4368 5.69221 20.509 5.18742 20.4929C4.915 20.4849 4.63456 20.4689 4.38617 20.3888C3.72113 20.1724 3.28845 19.6997 3.07212 19.0346C3.05609 18.9786 3.02404 18.9145 3 18.8584C3.00801 13.7784 3.00801 8.7145 3.00801 3.65859ZM9.76258 20.4769C9.63438 20.4769 9.53823 20.4769 9.43406 20.4769C8.8171 20.4769 8.20014 20.4769 7.58317 20.4769C6.74185 20.4769 6.74185 20.4769 6.78192 21.3262C6.78993 21.6307 6.92615 21.791 7.22261 21.799C7.93572 21.815 8.64082 21.807 9.35394 21.799C9.57028 21.799 9.74656 21.6868 9.76258 21.4544C9.77861 21.1419 9.76258 20.8295 9.76258 20.4769ZM25.5954 20.4769C25.5954 20.7974 25.5873 21.0618 25.5954 21.3342C25.6034 21.6467 25.7316 21.791 26.036 21.799C26.7331 21.807 27.4382 21.807 28.1353 21.799C28.4318 21.791 28.576 21.6307 28.584 21.3342C28.592 21.1259 28.576 20.9256 28.592 20.7173C28.6001 20.533 28.5359 20.4689 28.3517 20.4769C27.951 20.4849 27.5504 20.4769 27.1498 20.4769C26.645 20.4769 26.1402 20.4769 25.5954 20.4769Z" fill="currentColor"></path>
    <path d="M12.3269 17.352C9.00967 17.3199 6.29343 14.5396 6.32548 11.2144C6.35753 7.88918 9.10583 5.21299 12.4471 5.25305C15.7642 5.2851 18.4484 8.04943 18.4084 11.3826C18.3763 14.6437 15.588 17.384 12.3269 17.352ZM17.2145 11.623C17.511 9.86026 16.2129 7.5847 14.4822 6.91966C14.4742 6.92767 14.4662 6.93569 14.4662 6.9437C14.4742 7.01581 14.4822 7.09594 14.4822 7.16805C14.5063 8.06545 14.5544 8.96286 14.1537 9.81219C13.9935 10.1567 14.2178 10.4852 14.5944 10.5173C15.1954 10.5654 15.7562 10.7176 16.261 11.0461C16.5735 11.2464 16.894 11.4307 17.2145 11.623ZM15.1232 15.3168C14.1617 14.8681 13.2723 14.3713 12.6554 13.4899C12.5192 13.2896 12.1025 13.3377 11.9583 13.554C11.5657 14.147 11.0449 14.5877 10.4199 14.9162C10.1555 15.0524 9.89106 15.1886 9.62664 15.3248C11.125 16.4386 13.4967 16.4946 15.1232 15.3168ZM7.53537 11.631C7.59947 11.583 7.65556 11.5429 7.71966 11.5028C8.48085 11.0221 9.23403 10.5413 10.1715 10.4612C10.6042 10.4292 10.7484 10.1327 10.5561 9.73206C10.3077 9.21926 10.1795 8.68242 10.1875 8.10552C10.1955 7.7129 10.1875 7.3283 10.1875 6.9437C8.59302 7.56868 7.24692 9.78815 7.53537 11.631ZM13.1121 9.25932C13.1361 9.21125 13.2002 9.1151 13.2082 9.01895C13.2563 8.46608 13.3204 7.9052 13.3284 7.35234C13.3284 6.83152 12.8958 6.41487 12.407 6.39885C11.8621 6.38282 11.4375 6.71935 11.3894 7.27221C11.3493 7.7129 11.3573 8.16962 11.3974 8.61031C11.4215 8.85068 11.5416 9.08305 11.5977 9.25131C12.1266 9.25932 12.5993 9.25932 13.1121 9.25932ZM10.2035 11.6471C10.2116 11.6471 10.1555 11.6471 10.0994 11.6551C9.49043 11.7192 9.00968 12.0797 8.50489 12.3762C8.01612 12.6566 7.87991 13.2576 8.15233 13.7463C8.40072 14.187 9.04173 14.3473 9.51447 14.0829C9.77888 13.9386 10.0513 13.8104 10.2917 13.6262C10.5641 13.4258 10.7965 13.1694 10.9888 12.9851C10.7003 12.5204 10.468 12.1118 10.2035 11.6471ZM13.7691 12.9932C13.7691 12.9932 13.8012 13.0493 13.8412 13.0973C14.2659 13.6342 14.8588 13.9146 15.4518 14.187C15.8684 14.3713 16.3652 14.139 16.6056 13.7303C16.8299 13.3537 16.7738 12.7688 16.4133 12.5284C15.9806 12.232 15.5078 11.9996 15.0431 11.7753C14.8668 11.6951 14.6505 11.7031 14.5303 11.6871C14.2659 12.1358 14.0335 12.5364 13.7691 12.9932ZM11.4375 11.2945C11.4375 11.8153 11.8461 12.232 12.3509 12.24C12.8717 12.248 13.3044 11.8233 13.3044 11.3025C13.3044 10.7897 12.8637 10.349 12.3589 10.357C11.8541 10.3651 11.4375 10.7897 11.4375 11.2945Z" fill="currentColor"></path>
    <path d="M24.7698 9.17923C23.8724 9.17923 22.975 9.17923 22.0696 9.17923C21.1561 9.17923 20.6193 8.64239 20.6193 7.72896C20.6193 7.37641 20.6113 7.01584 20.6193 6.66329C20.6353 5.87806 21.1882 5.30917 21.9734 5.30917C23.8563 5.30116 25.7393 5.30116 27.6222 5.30917C28.3995 5.30917 28.9603 5.88607 28.9764 6.66329C28.9844 7.03187 28.9764 7.39243 28.9764 7.76101C28.9683 8.62636 28.4235 9.17923 27.5501 9.17923C26.6207 9.18724 25.6912 9.17923 24.7698 9.17923ZM24.8098 8.02542C25.6992 8.02542 26.5886 8.01741 27.478 8.02542C27.7104 8.02542 27.8226 7.95331 27.8145 7.70492C27.8065 7.38442 27.8065 7.07193 27.8145 6.75143C27.8145 6.55913 27.7424 6.45496 27.5341 6.46298C25.7072 6.46298 23.8804 6.46298 22.0615 6.46298C21.8532 6.46298 21.7811 6.55913 21.7811 6.75143C21.7891 7.06392 21.7971 7.36839 21.7811 7.68088C21.7651 7.96132 21.8853 8.03343 22.1417 8.03343C23.0311 8.01741 23.9204 8.02542 24.8098 8.02542Z" fill="currentColor"></path>
    <path d="M24.8022 10.7497C25.98 10.7497 27.1578 10.7417 28.3357 10.7497C28.8245 10.7497 29.1129 11.1984 28.8966 11.591C28.7684 11.8314 28.544 11.9115 28.2876 11.9115C27.3341 11.9115 26.3806 11.9115 25.4271 11.9115C24.049 11.9115 22.6788 11.9115 21.3007 11.9115C20.8039 11.9115 20.5074 11.5429 20.6677 11.1263C20.7799 10.8458 20.9962 10.7417 21.2927 10.7497C22.4625 10.7497 23.6323 10.7417 24.8022 10.7497Z" fill="currentColor"></path>
    <path d="M24.794 14.6278C23.6162 14.6278 22.4383 14.6358 21.2605 14.6278C20.7637 14.6278 20.4833 14.1711 20.7156 13.7625C20.8438 13.5301 21.0682 13.466 21.3166 13.474C22.1419 13.474 22.9671 13.474 23.7844 13.474C25.2347 13.474 26.685 13.474 28.1352 13.474C28.2234 13.474 28.3035 13.474 28.3916 13.474C28.7442 13.498 28.9926 13.7464 28.9846 14.0669C28.9765 14.3794 28.7201 14.6278 28.3756 14.6278C27.1657 14.6278 25.9799 14.6198 24.794 14.6278Z" fill="currentColor"></path>
    <path d="M22.3982 17.352C22.0216 17.352 21.6531 17.36 21.2765 17.352C20.8758 17.344 20.6274 17.1036 20.6274 16.7671C20.6274 16.4225 20.8838 16.1982 21.2845 16.1982C22.0376 16.1982 22.7988 16.1982 23.552 16.1982C23.9206 16.1982 24.185 16.4386 24.185 16.7671C24.193 17.0956 23.9366 17.344 23.568 17.36C23.1834 17.36 22.7828 17.352 22.3982 17.352Z" fill="currentColor"></path>
    <path d="M27.2141 16.1902C27.5987 16.1902 27.9833 16.1822 28.3679 16.1902C28.7045 16.1982 28.9529 16.4226 28.9689 16.7271C28.9849 17.0396 28.7525 17.328 28.4 17.336C27.6067 17.352 26.8135 17.352 26.0122 17.336C25.6757 17.328 25.4434 17.0636 25.4514 16.7511C25.4594 16.4306 25.7078 16.1902 26.0603 16.1902C26.4449 16.1902 26.8295 16.1902 27.2141 16.1902Z" fill="currentColor"></path>
    <path d="M32.358 11.1103C32.35 11.4228 32.0936 11.6872 31.7891 11.6792C31.4766 11.6711 31.2202 11.4067 31.2202 11.1023C31.2202 10.7657 31.4766 10.5173 31.8051 10.5254C32.1256 10.5334 32.358 10.7898 32.358 11.1103Z" fill="currentColor"></path>
  </symbol>
  <symbol fill="none" xmlns="http://www.w3.org/2000/svg" viewBox="0 0 36 26" id="category-icion-02">
    <rect width="36" height="26" fill="none"></rect>
    <path d="M21.267 0C21.5862 0.0780248 21.9124 0.141863 22.2245 0.248261C24.1397 0.879553 25.4519 2.63866 25.4803 4.65312C25.5016 5.95826 25.4874 7.25631 25.4874 8.56145C25.4874 8.91611 25.2888 9.14309 24.9838 9.15018C24.6717 9.15728 24.466 8.9232 24.466 8.55436C24.466 7.33433 24.466 6.11431 24.466 4.89428C24.466 2.63156 22.8487 1.02142 20.5931 1.02142C18.983 1.02142 17.3728 1.01432 15.7627 1.02142C13.9326 1.0356 12.4289 2.27691 12.0884 4.05729C12.0388 4.30555 12.0246 4.568 12.0246 4.82335C12.0175 8.57564 12.0246 12.3208 12.0246 16.0731C12.0246 16.144 12.0246 16.2221 12.0246 16.3214C16.1741 16.3214 20.3094 16.3214 24.4731 16.3214C24.4731 16.2363 24.4731 16.144 24.4731 16.0589C24.4731 15.1084 24.4731 14.1509 24.4731 13.2004C24.4731 12.9663 24.544 12.7748 24.7568 12.6613C25.0405 12.5123 25.381 12.6613 25.4732 12.9734C25.5016 13.0585 25.5016 13.1507 25.5016 13.2429C25.5016 17.0165 25.5016 20.7901 25.5016 24.5636C25.5016 25.2871 25.1044 25.8475 24.4305 25.9468C23.9269 26.0177 23.402 26.0177 22.8984 25.9468C22.26 25.8546 21.8557 25.3084 21.8415 24.6558C21.8344 24.3508 21.8415 24.0458 21.8415 23.7195C19.4511 23.7195 17.082 23.7195 14.6632 23.7195C14.6632 24.0316 14.6703 24.3367 14.6632 24.6488C14.649 25.3013 14.2447 25.8475 13.6063 25.9397C13.1027 26.0106 12.5778 26.0106 12.0742 25.9397C11.4429 25.8546 11.0386 25.3226 11.0032 24.6842C10.9961 24.6204 11.0032 24.5494 11.0032 24.4856C11.0032 17.9386 10.9961 11.3987 11.0102 4.85173C11.0102 2.88692 11.9111 1.41863 13.656 0.510708C14.0816 0.29082 14.5781 0.205702 15.0392 0.0567453C15.103 0.0354658 15.1597 0.0212795 15.2236 0C17.2168 0 19.2383 0 21.267 0ZM24.4376 17.3924C24.388 17.3783 24.3667 17.3712 24.3454 17.3641C23.4446 17.3641 22.5366 17.357 21.6358 17.3641C21.5578 17.3641 21.4585 17.4421 21.4159 17.513C21.2102 17.8251 21.0187 18.1443 20.8272 18.4635C20.5009 18.9955 20.0327 19.2721 19.4085 19.265C18.6283 19.265 17.8481 19.265 17.0678 19.265C16.4436 19.265 15.9684 18.9955 15.6492 18.4635C15.4577 18.1514 15.2591 17.8464 15.0817 17.5272C15.0037 17.3924 14.9115 17.3499 14.7625 17.3499C13.9255 17.357 13.0885 17.3499 12.2515 17.357C12.1806 17.357 12.1097 17.3712 12.0458 17.3783C12.0317 17.4208 12.0246 17.435 12.0246 17.4492C12.0246 18.9529 12.0175 20.4496 12.0246 21.9534C12.0246 22.4002 12.3438 22.6839 12.8048 22.6839C16.4294 22.6839 20.054 22.6839 23.6786 22.6839C24.161 22.6839 24.4589 22.386 24.466 21.9037C24.4731 20.4425 24.466 18.9813 24.466 17.5272C24.4518 17.4847 24.4447 17.4492 24.4376 17.3924ZM20.281 17.3924C18.8908 17.3924 17.5501 17.3924 16.1741 17.3924C16.3088 17.6123 16.4223 17.7897 16.5287 17.9741C16.6422 18.1798 16.8195 18.2649 17.0465 18.2649C17.8339 18.2649 18.6212 18.2791 19.4085 18.2578C19.5646 18.2507 19.7561 18.1656 19.8625 18.0521C20.0257 17.8677 20.1321 17.6336 20.281 17.3924ZM12.0104 23.6273C12.0104 23.9394 12.0033 24.2941 12.0104 24.6488C12.0175 24.8403 12.1381 24.9538 12.3296 24.9608C12.6488 24.9679 12.975 24.9821 13.2942 24.9538C13.4006 24.9396 13.578 24.8119 13.5851 24.7197C13.6205 24.3863 13.5993 24.0529 13.5993 23.7266C13.0602 23.6912 12.5566 23.6628 12.0104 23.6273ZM24.4518 23.599C24.1752 23.6344 23.9127 23.6699 23.6503 23.6912C23.3878 23.7054 23.1254 23.6912 22.8487 23.6912C22.8487 24.0246 22.8487 24.3225 22.8487 24.6204C22.8487 24.8261 22.9693 24.9467 23.175 24.9538C23.4871 24.9609 23.8063 24.9609 24.1184 24.9538C24.3099 24.9467 24.4376 24.8332 24.4447 24.6488C24.4589 24.3012 24.4518 23.9465 24.4518 23.599Z" fill="currentColor"></path>
    <path d="M13.6138 8.62525C13.6138 7.39103 13.6138 6.15682 13.6138 4.91552C13.6138 3.51107 14.5288 2.59605 15.9332 2.59605C17.4654 2.59605 19.0046 2.59605 20.5367 2.59605C21.927 2.59605 22.842 3.51107 22.8491 4.90133C22.8491 7.39103 22.8491 9.87364 22.8491 12.3633C22.8491 13.7323 21.927 14.6615 20.558 14.6615C19.0046 14.6615 17.4583 14.6686 15.9049 14.6615C14.5501 14.6615 13.628 13.7323 13.6209 12.3775C13.6209 12.3633 13.6209 12.3421 13.6209 12.3279C13.6138 11.0937 13.6138 9.85946 13.6138 8.62525ZM14.6565 12.3917C14.6494 12.4414 14.6423 12.4839 14.6423 12.5265C14.6565 13.1649 15.153 13.633 15.8339 13.633C16.7348 13.6401 17.6427 13.633 18.5435 13.633C19.2386 13.633 19.9338 13.6401 20.6289 13.633C21.3524 13.6259 21.8702 13.0656 21.778 12.3917C19.416 12.3917 17.0469 12.3917 14.6565 12.3917ZM14.6423 6.99382C14.7345 7.00091 14.7912 7.008 14.848 7.008C17.0965 7.008 19.338 7.008 21.5865 7.0151C21.7851 7.0151 21.8277 6.94416 21.8206 6.76684C21.8064 6.56823 21.8206 6.36962 21.8206 6.17101C21.8206 5.85182 21.8206 5.85182 21.4872 5.85182C19.3167 5.85182 17.1462 5.85182 14.9757 5.85182C14.9189 5.85182 14.848 5.83763 14.8054 5.85891C14.7487 5.88728 14.6565 5.95112 14.6565 6.00077C14.6352 6.31997 14.6423 6.64625 14.6423 6.99382ZM14.6423 8.02942C14.6423 8.33443 14.6565 8.61815 14.6352 8.89478C14.621 9.11467 14.6919 9.17142 14.9118 9.17142C17.1249 9.16433 19.338 9.16433 21.551 9.16433C21.629 9.16433 21.7071 9.15723 21.7851 9.15014C21.7851 8.76002 21.7851 8.39117 21.7851 8.02233C19.4018 8.02942 17.0469 8.02942 14.6423 8.02942ZM14.6423 10.207C14.6423 10.512 14.6565 10.7816 14.6352 11.0511C14.6139 11.2994 14.7061 11.349 14.9402 11.349C17.132 11.3419 19.3167 11.3419 21.5085 11.3419C21.5652 11.3419 21.6291 11.3561 21.6787 11.3348C21.7284 11.3136 21.7993 11.2639 21.7993 11.2213C21.8064 10.888 21.8064 10.5475 21.8064 10.1999C19.416 10.207 17.0469 10.207 14.6423 10.207ZM21.8064 4.81622C21.8064 4.74528 21.8135 4.68854 21.8064 4.63179C21.7354 4.05015 21.2744 3.63166 20.6644 3.63166C19.6359 3.62456 18.6074 3.63166 17.5788 3.63166C16.9688 3.63166 16.3517 3.62456 15.7417 3.63875C15.0962 3.65294 14.5997 4.2062 14.6707 4.82331C17.0398 4.81622 19.416 4.81622 21.8064 4.81622Z" fill="currentColor"></path>
    <path d="M24.9621 11.3277C24.6855 11.3207 24.4585 11.1008 24.4585 10.817C24.4585 10.5404 24.6926 10.3134 24.9621 10.3134C25.2458 10.3134 25.487 10.5546 25.4799 10.8383C25.4657 11.115 25.2316 11.3348 24.9621 11.3277Z" fill="currentColor"></path>
  </symbol>
  <symbol fill="none" xmlns="http://www.w3.org/2000/svg" viewBox="0 0 36 26" id="category-icion-03">
    <rect width="36" height="26" fill="none"></rect>
    <path d="M9.84899 25.6438C9.58303 25.4968 9.48505 25.2729 9.50605 24.9719C9.52704 24.573 9.49205 24.1671 9.54804 23.7751C9.67402 22.9073 10.3949 22.2424 11.2697 22.1934C11.8156 22.1584 12.3615 22.1864 12.9354 22.1864C12.9354 21.7805 12.9354 21.4026 12.9354 20.9827C12.8514 20.9827 12.7674 20.9827 12.6835 20.9827C11.9976 20.9827 11.3117 20.9896 10.6188 20.9827C9.70901 20.9757 9.03014 20.3178 9.01614 19.4079C9.00214 18.4071 9.00914 17.4133 9.01614 16.4125C9.01614 16.0626 9.2191 15.8316 9.51305 15.8316C9.82099 15.8246 10.024 16.0556 10.024 16.4195C10.031 17.3573 10.024 18.3021 10.024 19.24C10.024 19.7859 10.2129 19.9818 10.7588 19.9818C15.5459 19.9818 20.333 19.9818 25.1271 19.9818C25.694 19.9818 25.876 19.7929 25.876 19.233C25.876 15.6496 25.932 12.0593 25.855 8.47597C25.799 5.52252 24.3503 3.31793 21.7678 1.8972C19.3252 0.553446 15.4829 0.602437 12.9564 2.66005C11.1367 4.13678 10.1219 6.04043 10.038 8.39899C9.99596 9.53278 10.031 10.6736 10.024 11.8144C10.024 12.1643 9.86998 12.3812 9.61103 12.4302C9.31708 12.4792 9.04413 12.2833 9.01614 11.9893C9.00214 11.8004 9.00914 11.6184 9.00914 11.4364C9.00914 10.4146 8.98115 9.38581 9.02314 8.37099C9.14212 5.71849 10.2479 3.54889 12.3125 1.8832C13.9152 0.602437 15.7559 0.0215446 17.7995 0.000548514C19.3532 -0.0134489 20.8299 0.238504 22.2017 0.980366C24.6792 2.31712 26.2049 4.36774 26.7438 7.13922C26.8488 7.68512 26.8908 8.24502 26.8908 8.79791C26.9048 12.2833 26.8978 15.7686 26.8978 19.261C26.8978 20.3458 26.2609 20.9827 25.1691 20.9827C24.4413 20.9827 23.7134 20.9827 22.9715 20.9827C22.9715 21.3816 22.9715 21.7595 22.9715 22.1724C23.3635 22.1724 23.7414 22.1584 24.1263 22.1794C24.4553 22.1934 24.8052 22.2004 25.1131 22.3054C25.897 22.5574 26.3799 23.2432 26.4009 24.0691C26.4079 24.37 26.3939 24.678 26.4079 24.9789C26.4219 25.2799 26.3309 25.5038 26.065 25.6508C20.655 25.6438 15.252 25.6438 9.84899 25.6438ZM10.4789 24.622C15.4829 24.622 20.424 24.622 25.3581 24.622C25.5261 23.7191 25.1411 23.1592 24.2243 23.1662C20.0461 23.1872 15.8609 23.1802 11.6826 23.1802C11.5917 23.1802 11.5007 23.1802 11.4097 23.1802C11.0388 23.1942 10.7378 23.3622 10.6188 23.6981C10.5209 23.9851 10.5209 24.3 10.4789 24.622ZM21.9357 20.9827C21.8168 20.9827 21.7258 20.9827 21.6348 20.9827C20.1301 20.9827 18.6254 20.9827 17.1206 20.9827C16.1618 20.9827 15.203 20.9896 14.2512 20.9757C14.0132 20.9687 13.9502 21.0526 13.9712 21.2696C13.9852 21.4656 13.9712 21.6615 13.9712 21.8575C13.9712 22.1724 13.9712 22.1724 14.2932 22.1724C16.7287 22.1724 19.1713 22.1724 21.6068 22.1724C21.6558 22.1724 21.7048 22.1724 21.7538 22.1724C21.8728 22.1794 21.9357 22.1304 21.9287 22.0045C21.9287 21.6755 21.9357 21.3466 21.9357 20.9827Z" fill="currentColor"></path>
    <path d="M17.9536 2.15608C21.6629 2.15608 24.6724 5.17252 24.6654 8.86784C24.6584 12.5562 21.6349 15.5656 17.9466 15.5586C14.2513 15.5586 11.2279 12.5282 11.2349 8.83284C11.2489 5.15153 14.2583 2.15608 17.9536 2.15608ZM17.9466 10.4775C18.8425 10.4775 19.5773 9.74967 19.5773 8.86084C19.5773 7.972 18.8425 7.23014 17.9536 7.23014C17.0718 7.23014 16.3299 7.972 16.3299 8.86084C16.3299 9.75667 17.0508 10.4775 17.9466 10.4775ZM13.2995 5.55745C13.8664 5.52946 14.4193 5.50846 14.9722 5.48047C15.1891 5.47347 15.3641 5.53645 15.5181 5.70442C15.784 5.99137 16.071 6.26432 16.3369 6.55127C16.4279 6.64225 16.4839 6.66325 16.6099 6.60026C16.8128 6.48828 17.0158 6.3903 17.2398 6.33431C17.4287 6.28532 17.4637 6.19433 17.4637 6.02636C17.4567 5.16552 17.4637 4.31168 17.4567 3.45084C17.4567 3.37386 17.4497 3.29687 17.4427 3.18489C15.686 3.37386 14.3353 4.18571 13.2995 5.55745ZM21.243 4.2417C21.264 4.7596 21.285 5.3055 21.313 5.8444C21.327 6.09635 21.243 6.29931 21.0541 6.47428C20.7811 6.72623 20.5291 6.99219 20.2632 7.24414C20.1582 7.34212 20.1582 7.41211 20.2212 7.53808C20.3262 7.73405 20.4242 7.93001 20.4802 8.14697C20.5222 8.32194 20.5991 8.36393 20.7671 8.35693C21.6419 8.34993 22.5168 8.35693 23.3916 8.34993C23.4616 8.34993 23.5316 8.33594 23.6016 8.32894C23.5456 6.72623 22.4678 4.96956 21.243 4.2417ZM22.6078 12.1502C22.0549 12.1712 21.509 12.1992 20.9561 12.2272C20.7321 12.2412 20.5501 12.1712 20.3892 12.0033C20.1582 11.7513 19.8923 11.5273 19.6613 11.2754C19.5073 11.1074 19.3814 11.0444 19.1714 11.1914C19.0384 11.2894 18.8635 11.3384 18.6955 11.3804C18.5205 11.4294 18.4505 11.5063 18.4505 11.7023C18.4645 12.5631 18.4575 13.417 18.4575 14.2778C18.4575 14.3548 18.4575 14.4318 18.4575 14.5368C20.2352 14.3338 21.593 13.515 22.6078 12.1502ZM14.6572 13.466C14.6362 12.9411 14.6152 12.3882 14.5873 11.8353C14.5733 11.5973 14.6642 11.4154 14.8392 11.2474C15.1122 10.9884 15.3711 10.7155 15.6441 10.4565C15.735 10.3726 15.749 10.3026 15.686 10.1836C15.5741 9.97363 15.4831 9.75667 15.4131 9.53271C15.3711 9.40674 15.3221 9.36474 15.1961 9.36474C14.2653 9.37174 13.3345 9.36474 12.4037 9.37174C12.3757 9.37174 12.3407 9.38574 12.3127 9.39274C12.3407 10.9465 13.4745 12.7871 14.6572 13.466ZM17.4567 14.5508C17.4567 14.3968 17.4567 14.3128 17.4567 14.2218C17.4567 13.48 17.4567 12.7311 17.4567 11.9893C17.4567 11.4923 17.4567 11.4923 16.9808 11.3034C16.9668 11.2964 16.9528 11.2894 16.9318 11.2824C16.7708 11.2194 16.5889 11.0724 16.4489 11.1074C16.2879 11.1494 16.19 11.3664 16.036 11.4714C15.6371 11.7513 15.5531 12.1362 15.5811 12.5981C15.6371 13.41 16.015 13.9909 16.7359 14.3408C16.9528 14.4458 17.1908 14.4738 17.4567 14.5508ZM18.4575 3.19889C18.4575 3.31087 18.4575 3.39485 18.4575 3.48584C18.4575 4.2277 18.4575 4.97656 18.4575 5.71842C18.4575 6.22233 18.4925 6.15934 18.9124 6.41829C19.3814 6.70524 19.6053 6.49528 19.9203 6.19433C20.2282 5.90039 20.3472 5.60644 20.3192 5.19352C20.2912 4.7386 20.1932 4.31868 19.9063 3.96175C19.5493 3.49983 19.0874 3.22688 18.4575 3.19889ZM12.2917 8.34993C13.3065 8.34993 14.2793 8.34993 15.2521 8.34293C15.3011 8.34293 15.3711 8.28694 15.3921 8.24495C15.5111 7.95801 15.6091 7.67106 15.756 7.27913C15.5181 7.06917 15.2381 6.82422 14.9512 6.57226C14.9092 6.53727 14.8532 6.50228 14.8042 6.50228C14.2793 6.48128 13.7544 6.46728 13.2785 6.75423C12.6836 7.10416 12.3547 7.62207 12.2917 8.34993ZM23.6086 9.40674C23.5736 9.38574 23.5596 9.37174 23.5456 9.37174C22.5868 9.37174 21.6349 9.36474 20.6761 9.37174C20.6201 9.37174 20.5361 9.42773 20.5152 9.47672C20.3962 9.76367 20.2912 10.0506 20.1652 10.3936C20.2982 10.5195 20.4942 10.6595 20.6341 10.8345C20.8861 11.1494 21.194 11.2474 21.593 11.2264C22.1319 11.1984 22.6078 11.0584 23.0067 10.6945C23.3706 10.3376 23.5806 9.91064 23.6086 9.40674Z" fill="currentColor"></path>
    <path d="M23.1883 15.6706C24.1051 15.6706 24.833 16.4055 24.826 17.3293C24.819 18.2321 24.0771 18.96 23.1743 18.953C22.2715 18.946 21.5366 18.2111 21.5366 17.3153C21.5366 16.4055 22.2715 15.6706 23.1883 15.6706ZM23.1673 17.9452C23.5243 17.9522 23.8042 17.6722 23.8042 17.3153C23.8042 16.9654 23.5382 16.6924 23.1883 16.6854C22.8314 16.6784 22.5444 16.9584 22.5444 17.3153C22.5514 17.6722 22.8174 17.9382 23.1673 17.9452Z" fill="currentColor"></path>
    <path d="M12.7323 16.8044C12.9982 16.8044 13.2712 16.7974 13.5371 16.8044C13.8591 16.8114 14.083 17.0214 14.083 17.3083C14.083 17.5953 13.8591 17.8122 13.5371 17.8192C12.9982 17.8262 12.4593 17.8262 11.9204 17.8192C11.5915 17.8122 11.3745 17.6023 11.3745 17.3153C11.3745 17.0284 11.5915 16.8184 11.9204 16.8044C11.9344 16.8044 11.9554 16.8044 11.9694 16.8044C12.2284 16.8044 12.4803 16.8044 12.7323 16.8044Z" fill="currentColor"></path>
    <path d="M9.52002 14.5718C9.24007 14.5718 9.01611 14.3548 9.01611 14.0819C9.01611 13.8089 9.23307 13.578 9.49902 13.571C9.77897 13.564 10.0169 13.7949 10.0169 14.0749C10.0239 14.3548 9.79997 14.5718 9.52002 14.5718Z" fill="currentColor"></path>
  </symbol>
  <symbol fill="none" xmlns="http://www.w3.org/2000/svg" viewBox="0 0 36 26" id="category-icion-04">
    <rect width="36" height="26" fill="none"></rect>
    <path d="M16.7101 1.00672C16.932 1.14793 17.0059 1.34965 17.0395 1.61188C17.0664 1.80688 17.174 2.02205 17.3018 2.1767C18.0011 3.0172 18.0145 4.0258 17.3152 4.85957C17.1404 5.06802 17.0328 5.28318 17.0194 5.55887C16.9992 5.88162 16.7907 6.06989 16.5083 6.04972C16.2327 6.03627 16.0578 5.82783 16.0578 5.51852C16.0646 5.06129 16.2125 4.65785 16.5083 4.3082C16.9857 3.75684 16.9857 3.30633 16.5151 2.76169C16.2596 2.46583 16.1183 2.12291 16.0646 1.73964C16.0175 1.43034 16.078 1.16138 16.3806 1C16.4949 1.00672 16.6025 1.00672 16.7101 1.00672Z" fill="currentColor"></path>
    <path d="M19.4935 1.00673C19.7289 1.12104 19.8096 1.30931 19.8566 1.56482C19.897 1.78672 19.9911 2.02206 20.1323 2.19016C20.798 2.97014 20.8182 4.06615 20.1458 4.83941C19.9642 5.04785 19.8566 5.27647 19.8365 5.55888C19.8096 5.89508 19.5944 6.08335 19.3053 6.04973C19.0296 6.02283 18.8682 5.80766 18.8749 5.47819C18.8884 5.04113 19.043 4.65114 19.3254 4.31494C19.8163 3.73667 19.8163 3.33323 19.3322 2.75497C19.0699 2.44567 18.9287 2.0893 18.8817 1.68586C18.848 1.37655 18.9287 1.14794 19.2179 1.00673C19.3053 1.00673 19.3994 1.00673 19.4935 1.00673Z" fill="currentColor"></path>
    <path d="M25.3434 20.6676C25.2493 20.6609 25.1686 20.6542 25.0947 20.6542C23.5683 20.6542 22.042 20.6542 20.5156 20.6475C20.3341 20.6475 20.2601 20.6945 20.1996 20.8693C19.9105 21.7367 19.0767 22.3217 18.1689 22.315C17.2612 22.315 16.4341 21.7233 16.1383 20.8626C16.0979 20.7416 16.0711 20.6407 15.8962 20.6407C14.3161 20.6475 12.7359 20.6475 11.1558 20.6475C11.1155 20.6475 11.0818 20.6542 10.981 20.6676C11.0684 21.0173 11.1289 21.3669 11.2499 21.6897C11.9156 23.4783 13.5361 24.6213 15.4457 24.6617C15.6474 24.6684 15.8559 24.655 16.0576 24.6684C16.3198 24.6886 16.5081 24.9105 16.4947 25.1593C16.4812 25.408 16.2929 25.603 16.0374 25.6165C14.0471 25.7241 12.3796 25.0651 11.1356 23.4715C10.4094 22.5436 10.0396 21.4745 10.0127 20.3045C9.99256 19.1346 9.99928 17.9646 10.0127 16.7879C10.0262 15.9339 10.2346 15.1203 10.6313 14.3672C11.8887 11.9802 13.1528 9.60666 14.4035 7.21964C14.5582 6.92378 14.7599 6.80275 15.0961 6.80948C17.1469 6.82292 19.1977 6.8162 21.2552 6.80948C21.578 6.80948 21.7797 6.92378 21.9276 7.20619C23.1649 9.56631 24.4088 11.9197 25.6595 14.2731C26.11 15.1136 26.3319 16.0146 26.3319 16.9627C26.3386 18.0116 26.3386 19.0539 26.3319 20.1028C26.3117 22.8596 24.4626 25.0718 21.7461 25.5492C21.2418 25.6367 20.7106 25.6098 20.1929 25.6165C19.9441 25.6165 19.7558 25.3946 19.7558 25.1458C19.7558 24.897 19.9306 24.6886 20.1861 24.6684C20.408 24.655 20.6232 24.6617 20.8451 24.6617C23.0169 24.6281 24.7988 23.1824 25.2628 21.0711C25.3031 20.95 25.3165 20.8223 25.3434 20.6676ZM13.0251 11.9399C12.9713 12.0407 12.9242 12.1214 12.8839 12.2021C12.4468 13.0224 12.0232 13.8428 11.5794 14.6564C11.2029 15.3624 10.9877 16.0953 10.9877 16.8887C10.9877 17.7427 10.9944 18.6034 10.981 19.4573C10.981 19.6321 11.0348 19.6859 11.2096 19.6859C12.7628 19.6792 14.3228 19.6792 15.8761 19.6859C16.0173 19.6859 16.0778 19.6456 16.1248 19.5044C16.4341 18.6034 17.2545 18.0116 18.1757 18.0116C19.0968 18.0116 19.9105 18.5966 20.2265 19.5044C20.2735 19.6456 20.3408 19.6792 20.4753 19.6792C22.0285 19.6725 23.5885 19.6725 25.1417 19.6792C25.3233 19.6792 25.3703 19.6187 25.3636 19.4439C25.3569 18.5966 25.3569 17.7494 25.3569 16.8955C25.3569 16.1222 25.1619 15.4027 24.8055 14.7236C24.4223 14.0041 24.039 13.278 23.6557 12.5585C23.5414 12.3433 23.4271 12.1349 23.3128 11.9197C22.4118 12.2828 21.6385 12.1483 20.9392 11.4961C20.5694 11.1532 20.018 11.1666 19.6213 11.4894C19.5003 11.5902 19.386 11.6978 19.2582 11.7852C18.4648 12.2963 17.51 12.2088 16.7972 11.5768C16.2929 11.133 15.7752 11.133 15.2843 11.5768C15.17 11.6844 15.0423 11.7785 14.9078 11.8525C14.3026 12.2223 13.684 12.2156 13.0251 11.9399ZM22.8556 11.0456C22.2975 9.98993 21.7528 8.94771 21.188 7.91221C21.1544 7.84497 21.0266 7.7979 20.9392 7.7979C19.0901 7.79118 17.2478 7.79118 15.3987 7.79118C15.2642 7.79118 15.1902 7.8248 15.123 7.95256C14.6859 8.78633 14.2421 9.62011 13.8051 10.4539C13.6975 10.6556 13.5899 10.8506 13.489 11.0456C13.8925 11.2675 14.2757 11.1935 14.6926 10.8371C15.5331 10.1177 16.5754 10.1311 17.4159 10.8371C17.5907 10.9851 17.8126 11.0927 18.0277 11.1465C18.3639 11.2271 18.6531 11.0859 18.9086 10.8573C19.4062 10.4001 19.9979 10.2185 20.6703 10.3463C21.0468 10.4203 21.3763 10.6018 21.6654 10.8573C22.0554 11.2002 22.4521 11.2608 22.8556 11.0456ZM18.1824 18.9799C17.5369 18.9799 16.9922 19.5245 16.9922 20.1633C16.9922 20.8223 17.5234 21.3468 18.1757 21.3468C18.8279 21.3468 19.3524 20.8156 19.3524 20.1566C19.3524 19.5178 18.8144 18.9799 18.1824 18.9799Z" fill="currentColor"></path>
    <path d="M18.1761 25.63C17.9072 25.63 17.6987 25.4215 17.6987 25.1526C17.6987 24.8836 17.9072 24.6819 18.1761 24.6752C18.4518 24.6752 18.6535 24.8769 18.6535 25.1526C18.6535 25.4215 18.4384 25.63 18.1761 25.63Z" fill="currentColor"></path>
  </symbol>
  <symbol fill="none" xmlns="http://www.w3.org/2000/svg" viewBox="0 0 36 26" id="category-icion-05">
    <rect width="36" height="26" fill="none"></rect>
    <path d="M3.0248 5.04878C3.10741 4.82572 3.18175 4.59441 3.28915 4.38788C3.75177 3.50393 4.48702 3.01652 5.48663 3.01652C8.88198 3 12.2773 3.00826 15.6727 3.00826C16.094 3.00826 16.3584 3.23131 16.3584 3.58654C16.3666 3.9583 16.094 4.18961 15.6644 4.18961C12.3517 4.18961 9.03068 4.18961 5.71794 4.18961C5.14792 4.18961 4.67703 4.3631 4.40441 4.88355C4.29702 5.09008 4.23092 5.34618 4.23092 5.57749C4.2144 7.61801 4.22267 9.65026 4.22267 11.6908C4.22267 12.5086 4.7679 13.0456 5.58576 13.0704C5.65185 13.0704 5.71794 13.0704 5.79229 13.0704C14.07 13.0704 22.356 13.0704 30.6337 13.0621C30.9146 13.0621 31.2202 13.0208 31.4763 12.9052C31.939 12.6986 32.1868 12.2938 32.1868 11.7899C32.1951 9.68331 32.2033 7.5767 32.1868 5.47836C32.1785 4.80094 31.6911 4.29701 31.0137 4.20613C30.8815 4.18961 30.7411 4.18961 30.6089 4.18961C27.4697 4.18961 24.3222 4.18961 21.1829 4.18961C21.0755 4.18961 20.9681 4.19787 20.8607 4.18135C20.5716 4.14005 20.3568 3.88395 20.3568 3.59481C20.3568 3.30566 20.5798 3.04957 20.8607 3.00826C20.9268 3 20.9929 3 21.0672 3C24.3222 3 27.5853 3 30.8402 3C32.1372 3 33.1203 3.82612 33.3599 5.09834C33.3847 5.23878 33.3847 5.38748 33.3847 5.53619C33.3847 7.60148 33.3847 9.66678 33.3847 11.7321C33.3847 13.1695 32.3025 14.2765 30.8485 14.2848C29.0476 14.3013 27.2383 14.2848 25.4374 14.2848C18.878 14.2848 12.3269 14.2683 5.76751 14.2931C4.35484 14.3013 3.27262 13.4339 3.04131 12.2443C3.04131 12.2278 3.01652 12.2195 3 12.203C3.02478 9.82375 3.0248 7.43626 3.0248 5.04878Z" fill="currentColor"></path>
    <path d="M10.4266 11.6412C9.35266 11.6412 8.2787 11.6412 7.19648 11.6412C6.33732 11.6412 5.84991 11.1538 5.84165 10.2864C5.83338 9.18763 5.83338 8.09715 5.84165 6.99841C5.84165 6.12272 6.33732 5.62705 7.21301 5.62705C9.35266 5.62705 11.5006 5.62705 13.6402 5.62705C14.5159 5.62705 15.0033 6.12272 15.0033 6.99841C15.0033 8.10541 15.0033 9.21241 15.0033 10.3111C15.0033 11.129 14.4994 11.6329 13.6815 11.6329C12.5993 11.6495 11.5088 11.6412 10.4266 11.6412ZM13.7641 8.01454C13.7641 7.60974 13.7641 7.23799 13.7641 6.86623C11.5254 6.86623 9.31135 6.86623 7.08082 6.86623C7.08082 7.25451 7.08082 7.62626 7.08082 8.01454C9.31135 8.01454 11.5336 8.01454 13.7641 8.01454ZM13.7724 10.4103C13.7724 10.0055 13.7724 9.63373 13.7724 9.26198C11.5254 9.26198 9.31135 9.26198 7.08909 9.26198C7.08909 9.65851 7.08909 10.0303 7.08909 10.4103C9.31962 10.4103 11.5336 10.4103 13.7724 10.4103Z" fill="currentColor"></path>
    <path d="M26.1559 11.6412C25.0902 11.6412 24.0245 11.6412 22.9588 11.6412C22.0997 11.6412 21.604 11.1455 21.604 10.2864C21.604 9.17937 21.604 8.07237 21.604 6.97363C21.604 6.13925 22.1079 5.63531 22.9423 5.62705C25.082 5.62705 27.2299 5.62705 29.3695 5.62705C30.2039 5.62705 30.7078 6.13098 30.7161 6.96536C30.7244 8.08063 30.7244 9.19589 30.7161 10.3111C30.7078 11.1373 30.2039 11.6329 29.386 11.6412C28.3038 11.6495 27.2299 11.6412 26.1559 11.6412ZM22.8349 8.00628C25.0572 8.00628 27.2712 8.00628 29.5017 8.00628C29.5017 7.70887 29.4852 7.43625 29.51 7.17189C29.5265 6.92406 29.4521 6.84145 29.1878 6.84145C27.1721 6.84971 25.1563 6.84971 23.1489 6.84971C23.0497 6.84971 22.9423 6.85797 22.8432 6.86623C22.8349 7.26277 22.8349 7.62626 22.8349 8.00628ZM22.8349 10.402C25.0572 10.402 27.2547 10.402 29.4769 10.402C29.4769 10.0137 29.4769 9.64199 29.4769 9.25372C27.2629 9.25372 25.0572 9.25372 22.8349 9.25372C22.8349 9.64199 22.8349 10.0137 22.8349 10.402Z" fill="currentColor"></path>
    <path d="M20.1418 8.65067C20.1418 9.0472 20.1501 9.44374 20.1418 9.84028C20.1088 10.8729 19.291 11.6743 18.2913 11.6577C17.2752 11.6412 16.4739 10.8234 16.4739 9.77419C16.4739 9.01416 16.4656 8.26239 16.4739 7.50236C16.4821 6.45319 17.2835 5.63533 18.2996 5.62707C19.3075 5.61881 20.1088 6.41188 20.1418 7.44453C20.1501 7.84933 20.1418 8.25413 20.1418 8.65067ZM18.9275 8.65893C18.9275 8.27065 18.9357 7.88238 18.9275 7.4941C18.9192 7.10582 18.6879 6.84973 18.3327 6.84973C17.9692 6.84147 17.6965 7.0893 17.6965 7.48584C17.6883 8.26239 17.6883 9.03894 17.6965 9.80723C17.7048 10.179 17.9774 10.4351 18.3244 10.4351C18.6714 10.4268 18.9192 10.179 18.9275 9.79071C18.9275 9.41896 18.9275 9.03894 18.9275 8.65893Z" fill="currentColor"></path>
    <path d="M26.8833 21.315C26.9081 20.7863 27.0898 20.3154 27.4368 19.9106C27.9077 19.3654 27.8994 18.8863 27.4285 18.3328C26.7429 17.5232 26.7016 16.3914 27.3294 15.5735C27.5938 15.2265 27.9325 15.1522 28.2299 15.3752C28.519 15.5983 28.5521 15.9287 28.3125 16.2757C27.9986 16.7301 28.0151 17.1514 28.3703 17.5727C29.2047 18.5723 29.1964 19.7041 28.3703 20.712C28.2216 20.8937 28.1473 21.1581 28.106 21.3894C28.0316 21.7777 27.8086 22.009 27.4533 21.9925C27.1064 21.9759 26.8833 21.7033 26.8833 21.315Z" fill="currentColor"></path>
    <path d="M7.64279 21.3233C7.66757 20.8194 7.82453 20.3733 8.14672 19.985C8.70022 19.3241 8.70848 18.9276 8.15498 18.275C7.47756 17.4819 7.50234 16.1436 8.20454 15.4414C8.37803 15.2679 8.56804 15.1935 8.80762 15.2679C9.04719 15.3422 9.20415 15.5074 9.22068 15.7388C9.22894 15.8957 9.17936 16.0857 9.09675 16.2262C8.75804 16.7797 8.77456 17.1184 9.18762 17.6223C9.94765 18.5393 9.93939 19.7041 9.19588 20.6294C9.0224 20.8442 8.92327 21.1333 8.86544 21.4059C8.78283 21.7777 8.58455 21.9925 8.22932 21.9842C7.87409 21.976 7.63452 21.7033 7.64279 21.3233Z" fill="currentColor"></path>
    <path d="M23.678 21.2572C23.7193 20.8442 23.8101 20.3815 24.1488 20.0346C24.6858 19.4811 24.7023 18.845 24.1571 18.2419C23.4962 17.5066 23.5375 16.2592 24.1736 15.5074C24.4132 15.2266 24.7354 15.1687 24.9997 15.3587C25.2806 15.557 25.3385 15.8874 25.1485 16.2096C24.7602 16.8623 24.785 17.1266 25.2806 17.7132C25.958 18.5145 25.9581 19.795 25.2641 20.5798C25.0411 20.8276 24.9089 21.1003 24.8676 21.4307C24.818 21.8355 24.5702 22.0338 24.2067 22.0007C23.8845 21.9594 23.6697 21.6868 23.678 21.2572Z" fill="currentColor"></path>
    <path d="M10.8645 21.249C10.8893 20.8442 11.0215 20.4228 11.3023 20.0593C11.9385 19.2167 11.9385 19.035 11.3106 18.2088C10.7241 17.4323 10.7241 16.3335 11.3189 15.557C11.575 15.2265 11.9137 15.1522 12.2028 15.367C12.5002 15.59 12.5333 15.9122 12.3019 16.2592C11.988 16.7136 12.0128 17.1679 12.368 17.581C13.1776 18.5228 13.1694 19.7206 12.3763 20.6789C12.2193 20.8772 12.1367 21.1498 12.0789 21.4059C11.988 21.8025 11.7815 22.0172 11.418 21.9842C11.0628 21.9677 10.8562 21.6951 10.8645 21.249Z" fill="currentColor"></path>
    <path d="M18.3824 4.18962C18.0354 4.19788 17.7793 3.93352 17.7793 3.59481C17.7793 3.26437 18.0354 3.01653 18.3658 3.00827C18.6963 3.00827 18.9606 3.25611 18.9772 3.57829C18.9854 3.917 18.7211 4.18962 18.3824 4.18962Z" fill="currentColor"></path>
  </symbol>
  <symbol fill="none" xmlns="http://www.w3.org/2000/svg" viewBox="0 0 22 22" id="check">
    <path d="M8.89808 17.5276C8.81315 17.613 8.71217 17.6808 8.60095 17.7271C8.48972 17.7733 8.37046 17.7971 8.25 17.7971C8.12954 17.7971 8.01027 17.7733 7.89905 17.7271C7.78783 17.6808 7.68685 17.613 7.60192 17.5276L2.42642 12.3512C2.16864 12.0933 2.02383 11.7437 2.02383 11.3791C2.02383 11.0145 2.16864 10.6648 2.42642 10.4069L3.0745 9.75884C3.33235 9.50107 3.68202 9.35626 4.04662 9.35626C4.41122 9.35626 4.7609 9.50107 5.01875 9.75884L8.25 12.9901L16.9812 4.25884C17.2391 4.00107 17.5888 3.85626 17.9534 3.85626C18.318 3.85626 18.6676 4.00107 18.9255 4.25884L19.5736 4.90693C19.8314 5.16478 19.9762 5.51445 19.9762 5.87905C19.9762 6.24365 19.8314 6.59333 19.5736 6.85118L8.89808 17.5276Z" fill="currentColor"></path>
  </symbol>
  <symbol fill="none" xmlns="http://www.w3.org/2000/svg" viewBox="0 0 21 22" id="fire">
    <g clip-path="url(#clip0_201_14136)">
      <path fill-rule="evenodd" clip-rule="evenodd" d="M18.7294 14.5044C18.7294 11.8444 17.1894 8.57625 16.1525 6.6775L15.2294 5.11562C15.3158 5.71572 15.2816 6.32705 15.1287 6.91375C14.9281 7.42855 14.6209 7.89519 14.2275 8.28313C14.1827 6.92899 13.7829 5.61039 13.0681 4.45938C12.9325 4.25813 12.5869 3.70994 12.2019 3.22125C11.4424 2.25343 10.5036 1.44092 9.43687 0.828125C9.81024 1.60023 10.0344 2.43593 10.0975 3.29125C10.0669 4.2975 9.74749 4.90125 8.23812 6.87C6.72874 8.83875 7.10062 11.7744 7.10062 11.7744C6.98005 11.3642 6.81577 10.9682 6.61062 10.5931C6.21687 9.8275 4.61125 8.92625 4.51062 8.87375C4.55437 8.98312 5.27625 10.7812 4.29187 12.0019C3.04062 13.5638 2.03875 14.7275 2.31437 17.0638C2.66437 20.0344 6.04625 20.8656 7.59937 21.0888H7.60374C8.07187 21.1588 8.36937 21.1719 8.36937 21.1719C7.34693 20.8219 6.76418 19.5356 6.68368 18.8282C6.62114 18.4252 6.64663 18.0134 6.75841 17.6212C6.87019 17.2291 7.06559 16.8657 7.33118 16.5563C7.53943 16.271 8.30899 15.5063 8.56799 15.2438C9.24712 14.6639 9.72018 13.8797 9.91637 13.0086C10.022 12.3995 10.041 11.7785 9.97281 11.1641C10.6928 11.6209 11.3029 12.2313 11.7591 12.9517C12.1149 13.5162 12.3124 14.1659 12.3309 14.8329C12.5247 14.641 12.6759 14.4106 12.775 14.1566C12.8503 13.8657 12.8665 13.5626 12.8227 13.2654C12.8227 13.2654 14.5972 15.7154 14.5473 17.8924C14.4847 20.6206 12.7973 21.1706 12.7947 21.1736C12.8126 21.1693 18.7294 20.4316 18.7294 14.5044Z" fill="currentColor"></path>
    </g>
    <defs>
      <clipPath id="clip0_201_14136">
        <rect width="21" height="21" fill="white" transform="translate(0 0.5)"></rect>
      </clipPath>
    </defs>
  </symbol>
  <symbol fill="none" xmlns="http://www.w3.org/2000/svg" viewBox="0 0 19 19" id="psv-01">
    <rect width="9" height="9" rx="2" fill="currentColor"></rect>
    <rect y="10" width="9" height="9" rx="2" fill="currentColor"></rect>
    <rect x="10" width="9" height="9" rx="2" fill="currentColor"></rect>
    <rect x="10" y="10" width="9" height="9" rx="2" fill="currentColor"></rect>
  </symbol>
  <symbol fill="none" xmlns="http://www.w3.org/2000/svg" viewBox="0 0 19 18" id="psv-02">
    <rect width="4" height="4" rx="1" fill="currentColor"></rect>
    <rect x="6" width="13" height="4" rx="1" fill="currentColor"></rect>
    <rect y="7" width="4" height="4" rx="1" fill="currentColor"></rect>
    <rect x="6" y="7" width="13" height="4" rx="1" fill="currentColor"></rect>
    <rect y="14" width="4" height="4" rx="1" fill="currentColor"></rect>
    <rect x="6" y="14" width="13" height="4" rx="1" fill="currentColor"></rect>
  </symbol>
  <symbol fill="none" xmlns="http://www.w3.org/2000/svg" viewBox="0 0 13 18" id="psv-03">
    <rect width="13" height="4" rx="1" fill="currentColor"></rect>
    <rect y="7" width="13" height="4" rx="1" fill="currentColor"></rect>
    <rect y="14" width="13" height="4" rx="1" fill="currentColor"></rect>
  </symbol>
  <symbol fill="none" xmlns="http://www.w3.org/2000/svg" viewBox="0 0 24 24" id="search">
    <path d="M18.031 16.617L22.314 20.899L20.899 22.314L16.617 18.031C15.0237 19.3082 13.042 20.0029 11 20C6.032 20 2 15.968 2 11C2 6.032 6.032 2 11 2C15.968 2 20 6.032 20 11C20.0029 13.042 19.3082 15.0237 18.031 16.617ZM16.025 15.875C17.2941 14.5699 18.0029 12.8204 18 11C18 7.132 14.867 4 11 4C7.132 4 4 7.132 4 11C4 14.867 7.132 18 11 18C12.8204 18.0029 14.5699 17.2941 15.875 16.025L16.025 15.875Z" fill="currentColor"></path>
  </symbol>
  <symbol fill="none" xmlns="http://www.w3.org/2000/svg" viewBox="0 0 29 25" id="shop-cart">
    <g clip-path="url(#clip0_302_1273)">
      <path fill-rule="evenodd" clip-rule="evenodd" d="M1.15245 0.0403339C0.911548 0.0983291 0.604918 0.438121 0.555398 0.70201C0.493865 1.02994 0.644417 1.37238 0.925476 1.54379C1.13447 1.6712 1.33137 1.68218 3.41352 1.6824C5.5029 1.6827 5.67747 1.6925 5.71321 1.81166C5.73443 1.88255 6.40178 4.87538 7.19618 8.46231C7.99065 12.0492 8.65674 15.0398 8.67657 15.1079C8.70184 15.195 8.63449 15.2688 8.45004 15.3564C8.06964 15.5369 7.5594 16.1412 7.37694 16.6272C7.25101 16.9628 7.22492 17.166 7.24717 17.6369C7.28196 18.37 7.47702 18.8158 7.97532 19.3012C8.48232 19.795 8.96839 19.9647 10.0161 20.0137L10.8473 20.0527L10.4436 20.2167C9.61171 20.5548 9.11157 21.1594 8.92822 22.0487C8.58342 23.7218 10.0987 25.2686 11.7808 24.9606C13.1586 24.7084 14.0661 23.3924 13.7892 22.0487C13.6048 21.1542 13.1089 20.5582 12.2576 20.2081L11.8377 20.0353H17.254H22.6704L22.2592 20.2045C21.4685 20.5298 20.9736 21.0723 20.7424 21.8674C20.2503 23.5602 21.7584 25.2467 23.5121 24.9646C24.6011 24.7895 25.3782 24.025 25.576 22.9341C25.7201 22.1397 25.4768 21.3619 24.9004 20.7742C24.6122 20.4803 24.0066 20.1256 23.7389 20.0939C23.6781 20.0867 23.9676 20.0616 24.3823 20.0379C25.1111 19.9964 25.1443 19.987 25.3771 19.7541C25.5772 19.5541 25.618 19.4575 25.618 19.1844C25.618 18.9114 25.5772 18.8148 25.3771 18.6147L25.1362 18.3738L17.2711 18.337C11.0712 18.3079 9.37096 18.2802 9.24082 18.2058C9.05033 18.097 8.85321 17.7514 8.85321 17.5264C8.85321 17.3337 9.02343 16.9971 9.19123 16.8578C9.2986 16.7687 10.5164 16.747 17.1765 16.7158C24.5826 16.6811 25.0467 16.6712 25.2373 16.5463C25.3486 16.4735 25.4876 16.3077 25.5463 16.1779C25.605 16.0481 26.4026 13.3109 27.3189 10.0952C28.6139 5.5501 28.9745 4.19337 28.9386 4.00162C28.9113 3.85637 28.8001 3.67738 28.668 3.56625L28.4439 3.3776H18.1309H7.81784L7.75557 3.21179C7.7213 3.12064 7.57178 2.48225 7.42322 1.79323C7.27149 1.08963 7.09463 0.459712 7.01984 0.356249C6.77643 0.0197003 6.56287 -0.00417564 3.84218 0.000466922C2.44389 0.00289874 1.23351 0.0208793 1.15245 0.0403339ZM26.9813 5.10161C26.9813 5.17788 24.4586 14.0935 24.2111 14.8919C24.1734 15.0135 23.7791 15.0209 17.2903 15.0209C13.5058 15.0209 10.3923 14.9932 10.3715 14.9594C10.3197 14.8757 8.18998 5.26749 8.18998 5.1179C8.18998 5.00891 8.98386 4.99881 17.5856 4.99881C25.5742 4.99881 26.9813 5.01421 26.9813 5.10161ZM11.617 21.7268C11.6714 21.7268 11.8179 21.8288 11.9426 21.9535C12.2585 22.2694 12.2633 22.7247 11.9543 23.0705C11.764 23.2834 11.6954 23.3111 11.3587 23.3111C11.022 23.3111 10.9534 23.2834 10.7631 23.0705C10.5203 22.7986 10.4792 22.4422 10.6524 22.1074C10.7834 21.854 11.2051 21.6279 11.42 21.6958C11.474 21.7129 11.5626 21.7268 11.617 21.7268ZM23.6343 21.848C23.9669 22.0659 24.0523 22.5693 23.8211 22.9486C23.3967 23.6445 22.3387 23.3324 22.3387 22.5113C22.3387 22.341 22.3928 22.1246 22.4587 22.0304C22.7082 21.6743 23.2427 21.5914 23.6343 21.848Z" fill="currentColor"></path>
    </g>
    <defs>
      <clipPath id="clip0_302_1273">
        <rect width="28.3992" height="25" fill="white" transform="translate(0.541748)"></rect>
      </clipPath>
    </defs>
  </symbol>
  <symbol fill="none" xmlns="http://www.w3.org/2000/svg" viewBox="0 0 23 20" id="shop-compare">
    <path d="M2.38471 11.8471C2.38471 11.8191 2.40736 11.7965 2.4353 11.7965H6.68236C6.7103 11.7965 6.73294 11.8191 6.73294 11.8471V19.2235C6.73294 19.2515 6.7103 19.2741 6.68236 19.2741H2.4353C2.40736 19.2741 2.38471 19.2515 2.38471 19.2235V11.8471ZM9.09059 5.58824C9.09059 5.5603 9.11324 5.53765 9.14118 5.53765H13.3882C13.4162 5.53765 13.4388 5.5603 13.4388 5.58824V19.2235C13.4388 19.2515 13.4162 19.2741 13.3882 19.2741H9.14118C9.11324 19.2741 9.09059 19.2515 9.09059 19.2235V5.58824ZM15.7965 0.670588C15.7965 0.642648 15.8191 0.62 15.8471 0.62H20.0941C20.1221 0.62 20.1447 0.642651 20.1447 0.670588V19.2235C20.1447 19.2515 20.1221 19.2741 20.0941 19.2741H15.8471C15.8191 19.2741 15.7965 19.2515 15.7965 19.2235V0.670588Z" stroke="currentColor" stroke-width="1.24"></path>
  </symbol>
  <symbol fill="none" xmlns="http://www.w3.org/2000/svg" viewBox="0 0 30 25" id="shop-favourites">
    <path fill-rule="evenodd" clip-rule="evenodd" d="M7.45598 0.173637C3.889 0.938123 1.20058 4.05507 0.960921 7.7042C0.851787 9.36523 1.18972 10.8343 2.09964 12.6546C3.91324 16.2827 7.93222 20.3393 13.2086 23.8678C14.5928 24.7935 14.979 25 15.3257 25C15.588 25 17.5522 23.7491 19.1314 22.5761C25.1545 18.1025 28.7703 13.5165 29.4524 9.48533C29.7397 7.78756 29.3205 5.64141 28.3898 4.04531C27.5707 2.64039 25.991 1.26618 24.4508 0.618399C21.6133 -0.574834 18.1186 -0.00536416 15.8696 2.01674C15.5647 2.29083 15.2809 2.51513 15.2391 2.51513C15.1973 2.51513 14.8838 2.26495 14.5423 1.95926C13.7307 1.2324 11.9977 0.380279 10.8824 0.159708C9.83641 -0.0472628 8.46056 -0.0416689 7.45598 0.173637ZM10.5214 1.91232C11.858 2.193 12.803 2.739 13.9059 3.86796C15.2092 5.2018 15.2491 5.2018 16.5622 3.86828C17.3302 3.08844 17.7183 2.78802 18.3637 2.47389C20.2846 1.53896 22.2102 1.53479 24.1612 2.46139C25.169 2.93993 26.4739 4.20424 27.0032 5.21474C27.7593 6.65816 27.9355 8.48646 27.4778 10.1381C26.6519 13.1181 23.6254 16.7923 19.0695 20.3457C17.9017 21.2565 15.3744 23.0257 15.241 23.0257C15.1133 23.0257 13.1441 21.6655 11.8661 20.6946C5.2892 15.6984 2.09405 10.8771 2.83473 7.06695C3.0926 5.74023 3.65132 4.70373 4.64339 3.71166C6.26329 2.09176 8.3433 1.45506 10.5214 1.91232Z" fill="currentColor"></path>
  </symbol>
  <symbol fill="none" xmlns="http://www.w3.org/2000/svg" viewBox="0 0 16 16" id="shop-favourites-fill">
    <path d="M8 15.3333L6.84 14.3262C2.72 10.7633 0 8.40579 0 5.5295C0 3.17201 1.936 1.33331 4.4 1.33331C5.792 1.33331 7.128 1.9513 8 2.92023C8.872 1.9513 10.208 1.33331 11.6 1.33331C14.064 1.33331 16 3.17201 16 5.5295C16 8.40579 13.28 10.7633 9.16 14.3262L8 15.3333Z" fill="currentColor"></path>
  </symbol>
  <symbol fill="none" xmlns="http://www.w3.org/2000/svg" viewBox="0 0 16 17" id="shop-in-stock">
    <path d="M8 1.83331C4.33333 1.83331 1.33333 4.83331 1.33333 8.49998C1.33333 12.1666 4.33333 15.1666 8 15.1666C11.6667 15.1666 14.6667 12.1666 14.6667 8.49998C14.6667 4.83331 11.6667 1.83331 8 1.83331ZM6.66667 11.8333L3.33333 8.49998L4.27333 7.55998L6.66667 9.94665L11.7267 4.88665L12.6667 5.83331L6.66667 11.8333Z" fill="currentColor"></path>
  </symbol>
  <symbol fill="none" xmlns="http://www.w3.org/2000/svg" viewBox="0 0 25 25" id="shop-login">
    <path fill-rule="evenodd" clip-rule="evenodd" d="M10.2026 0.153428C5.89854 0.936209 2.22713 4.08142 0.740899 8.25927C-0.892248 12.8504 0.21651 17.811 3.65246 21.2859C9.69094 27.3925 19.8619 25.7376 23.7305 18.019C24.8506 15.784 25.2638 12.925 24.8323 10.3957C23.9453 5.19673 19.8654 1.04568 14.7664 0.154458C13.5908 -0.0510847 11.3297 -0.0515427 10.2026 0.153428ZM13.675 1.48116C18.353 2.004 22.0647 5.28456 23.2556 9.94861C23.5794 11.2169 23.5572 13.8819 23.2118 15.1999C22.8952 16.4086 22.1279 18.0289 21.4197 18.9841L20.874 19.7203L20.5625 18.8696C19.7888 16.7571 18.3488 15.118 16.3922 14.1226L15.5535 13.6959L16.1738 13.0888C16.9333 12.3456 17.543 11.1275 17.6892 10.0606C18.0022 7.77844 16.7715 5.5374 14.653 4.53155C13.9132 4.18035 13.814 4.16341 12.5006 4.16341C11.1441 4.16341 11.1111 4.1697 10.2718 4.58537C6.91956 6.24598 6.24208 10.5499 8.92126 13.1655L9.4741 13.7052L8.64936 14.1252C6.67633 15.1298 5.20815 16.7811 4.46064 18.8361L4.13903 19.7203L3.5934 18.9841C1.12362 15.6524 0.80442 10.8799 2.8059 7.20888C4.68787 3.7569 8.18963 1.60689 12.3111 1.37283C12.455 1.36459 13.0687 1.41337 13.675 1.48116ZM13.8775 5.79939C14.2765 5.93485 14.6585 6.20086 15.1444 6.68157C15.9906 7.51862 16.2767 8.22194 16.2629 9.4308C16.2467 10.8612 15.3879 12.174 14.0666 12.7882C13.1467 13.2159 11.8664 13.2159 10.9465 12.7882C8.61782 11.7056 8.00044 8.69096 9.72098 6.80409C10.8328 5.5848 12.2419 5.24414 13.8775 5.79939ZM14.6208 14.9766C16.7844 15.6499 18.6686 17.5522 19.3138 19.7149C19.4418 20.1439 19.5305 20.6288 19.5111 20.7925C19.4396 21.3921 17.1098 22.6942 15.2151 23.1935C14.2987 23.435 13.8381 23.4867 12.5637 23.4918C10.1693 23.5013 8.43389 22.9882 6.42761 21.6774L5.45126 21.0396L5.52004 20.5368C5.89248 17.813 8.40555 15.2667 11.2214 14.7602C12.095 14.6029 13.7612 14.7091 14.6208 14.9766Z" fill="currentColor"></path>
  </symbol>
  <symbol fill="none" xmlns="http://www.w3.org/2000/svg" viewBox="0 0 25 25" id="shop-view">
    <path d="M24.8411 12.0137C24.6177 11.7082 19.2963 4.53296 12.4998 4.53296C5.70341 4.53296 0.381733 11.7082 0.158638 12.0134C0.0555513 12.1547 0 12.325 0 12.4998C0 12.6747 0.0555513 12.845 0.158638 12.9862C0.381733 13.2917 5.70341 20.467 12.4998 20.467C19.2963 20.467 24.6177 13.2917 24.8411 12.9865C24.9443 12.8453 24.9999 12.675 24.9999 12.5001C24.9999 12.3252 24.9443 12.1549 24.8411 12.0137ZM12.4998 18.8187C7.49355 18.8187 3.15756 14.0563 1.87402 12.4994C3.1559 10.9412 7.48281 6.1813 12.4998 6.1813C17.5059 6.1813 21.8416 10.9428 23.1257 12.5005C21.8438 14.0587 17.5169 18.8187 12.4998 18.8187Z" fill="currentColor"></path>
    <path d="M12.4999 7.55493C9.77322 7.55493 7.55481 9.77334 7.55481 12.5C7.55481 15.2267 9.77322 17.4451 12.4999 17.4451C15.2265 17.4451 17.4449 15.2267 17.4449 12.5C17.4449 9.77334 15.2265 7.55493 12.4999 7.55493ZM12.4999 15.7967C10.682 15.7967 9.2032 14.3178 9.2032 12.5C9.2032 10.6822 10.6821 9.20332 12.4999 9.20332C14.3177 9.20332 15.7966 10.6822 15.7966 12.5C15.7966 14.3178 14.3177 15.7967 12.4999 15.7967Z" fill="currentColor"></path>
  </symbol>
</svg>