<svg width="27" height="27" viewBox="0 0 27 27" fill="none" xmlns="http://www.w3.org/2000/svg">
<path d="M13.4639 26.9214C13.3833 26.9221 13.3034 26.9069 13.2288 26.8766C13.1542 26.8463 13.0862 26.8016 13.0289 26.7449C9.85838 23.5681 6.57435 20.2903 4.14127 17.0378C1.35521 13.3315 0 10.0538 0 7.03449C0 3.15796 3.15796 0 7.0408 0C10.2807 0 12.0078 1.55061 13.4639 4.12236C14.9199 1.55061 16.647 0 19.8932 0C23.7698 0 26.9277 3.15165 26.9277 7.03449C26.9277 10.0601 25.5725 13.3315 22.7865 17.0441C20.3534 20.2903 17.0694 23.5681 13.8988 26.7449C13.8405 26.802 13.7716 26.847 13.6958 26.8773C13.6201 26.9076 13.5454 26.9226 13.4639 26.9214ZM9.80795 17.4034C9.69097 17.4037 9.57637 17.3705 9.47774 17.3076C9.3791 17.2447 9.30057 17.1548 9.25147 17.0487C9.20237 16.9425 9.18475 16.8245 9.20071 16.7086C9.21667 16.5927 9.26553 16.4838 9.34151 16.3949L16.6533 7.74046C16.7035 7.67426 16.7665 7.61896 16.8387 7.57793C16.9109 7.5369 16.9907 7.51101 17.0733 7.50184C17.1558 7.49266 17.2393 7.50039 17.3188 7.52456C17.3982 7.54873 17.4719 7.58882 17.5353 7.6424C17.5988 7.69598 17.6506 7.76193 17.6878 7.83621C17.7249 7.91049 17.7465 7.99155 17.7512 8.07445C17.756 8.15735 17.7438 8.24035 17.7155 8.3184C17.6871 8.39644 17.6431 8.46788 17.5862 8.52838L10.2744 17.1828C10.2174 17.2514 10.1462 17.3066 10.0656 17.3447C9.98501 17.3829 9.89708 17.4029 9.80795 17.4034ZM10.1861 12.1717C9.80786 12.1717 9.43328 12.0972 9.08378 11.9524C8.73429 11.8076 8.41674 11.5955 8.14925 11.328C7.88176 11.0605 7.66957 10.7429 7.52481 10.3934C7.38004 10.0439 7.30553 9.66936 7.30553 9.29108C7.30553 8.91279 7.38004 8.53821 7.52481 8.18871C7.66957 7.83922 7.88176 7.52167 8.14925 7.25418C8.41674 6.98669 8.73429 6.7745 9.08378 6.62974C9.43328 6.48497 9.80786 6.41046 10.1861 6.41046C10.926 6.4451 11.6241 6.76339 12.1354 7.29922C12.6468 7.83506 12.932 8.54726 12.932 9.28793C12.932 10.0286 12.6468 10.7408 12.1354 11.2766C11.6241 11.8125 10.926 12.1307 10.1861 12.1654V12.1717ZM10.1861 7.64591C9.74815 7.64591 9.3281 7.81991 9.01838 8.12962C8.70868 8.43933 8.53468 8.85938 8.53468 9.29738C8.53468 9.73538 8.70868 10.1554 9.01838 10.4651C9.3281 10.7749 9.74815 10.9488 10.1861 10.9488C10.6241 10.9488 11.0442 10.7749 11.3539 10.4651C11.6636 10.1554 11.8376 9.73538 11.8376 9.29738C11.8376 8.85938 11.6636 8.43933 11.3539 8.12962C11.0442 7.81991 10.6241 7.64591 10.1861 7.64591ZM16.7416 18.6263C16.3524 18.6436 15.9637 18.5818 15.599 18.4446C15.2343 18.3074 14.9013 18.0977 14.62 17.8281C14.3387 17.5585 14.1151 17.2346 13.9626 16.8761C13.8101 16.5176 13.7319 16.1318 13.7327 15.7422C13.7336 15.3526 13.8135 14.9672 13.9675 14.6093C14.1216 14.2515 14.3467 13.9286 14.6291 13.6602C14.9116 13.3919 15.2455 13.1836 15.6108 13.048C15.9761 12.9124 16.365 12.8523 16.7542 12.8714C17.494 12.9068 18.1918 13.2258 18.7025 13.7622C19.2133 14.2986 19.4978 15.0112 19.497 15.7518C19.4962 16.4925 19.2101 17.2044 18.6982 17.7397C18.1862 18.2749 17.4815 18.5925 16.7416 18.6263ZM16.7416 14.1005C16.5247 14.1009 16.31 14.144 16.1098 14.2274C15.9096 14.3108 15.7278 14.4328 15.5747 14.5864C15.4217 14.7401 15.3004 14.9224 15.2178 15.1229C15.1352 15.3234 15.0929 15.5382 15.0933 15.7551C15.0937 15.972 15.1368 16.1867 15.2202 16.3869C15.3036 16.5871 15.4256 16.7689 15.5792 16.922C15.7329 17.075 15.9151 17.1963 16.1157 17.2789C16.3162 17.3615 16.531 17.4038 16.7479 17.4034C17.1859 17.4034 17.6059 17.2294 17.9157 16.9197C18.2254 16.61 18.3994 16.19 18.3994 15.752C18.3994 15.314 18.2254 14.8939 17.9157 14.5842C17.6059 14.2745 17.1796 14.1005 16.7416 14.1005Z" fill="url(#paint0_linear_149_2643)"/>
<path d="M13.7922 14.8683V14.4078C13.7922 14.0582 13.8668 13.7369 14.016 13.4441C14.168 13.1485 14.3875 12.9126 14.6744 12.7363C14.9641 12.5573 15.317 12.4677 15.733 12.4677C16.1547 12.4677 16.509 12.5558 16.7959 12.7321C17.0856 12.9083 17.3036 13.1443 17.45 13.4399C17.5991 13.7327 17.6737 14.0553 17.6737 14.4078V14.8683C17.6737 15.2179 17.5991 15.5406 17.45 15.8362C17.3008 16.129 17.0813 16.3635 16.7916 16.5398C16.5018 16.7188 16.1489 16.8084 15.733 16.8084C15.3113 16.8084 14.957 16.7188 14.6701 16.5398C14.3832 16.3635 14.1652 16.129 14.016 15.8362C13.8668 15.5406 13.7922 15.2179 13.7922 14.8683ZM15.0445 14.4078V14.8683C15.0445 15.0701 15.0932 15.2606 15.1908 15.4397C15.2912 15.6187 15.4719 15.7083 15.733 15.7083C15.994 15.7083 16.1719 15.6202 16.2666 15.4439C16.3641 15.2677 16.4129 15.0758 16.4129 14.8683V14.4078C16.4129 14.2003 16.367 14.007 16.2752 13.8279C16.1834 13.6488 16.0026 13.5593 15.733 13.5593C15.4748 13.5593 15.2955 13.6488 15.1951 13.8279C15.0947 14.007 15.0445 14.2003 15.0445 14.4078ZM9.26953 9.87099V9.41048C9.26953 9.058 9.34555 8.73536 9.4976 8.44257C9.64965 8.14694 9.86911 7.911 10.156 7.73476C10.4457 7.55852 10.7957 7.4704 11.206 7.4704C11.6306 7.4704 11.9863 7.55852 12.2732 7.73476C12.5601 7.911 12.7781 8.14694 12.9273 8.44257C13.0764 8.73536 13.151 9.058 13.151 9.41048V9.87099C13.151 10.2235 13.075 10.5461 12.923 10.8389C12.7738 11.1317 12.5543 11.3662 12.2646 11.5424C11.9777 11.7158 11.6248 11.8025 11.206 11.8025C10.7871 11.8025 10.4328 11.7144 10.1431 11.5382C9.8562 11.3591 9.63817 11.1246 9.489 10.8346C9.34269 10.5418 9.26953 10.2206 9.26953 9.87099ZM10.5304 9.41048V9.87099C10.5304 10.0785 10.5791 10.2704 10.6767 10.4466C10.7771 10.6229 10.9535 10.711 11.206 10.711C11.4699 10.711 11.6492 10.6229 11.7439 10.4466C11.8414 10.2704 11.8902 10.0785 11.8902 9.87099V9.41048C11.8902 9.20297 11.8443 9.00967 11.7525 8.83059C11.6607 8.6515 11.4785 8.56196 11.206 8.56196C10.9507 8.56196 10.7742 8.65293 10.6767 8.83485C10.5791 9.01678 10.5304 9.20866 10.5304 9.41048ZM9.83756 16.5056L15.8965 7.77314H17.0239L10.965 16.5056H9.83756Z" fill="white"/>
<defs>
<linearGradient id="paint0_linear_149_2643" x1="-14.3093" y1="13.4639" x2="23.3404" y2="13.4639" gradientUnits="userSpaceOnUse">
<stop stop-color="#FF7B02"/>
<stop offset="1" stop-color="#EE354B"/>
</linearGradient>
</defs>
</svg>
