<svg width="61" height="38" viewBox="0 0 61 38" fill="none" xmlns="http://www.w3.org/2000/svg">
<path d="M10.0276 12.1444H1.81779C1.60072 12.1444 1.39254 12.0582 1.23905 11.9047C1.08557 11.7512 0.999336 11.543 0.999336 11.326C0.999336 11.1089 1.08557 10.9007 1.23905 10.7473C1.39254 10.5938 1.60072 10.5075 1.81779 10.5075H10.0276C10.2447 10.5075 10.4528 10.5938 10.6063 10.7473C10.7598 10.9007 10.8461 11.1089 10.8461 11.326C10.8461 11.543 10.7598 11.7512 10.6063 11.9047C10.4528 12.0582 10.2447 12.1444 10.0276 12.1444ZM42.9766 37.0186C42.8687 37.0195 42.7618 36.9991 42.6619 36.9585C42.562 36.918 42.4711 36.8581 42.3944 36.7823C38.1502 32.5298 33.7542 28.1422 30.4973 23.7884C26.7679 18.827 24.9538 14.4395 24.9538 10.3978C24.9538 5.2087 29.181 0.981445 34.3786 0.981445C38.7155 0.981445 41.0275 3.0571 42.9766 6.49966C44.9256 3.0571 47.2376 0.981445 51.5829 0.981445C56.7721 0.981445 60.9993 5.20026 60.9993 10.3978C60.9993 14.4479 59.1852 18.827 55.4558 23.7968C52.1989 28.1422 47.8029 32.5298 43.5588 36.7823C43.4808 36.8587 43.3884 36.919 43.2871 36.9595C43.1857 37.0001 43.0857 37.0201 42.9766 37.0186ZM38.0827 24.2777C37.9261 24.2781 37.7727 24.2336 37.6407 24.1494C37.5087 24.0653 37.4036 23.945 37.3378 23.8029C37.2721 23.6607 37.2485 23.5028 37.2699 23.3476C37.2912 23.1925 37.3566 23.0468 37.4583 22.9277L47.246 11.3429C47.3131 11.2542 47.3975 11.1802 47.4942 11.1253C47.5908 11.0704 47.6976 11.0357 47.8081 11.0234C47.9186 11.0111 48.0304 11.0215 48.1367 11.0538C48.2431 11.0862 48.3417 11.1399 48.4266 11.2116C48.5116 11.2833 48.581 11.3716 48.6307 11.471C48.6804 11.5705 48.7093 11.679 48.7156 11.7899C48.722 11.9009 48.7057 12.012 48.6677 12.1165C48.6298 12.2209 48.5709 12.3166 48.4948 12.3976L38.7071 23.9824C38.6309 24.0742 38.5355 24.1482 38.4276 24.1992C38.3197 24.2502 38.202 24.277 38.0827 24.2777ZM38.589 17.2745C38.0826 17.2745 37.5812 17.1748 37.1134 16.981C36.6455 16.7872 36.2204 16.5032 35.8624 16.1451C35.5043 15.7871 35.2203 15.362 35.0265 14.8941C34.8327 14.4263 34.733 13.9249 34.733 13.4185C34.733 12.9121 34.8327 12.4107 35.0265 11.9429C35.2203 11.4751 35.5043 11.05 35.8624 10.6919C36.2204 10.3339 36.6455 10.0498 37.1134 9.85604C37.5812 9.66225 38.0826 9.56252 38.589 9.56252C39.5794 9.60888 40.5138 10.0349 41.1983 10.7522C41.8828 11.4695 42.2647 12.4228 42.2647 13.4143C42.2647 14.4058 41.8828 15.3591 41.1983 16.0764C40.5138 16.7936 39.5794 17.2197 38.589 17.2661V17.2745ZM38.589 11.2163C38.0027 11.2163 37.4404 11.4492 37.0258 11.8638C36.6112 12.2784 36.3783 12.8406 36.3783 13.427C36.3783 14.0133 36.6112 14.5755 37.0258 14.9901C37.4404 15.4047 38.0027 15.6376 38.589 15.6376C39.1753 15.6376 39.7376 15.4047 40.1522 14.9901C40.5667 14.5755 40.7996 14.0133 40.7996 13.427C40.7996 12.8406 40.5667 12.2784 40.1522 11.8638C39.7376 11.4492 39.1753 11.2163 38.589 11.2163ZM47.3641 25.9146C46.8431 25.9379 46.3228 25.8552 45.8346 25.6715C45.3465 25.4879 44.9007 25.2071 44.5242 24.8462C44.1477 24.4853 43.8483 24.0518 43.6441 23.5718C43.44 23.0919 43.3353 22.5756 43.3364 22.054C43.3376 21.5325 43.4445 21.0166 43.6508 20.5376C43.857 20.0585 44.1583 19.6263 44.5364 19.2671C44.9145 18.9078 45.3615 18.629 45.8505 18.4475C46.3394 18.266 46.8601 18.1856 47.381 18.2111C48.3713 18.2585 49.3053 18.6856 49.989 19.4036C50.6727 20.1216 51.0536 21.0754 51.0525 22.0669C51.0514 23.0584 50.6685 24.0113 49.9832 24.7278C49.2979 25.4443 48.3546 25.8694 47.3641 25.9146ZM47.3641 19.8564C47.0738 19.857 46.7865 19.9147 46.5185 20.0263C46.2505 20.1379 46.0071 20.3012 45.8022 20.5069C45.5973 20.7126 45.4349 20.9566 45.3243 21.225C45.2138 21.4934 45.1571 21.781 45.1577 22.0713C45.1582 22.3616 45.216 22.649 45.3276 22.917C45.4392 23.185 45.6025 23.4284 45.8082 23.6332C46.0138 23.8381 46.2578 24.0005 46.5263 24.1111C46.7947 24.2217 47.0823 24.2783 47.3726 24.2777C47.9589 24.2777 48.5212 24.0448 48.9357 23.6303C49.3503 23.2157 49.5832 22.6534 49.5832 22.0671C49.5832 21.4808 49.3503 20.9185 48.9357 20.5039C48.5212 20.0893 47.9504 19.8564 47.3641 19.8564ZM18.7352 12.8532H18.229C17.8239 12.8532 17.4355 12.6923 17.1491 12.4059C16.8627 12.1195 16.7018 11.731 16.7018 11.326C16.7018 10.9209 16.8627 10.5325 17.1491 10.2461C17.4355 9.95967 17.8239 9.79877 18.229 9.79877H18.7352C19.1392 9.79877 19.5265 9.95923 19.8122 10.2448C20.0978 10.5305 20.2582 10.9178 20.2582 11.3218C20.2582 11.7257 20.0978 12.1131 19.8122 12.3987C19.5265 12.6843 19.1392 12.8532 18.7352 12.8532ZM22.3634 5.17495H21.8572C21.4521 5.17495 21.0637 5.01405 20.7773 4.72764C20.4909 4.44123 20.3299 4.05278 20.3299 3.64774C20.3299 3.2427 20.4909 2.85424 20.7773 2.56784C21.0637 2.28143 21.4521 2.12053 21.8572 2.12053H22.3634C22.7685 2.12053 23.1569 2.28143 23.4433 2.56784C23.7297 2.85424 23.8906 3.2427 23.8906 3.64774C23.8906 4.05278 23.7297 4.44123 23.4433 4.72764C23.1569 5.01405 22.7685 5.17495 22.3634 5.17495ZM22.3634 20.5314H21.8572C21.4521 20.5314 21.0637 20.3705 20.7773 20.0841C20.4909 19.7977 20.3299 19.4093 20.3299 19.0042C20.3299 18.5992 20.4909 18.2107 20.7773 17.9243C21.0637 17.6379 21.4521 17.477 21.8572 17.477H22.3634C22.7673 17.477 23.1547 17.6375 23.4403 17.9231C23.726 18.2087 23.8864 18.5961 23.8864 19C23.8864 19.4039 23.726 19.7913 23.4403 20.0769C23.1547 20.3625 22.7673 20.5314 22.3634 20.5314ZM22.3634 35.8795H21.8572C21.4532 35.8795 21.0659 35.719 20.7802 35.4334C20.4946 35.1478 20.3342 34.7604 20.3342 34.3565C20.3342 33.9526 20.4946 33.5652 20.7802 33.2796C21.0659 32.994 21.4532 32.8335 21.8572 32.8335H22.3634C22.7662 32.8335 23.1525 32.9935 23.4374 33.2783C23.7222 33.5632 23.8822 33.9495 23.8822 34.3523C23.8822 34.7551 23.7222 35.1414 23.4374 35.4262C23.1525 35.711 22.7662 35.8711 22.3634 35.8711V35.8795ZM18.7352 28.2012H18.229C17.8251 28.2012 17.4377 28.0408 17.1521 27.7552C16.8664 27.4696 16.706 27.0822 16.706 26.6783C16.706 26.2743 16.8664 25.8869 17.1521 25.6013C17.4377 25.3157 17.8251 25.1553 18.229 25.1553H18.7352C19.138 25.1553 19.5243 25.3153 19.8092 25.6001C20.094 25.8849 20.254 26.2712 20.254 26.674C20.254 27.0768 20.094 27.4631 19.8092 27.748C19.5243 28.0328 19.138 28.2012 18.7352 28.2012ZM10.0276 27.5009H1.81779C1.5996 27.5009 1.39035 27.4142 1.23607 27.26C1.08179 27.1057 0.995117 26.8964 0.995117 26.6783C0.995117 26.4601 1.08179 26.2508 1.23607 26.0965C1.39035 25.9423 1.5996 25.8556 1.81779 25.8556H10.0276C10.2458 25.8556 10.455 25.9423 10.6093 26.0965C10.7636 26.2508 10.8503 26.4601 10.8503 26.6783C10.8503 26.8964 10.7636 27.1057 10.6093 27.26C10.455 27.4142 10.2458 27.5009 10.0276 27.5009ZM13.6558 35.1792H5.43753C5.21935 35.1792 5.0101 35.0925 4.85582 34.9382C4.70153 34.7839 4.61486 34.5747 4.61486 34.3565C4.61486 34.1383 4.70153 33.9291 4.85582 33.7748C5.0101 33.6205 5.21935 33.5338 5.43753 33.5338H13.6558C13.8728 33.5338 14.081 33.6201 14.2345 33.7735C14.388 33.927 14.4742 34.1352 14.4742 34.3523C14.4742 34.5693 14.388 34.7775 14.2345 34.931C14.081 35.0845 13.8728 35.1792 13.6558 35.1792ZM13.6558 19.8227H5.43753C5.21935 19.8227 5.0101 19.736 4.85582 19.5817C4.70153 19.4274 4.61486 19.2182 4.61486 19C4.61486 18.7818 4.70153 18.5726 4.85582 18.4183C5.0101 18.264 5.21935 18.1773 5.43753 18.1773H13.6558C13.874 18.1773 14.0832 18.264 14.2375 18.4183C14.3918 18.5726 14.4785 18.7818 14.4785 19C14.4785 19.2182 14.3918 19.4274 14.2375 19.5817C14.0832 19.736 13.874 19.8227 13.6558 19.8227ZM13.6558 4.46619H5.43753C5.22046 4.46619 5.01229 4.37996 4.8588 4.22647C4.70531 4.07298 4.61908 3.8648 4.61908 3.64774C4.61908 3.43067 4.70531 3.22249 4.8588 3.06901C5.01229 2.91552 5.22046 2.82929 5.43753 2.82929H13.6558C13.8728 2.82929 14.081 2.91552 14.2345 3.06901C14.388 3.22249 14.4742 3.43067 14.4742 3.64774C14.4742 3.8648 14.388 4.07298 14.2345 4.22647C14.081 4.37996 13.8728 4.46619 13.6558 4.46619Z" fill="url(#paint0_linear_308_1919)"/>
<path d="M43.3746 22.3818V21.6455C43.3746 21.0864 43.4928 20.5727 43.7292 20.1045C43.9701 19.6318 44.3178 19.2545 44.7723 18.9727C45.2314 18.6864 45.7905 18.5432 46.4496 18.5432C47.1178 18.5432 47.6792 18.6841 48.1337 18.9659C48.5928 19.2477 48.9382 19.625 49.1701 20.0977C49.4064 20.5659 49.5246 21.0818 49.5246 21.6455V22.3818C49.5246 22.9409 49.4064 23.4568 49.1701 23.9295C48.9337 24.3977 48.586 24.7727 48.1269 25.0545C47.6678 25.3409 47.1087 25.4841 46.4496 25.4841C45.7814 25.4841 45.2201 25.3409 44.7655 25.0545C44.311 24.7727 43.9655 24.3977 43.7292 23.9295C43.4928 23.4568 43.3746 22.9409 43.3746 22.3818ZM45.3587 21.6455V22.3818C45.3587 22.7045 45.436 23.0091 45.5905 23.2955C45.7496 23.5818 46.036 23.725 46.4496 23.725C46.8632 23.725 47.1451 23.5841 47.2951 23.3023C47.4496 23.0205 47.5269 22.7136 47.5269 22.3818V21.6455C47.5269 21.3136 47.4542 21.0045 47.3087 20.7182C47.1632 20.4318 46.8769 20.2886 46.4496 20.2886C46.0405 20.2886 45.7564 20.4318 45.5973 20.7182C45.4382 21.0045 45.3587 21.3136 45.3587 21.6455ZM36.2087 14.3909V13.6545C36.2087 13.0909 36.3292 12.575 36.5701 12.1068C36.811 11.6341 37.1587 11.2568 37.6132 10.975C38.0723 10.6932 38.6269 10.5523 39.2769 10.5523C39.9496 10.5523 40.5132 10.6932 40.9678 10.975C41.4223 11.2568 41.7678 11.6341 42.0042 12.1068C42.2405 12.575 42.3587 13.0909 42.3587 13.6545V14.3909C42.3587 14.9545 42.2382 15.4705 41.9973 15.9386C41.761 16.4068 41.4132 16.7818 40.9542 17.0636C40.4996 17.3409 39.9405 17.4795 39.2769 17.4795C38.6132 17.4795 38.0519 17.3386 37.5928 17.0568C37.1382 16.7705 36.7928 16.3955 36.5564 15.9318C36.3246 15.4636 36.2087 14.95 36.2087 14.3909ZM38.2064 13.6545V14.3909C38.2064 14.7227 38.2837 15.0295 38.4382 15.3114C38.5973 15.5932 38.8769 15.7341 39.2769 15.7341C39.6951 15.7341 39.9792 15.5932 40.1292 15.3114C40.2837 15.0295 40.361 14.7227 40.361 14.3909V13.6545C40.361 13.3227 40.2882 13.0136 40.1428 12.7273C39.9973 12.4409 39.7087 12.2977 39.2769 12.2977C38.8723 12.2977 38.5928 12.4432 38.4382 12.7341C38.2837 13.025 38.2064 13.3318 38.2064 13.6545ZM37.1087 25L46.7087 11.0364H48.4951L38.8951 25H37.1087Z" fill="white"/>
<defs>
<linearGradient id="paint0_linear_308_1919" x1="5.80035" y1="19.0042" x2="56.1983" y2="19.0042" gradientUnits="userSpaceOnUse">
<stop stop-color="#FF7B02"/>
<stop offset="1" stop-color="#EE354B"/>
</linearGradient>
</defs>
</svg>
