<svg width="45" height="45" viewBox="0 0 45 45" fill="none" xmlns="http://www.w3.org/2000/svg">
<path d="M39.5667 26.1441H32.3083V8.71155H42.5075C43.3245 8.71155 44.1851 9.14028 44.646 9.78078C44.9948 10.2645 45.0893 10.8178 44.9138 11.3452L40.149 25.7196C40.1096 25.8428 40.0321 25.9503 39.9276 26.0267C39.8231 26.103 39.696 26.1441 39.5667 26.1441ZM31.6045 26.1441H25.2992V8.71155H31.6056L31.6045 26.1441ZM24.5954 26.1441H18.4997C18.6617 25.8379 18.7042 25.4683 18.5869 25.1133L13.2387 8.98249C13.601 8.81017 14.0017 8.71259 14.3931 8.71259H24.5954V26.1441Z" fill="url(#paint0_linear_201_14234)"/>
<path d="M17.334 26.1442C17.205 26.1438 17.0794 26.1029 16.9749 26.0273C16.8704 25.9516 16.7923 25.8451 16.7516 25.7227L9.93968 5.17794C9.66459 4.34955 9.485 3.83673 9.27634 3.67998C9.06457 3.52219 8.52581 3.51077 7.66523 3.51077H3.55649C3.47572 3.51077 3.39574 3.49486 3.32111 3.46395C3.24649 3.43304 3.17868 3.38774 3.12157 3.33062C3.06446 3.27351 3.01915 3.2057 2.98824 3.13108C2.95733 3.05646 2.94142 2.97648 2.94142 2.89571C2.94142 2.81493 2.95733 2.73495 2.98824 2.66033C3.01915 2.58571 3.06446 2.5179 3.12157 2.46079C3.17868 2.40367 3.24649 2.35837 3.32111 2.32746C3.39574 2.29655 3.47572 2.28064 3.55649 2.28064H7.66523C10.031 2.28064 10.3539 2.51525 11.1075 4.78969L17.9194 25.3345C17.9503 25.4272 17.9586 25.5259 17.9437 25.6224C17.9288 25.719 17.8911 25.8106 17.8338 25.8897C17.7765 25.9688 17.7012 26.0332 17.6141 26.0774C17.527 26.1217 17.4317 26.1445 17.334 26.1442Z" fill="url(#paint1_linear_201_14234)"/>
<path d="M43.9764 32.8533H17.334C16.2812 32.8528 15.2717 32.4344 14.5272 31.6901C13.7827 30.9458 13.3641 29.9364 13.3633 28.8837C13.3638 27.8308 13.7823 26.8211 14.5269 26.0766C15.2714 25.3321 16.281 24.9136 17.334 24.913C17.4972 24.913 17.6538 24.9779 17.7692 25.0933C17.8847 25.2088 17.9495 25.3653 17.9495 25.5286C17.9495 25.6919 17.8847 25.8484 17.7692 25.9639C17.6538 26.0793 17.4972 26.1442 17.334 26.1442C15.8246 26.1442 14.5934 27.3743 14.5934 28.8837C14.5934 30.3931 15.8246 31.6232 17.334 31.6232H43.9764C44.1396 31.6232 44.296 31.688 44.4114 31.8034C44.5267 31.9187 44.5915 32.0752 44.5915 32.2383C44.5915 32.4014 44.5267 32.5579 44.4114 32.6732C44.296 32.7885 44.1396 32.8533 43.9764 32.8533Z" fill="url(#paint2_linear_201_14234)"/>
<path d="M22.4746 42.7193C21.4619 42.7179 20.4912 42.315 19.7752 41.5988C19.0592 40.8827 18.6566 39.9118 18.6555 38.8991C18.6568 37.8862 19.0597 36.9151 19.7757 36.1987C20.4918 35.4822 21.4627 35.0788 22.4756 35.0769C24.5809 35.0769 26.2958 36.7897 26.2958 38.8971C26.2958 41.0044 24.5798 42.7193 22.4746 42.7193Z" fill="url(#paint3_linear_201_14234)"/>
<path d="M35.4797 42.7193C34.4669 42.7182 33.4958 42.3154 32.7797 41.5992C32.0635 40.883 31.6606 39.912 31.6595 38.8991C31.6604 37.886 32.063 36.9146 32.7792 36.1981C33.4954 35.4815 34.4666 35.0783 35.4797 35.0769C37.5891 35.0769 39.2999 36.7897 39.2999 38.8971C39.2999 41.0044 37.586 42.7193 35.4797 42.7193Z" fill="url(#paint4_linear_201_14234)"/>
<path d="M8.56628 14.1574H1.95575C1.79262 14.1574 1.63618 14.0926 1.52083 13.9772C1.40548 13.8619 1.34068 13.7054 1.34068 13.5423C1.34068 13.3792 1.40548 13.2227 1.52083 13.1074C1.63618 12.992 1.79262 12.9272 1.95575 12.9272H8.56628C8.72941 12.9272 8.88585 12.992 9.0012 13.1074C9.11655 13.2227 9.18135 13.3792 9.18135 13.5423C9.18135 13.7054 9.11655 13.8619 9.0012 13.9772C8.88585 14.0926 8.72941 14.1574 8.56628 14.1574Z" fill="url(#paint5_linear_201_14234)"/>
<path d="M9.53689 18.0252H2.92636C2.7631 18.0252 2.60652 17.9604 2.49108 17.8449C2.37563 17.7295 2.31078 17.5729 2.31078 17.4097C2.31078 17.2464 2.37563 17.0898 2.49108 16.9744C2.60652 16.8589 2.7631 16.7941 2.92636 16.7941H9.53689C9.70016 16.7941 9.85673 16.8589 9.97218 16.9744C10.0876 17.0898 10.1525 17.2464 10.1525 17.4097C10.1525 17.5729 10.0876 17.7295 9.97218 17.8449C9.85673 17.9604 9.70016 18.0252 9.53689 18.0252Z" fill="url(#paint6_linear_201_14234)"/>
<path d="M7.22508 21.8963H0.615585C0.460021 21.8852 0.314433 21.8156 0.208142 21.7015C0.101851 21.5873 0.0427551 21.4372 0.0427551 21.2812C0.0427551 21.1252 0.101851 20.9751 0.208142 20.861C0.314433 20.7468 0.460021 20.6772 0.615585 20.6661H7.22508C7.38821 20.6661 7.54465 20.7309 7.66 20.8463C7.77534 20.9616 7.84015 21.1181 7.84015 21.2812C7.84015 21.4443 7.77534 21.6008 7.66 21.7161C7.54465 21.8315 7.38821 21.8963 7.22508 21.8963Z" fill="url(#paint7_linear_201_14234)"/>
<defs>
<linearGradient id="paint0_linear_201_14234" x1="13.2387" y1="17.4284" x2="45.0903" y2="17.4284" gradientUnits="userSpaceOnUse">
<stop stop-color="#FF7B02"/>
<stop offset="1" stop-color="#EE354B"/>
</linearGradient>
<linearGradient id="paint1_linear_201_14234" x1="2.9409" y1="14.2124" x2="18.0253" y2="14.2124" gradientUnits="userSpaceOnUse">
<stop stop-color="#FF7B02"/>
<stop offset="1" stop-color="#EE354B"/>
</linearGradient>
<linearGradient id="paint2_linear_201_14234" x1="13.3633" y1="28.8837" x2="44.592" y2="28.8837" gradientUnits="userSpaceOnUse">
<stop stop-color="#FF7B02"/>
<stop offset="1" stop-color="#EE354B"/>
</linearGradient>
<linearGradient id="paint3_linear_201_14234" x1="18.6555" y1="38.8981" x2="26.2947" y2="38.8981" gradientUnits="userSpaceOnUse">
<stop stop-color="#FF7B02"/>
<stop offset="1" stop-color="#EE354B"/>
</linearGradient>
<linearGradient id="paint4_linear_201_14234" x1="31.6606" y1="38.8981" x2="39.2999" y2="38.8981" gradientUnits="userSpaceOnUse">
<stop stop-color="#FF7B02"/>
<stop offset="1" stop-color="#EE354B"/>
</linearGradient>
<linearGradient id="paint5_linear_201_14234" x1="1.34016" y1="13.5418" x2="9.18083" y2="13.5418" gradientUnits="userSpaceOnUse">
<stop stop-color="#FF7B02"/>
<stop offset="1" stop-color="#EE354B"/>
</linearGradient>
<linearGradient id="paint6_linear_201_14234" x1="2.31078" y1="17.4097" x2="10.1514" y2="17.4097" gradientUnits="userSpaceOnUse">
<stop stop-color="#FF7B02"/>
<stop offset="1" stop-color="#EE354B"/>
</linearGradient>
<linearGradient id="paint7_linear_201_14234" x1="-6.18037e-07" y1="21.2807" x2="7.84066" y2="21.2807" gradientUnits="userSpaceOnUse">
<stop stop-color="#FF7B02"/>
<stop offset="1" stop-color="#EE354B"/>
</linearGradient>
</defs>
</svg>
