<svg width="45" height="45" viewBox="0 0 45 45" fill="none" xmlns="http://www.w3.org/2000/svg">
<path d="M22.503 43.9944C22.426 43.9971 22.3494 43.9837 22.278 43.955C18.3234 42.2168 15.2633 40.3998 12.9288 38.3916C6.14475 32.5582 6.32475 25.8811 6.66227 16.9369C6.7354 14.9287 6.81415 12.8586 6.81978 10.6479C6.81978 10.3329 7.08979 10.0798 7.4048 10.1023C9.62115 10.271 12.8894 9.70287 15.7302 8.64533C18.8916 7.46965 21.0629 5.91146 21.6929 4.34201C21.7343 4.24184 21.8045 4.15625 21.8947 4.09614C21.9848 4.03603 22.0908 4.00413 22.1992 4.0045C22.4242 4.0045 22.5648 3.97637 22.773 4.06075C22.908 4.11701 23.0149 4.21826 23.0767 4.35327C23.7405 5.93958 25.9512 7.52028 29.152 8.69033C32.049 9.75913 35.3679 10.2991 37.5899 10.0798C37.6656 10.0719 37.7422 10.08 37.8147 10.1035C37.8871 10.1271 37.9538 10.1655 38.0105 10.2164C38.0672 10.2672 38.1126 10.3294 38.1439 10.3989C38.1751 10.4684 38.1914 10.5436 38.1918 10.6198C38.1918 12.8418 38.2762 14.9231 38.3493 16.9313C38.6868 25.8755 38.8668 32.5582 32.0771 38.3916C29.7427 40.3998 26.6825 42.2168 22.728 43.955C22.6568 43.985 22.5802 43.9947 22.503 43.9944ZM22.503 40.7992C22.4252 40.7984 22.3485 40.7812 22.278 40.7486C18.9647 39.2973 16.4052 37.7729 14.4476 36.0909C8.74924 31.1969 8.88987 25.5886 9.17675 18.0901C9.23301 16.4138 9.30051 14.6868 9.30614 12.8418C9.30614 12.5211 9.57615 12.2736 9.89116 12.2961C11.7306 12.4367 14.4476 11.9586 16.8102 11.0867C19.426 10.1135 21.2204 8.82534 21.7323 7.54278C21.7736 7.44261 21.8439 7.35701 21.934 7.2969C22.0242 7.23679 22.1302 7.20489 22.2386 7.20527C22.4467 7.20527 22.5648 7.18276 22.7561 7.26152C22.8911 7.31214 23.0036 7.41902 23.0599 7.55403C23.6055 8.85346 25.4337 10.1585 28.0832 11.1261C30.4964 12.0092 33.2472 12.4592 35.0979 12.2792C35.1737 12.2722 35.2501 12.281 35.3223 12.3053C35.3944 12.3295 35.4607 12.3686 35.5169 12.42C35.573 12.4714 35.6178 12.534 35.6484 12.6037C35.6789 12.6734 35.6945 12.7488 35.6942 12.8249C35.6942 14.6812 35.7617 16.4138 35.8292 18.0901C36.1104 25.5829 36.2511 31.1969 30.5527 36.0909C28.5951 37.7785 26.0356 39.2973 22.7223 40.7486C22.6519 40.7817 22.5808 40.7989 22.503 40.7992ZM10.3974 13.4155C10.3806 15.0637 10.3243 16.6219 10.2681 18.1295C10.088 22.8491 9.93616 26.9218 11.4494 30.3925C13.0807 34.1277 16.4896 36.9853 22.503 39.6517C28.5107 36.9853 31.9196 34.1277 33.5509 30.3925C35.0698 26.9218 34.9123 22.8491 34.7322 18.1295C34.676 16.6163 34.6197 15.0637 34.6029 13.4043C32.634 13.4774 30.052 13.0105 27.7063 12.1555C26.1594 11.593 23.5718 10.4229 22.3961 8.62845C21.2542 10.3892 18.7115 11.548 17.1927 12.1105C14.8864 12.9655 12.355 13.4437 10.3974 13.4155ZM22.503 32.3726C20.2839 32.3696 18.1566 31.4868 16.5875 29.9177C15.0184 28.3486 14.1356 26.2213 14.1326 24.0022C14.1326 19.3895 17.8846 15.6319 22.503 15.6319C27.1157 15.6319 30.8677 19.3839 30.8677 24.0022C30.8632 26.2193 29.9805 28.3444 28.4128 29.9121C26.8451 31.4798 24.7201 32.3682 22.503 32.3726ZM22.503 16.7232C20.6439 16.8266 18.895 17.638 17.6155 18.9907C16.336 20.3434 15.623 22.1347 15.623 23.9966C15.623 25.8586 16.336 27.6499 17.6155 29.0026C18.895 30.3552 20.6439 31.1666 22.503 31.2701C26.5138 31.2701 29.7764 28.0074 29.7764 24.0022C29.7764 19.9858 26.5138 16.7232 22.503 16.7232ZM19.3359 28.2437C19.2316 28.2439 19.1293 28.2143 19.0413 28.1581C18.9532 28.102 18.8832 28.0218 18.8393 27.9271C18.7955 27.8323 18.7798 27.727 18.794 27.6236C18.8083 27.5202 18.8519 27.423 18.9197 27.3436L25.2481 19.8452C25.2928 19.7861 25.3491 19.7368 25.4135 19.7001C25.478 19.6635 25.5492 19.6404 25.6228 19.6322C25.6965 19.624 25.771 19.6309 25.8419 19.6525C25.9128 19.6741 25.9786 19.7099 26.0352 19.7577C26.0918 19.8055 26.1381 19.8643 26.1712 19.9306C26.2043 19.9969 26.2236 20.0693 26.2279 20.1433C26.2321 20.2172 26.2213 20.2913 26.1959 20.361C26.1706 20.4306 26.1314 20.4944 26.0806 20.5483L19.7522 28.0524C19.7008 28.1126 19.637 28.1608 19.5651 28.1939C19.4932 28.2269 19.4151 28.2439 19.3359 28.2437ZM19.6566 23.7097C19.3271 23.7094 19.0009 23.6441 18.6967 23.5177C18.3925 23.3913 18.1161 23.2061 17.8834 22.9729C17.4134 22.5019 17.1498 21.8635 17.1505 21.1981C17.1509 20.8686 17.2162 20.5424 17.3426 20.2382C17.469 19.9339 17.6541 19.6576 17.8874 19.4249C18.3584 18.9549 18.9968 18.6913 19.6622 18.692C20.3276 18.692 20.9657 18.9563 21.4362 19.4268C21.9067 19.8973 22.1711 20.5355 22.1711 21.2009C22.1711 21.8663 21.9067 22.5044 21.4362 22.9749C20.9657 23.4454 20.3276 23.7097 19.6622 23.7097H19.6566ZM19.6566 19.7889C19.2814 19.7889 18.9215 19.938 18.6562 20.2033C18.3909 20.4686 18.2418 20.8285 18.2418 21.2037C18.2418 21.5789 18.3909 21.9388 18.6562 22.2041C18.9215 22.4694 19.2814 22.6184 19.6566 22.6184C20.0318 22.6184 20.3916 22.4694 20.657 22.2041C20.9223 21.9388 21.0713 21.5789 21.0713 21.2037C21.0713 20.8285 20.9223 20.4686 20.657 20.2033C20.3916 19.938 20.0318 19.7889 19.6566 19.7889ZM25.3437 29.3012C25.0142 29.3009 24.6881 29.2356 24.3838 29.1092C24.0796 28.9828 23.8032 28.7976 23.5705 28.5644C23.3378 28.3312 23.1533 28.0544 23.0276 27.7499C22.9018 27.4453 22.8373 27.119 22.8377 26.7896C22.838 26.4601 22.9033 26.1339 23.0297 25.8297C23.1561 25.5254 23.3412 25.2491 23.5745 25.0163C23.8077 24.7836 24.0845 24.5991 24.389 24.4734C24.6936 24.3477 25.0199 24.2831 25.3493 24.2835C26.0147 24.2835 26.6529 24.5478 27.1234 25.0183C27.5939 25.4888 27.8582 26.127 27.8582 26.7924C27.8582 27.4578 27.5939 28.0959 27.1234 28.5664C26.6529 29.0369 26.0091 29.3012 25.3437 29.3012ZM25.3437 25.3861C24.9692 25.3861 24.6101 25.5348 24.3453 25.7996C24.0805 26.0644 23.9318 26.4235 23.9318 26.798C23.9318 27.1725 24.0805 27.5316 24.3453 27.7964C24.6101 28.0612 24.9692 28.2099 25.3437 28.2099C25.7182 28.2099 26.0773 28.0612 26.3421 27.7964C26.6069 27.5316 26.7556 27.1725 26.7556 26.798C26.7556 26.4235 26.6069 26.0644 26.3421 25.7996C26.0773 25.5348 25.7182 25.3861 25.3437 25.3861ZM22.503 38.1947C21.9123 38.1947 21.7379 37.3847 22.278 37.1484C26.8119 35.1627 29.5289 32.9295 31.0983 29.9088C31.1316 29.8449 31.1771 29.7881 31.2322 29.7418C31.2874 29.6955 31.3512 29.6605 31.4199 29.6388C31.4885 29.6172 31.5608 29.6092 31.6326 29.6155C31.7043 29.6217 31.7742 29.6421 31.8381 29.6753C31.902 29.7086 31.9587 29.7541 32.005 29.8092C32.0513 29.8644 32.0863 29.9281 32.108 29.9968C32.1297 30.0655 32.1376 30.1378 32.1313 30.2096C32.1251 30.2813 32.1047 30.3511 32.0715 30.415C30.3783 33.6777 27.4926 36.0572 22.7223 38.1497C22.6514 38.1805 22.5803 38.1959 22.503 38.1947ZM12.5238 15.48C12.3325 15.48 12.1413 15.48 11.9613 15.4631C11.8165 15.4527 11.6819 15.3852 11.587 15.2755C11.492 15.1658 11.4445 15.0228 11.455 14.8781C11.4654 14.7334 11.5329 14.5987 11.6426 14.5038C11.7524 14.4089 11.8953 14.3614 12.04 14.3718C14.7289 14.5743 19.3134 12.9093 21.1304 11.0754C21.1796 11.0202 21.2395 10.9755 21.3065 10.9442C21.3735 10.9128 21.4462 10.8954 21.5201 10.893C21.5941 10.8906 21.6677 10.9032 21.7366 10.9301C21.8055 10.9571 21.8682 10.9978 21.9209 11.0497C21.9736 11.1016 22.0152 11.1637 22.0431 11.2322C22.0711 11.3007 22.0848 11.3742 22.0834 11.4481C22.0821 11.5221 22.0658 11.595 22.0354 11.6625C22.005 11.7299 21.9612 11.7905 21.9067 11.8405C19.966 13.8093 15.5783 15.48 12.5238 15.48Z" fill="url(#paint0_linear_201_14246)"/>
<path d="M20.5134 28.7971C20.3658 28.7973 20.2197 28.77 20.0833 28.7169C19.947 28.6637 19.8232 28.5857 19.7189 28.4874L15.7458 24.7479C15.3069 24.3349 15.3069 23.6653 15.7458 23.2522C16.1846 22.8391 16.8961 22.8391 17.335 23.2522L20.5134 26.2437L27.665 19.5129C27.8758 19.3145 28.1616 19.2031 28.4596 19.2031C28.7576 19.2031 29.0434 19.3145 29.2541 19.5129C29.3585 19.611 29.4413 19.7276 29.4978 19.856C29.5543 19.9843 29.5834 20.1218 29.5834 20.2607C29.5834 20.3996 29.5543 20.5372 29.4978 20.6655C29.4413 20.7938 29.3585 20.9104 29.2541 21.0086L21.308 28.4874C21.2038 28.5857 21.0799 28.6637 20.9435 28.7168C20.8072 28.77 20.661 28.7973 20.5134 28.7971Z" fill="white"/>
<defs>
<linearGradient id="paint0_linear_201_14246" x1="6.14475" y1="23.9854" x2="38.8612" y2="23.9854" gradientUnits="userSpaceOnUse">
<stop stop-color="#FF7B02"/>
<stop offset="1" stop-color="#EE354B"/>
</linearGradient>
</defs>
</svg>
