<svg width="165" height="206" viewBox="0 0 165 206" fill="none" xmlns="http://www.w3.org/2000/svg">
<mask id="mask0_45_4623" style="mask-type:alpha" maskUnits="userSpaceOnUse" x="0" y="0" width="165" height="206">
<rect width="165" height="206" fill="#D9D9D9"/>
</mask>
<g mask="url(#mask0_45_4623)">
<path d="M28.4199 113.096H195.339V206.186H28.4199V113.096Z" fill="#668796"/>
<path d="M143.979 113.096H150.398V206.186H143.979V113.096Z" fill="#4D6877"/>
<path d="M41.2598 148.406H134.349V177.296H41.2598V148.406Z" fill="white"/>
<path d="M28.4199 193.346H147.189V206.186H28.4199V193.346Z" fill="#4D6877"/>
<path d="M185.709 74.5767V61.7368H38.0499V74.5767L22 106.676V113.096H201.759V106.676L185.709 74.5767Z" fill="#89B7E2"/>
<path d="M38.0488 61.7368H185.708V74.5767H38.0488V61.7368Z" fill="#6095C8"/>
<path d="M111.879 20.0071C98.0765 19.6857 86.5202 30.2778 86.1992 44.0819V46.3277C86.1992 50.1805 87.163 53.7119 88.768 57.2416L111.879 97.0465L134.991 57.2412C136.918 54.0312 137.559 50.1805 137.559 46.3277V44.0819C137.237 30.2778 125.683 19.6857 111.879 20.0071Z" fill="#EF4848"/>
<path d="M121.51 42.4769C121.51 47.7947 117.2 52.1069 111.88 52.1069C106.562 52.1069 102.25 47.7947 102.25 42.4769C102.25 37.1572 106.562 32.847 111.88 32.847C117.2 32.847 121.51 37.1572 121.51 42.4769Z" fill="white"/>
<path d="M22 113.096V124.331C22 130.43 27.136 135.566 33.2349 135.566C39.3335 135.566 44.4698 130.43 44.4698 124.331V113.096" fill="#619FD9"/>
<path d="M66.9405 113.096V124.331C66.9405 130.43 61.8042 135.566 55.7056 135.566C49.6067 135.566 44.4707 130.43 44.4707 124.331V113.096" fill="#F7D289"/>
<path d="M89.4093 113.096V124.331C89.4093 130.43 84.2729 135.566 78.1744 135.566C72.0754 135.566 66.9395 130.43 66.9395 124.331V113.096" fill="#619FD9"/>
<path d="M111.88 113.096V124.331C111.88 130.43 106.744 135.566 100.645 135.566C94.5461 135.566 89.4102 130.43 89.4102 124.331V113.096" fill="#F7D289"/>
<path d="M111.879 113.096V124.331C111.879 130.43 117.015 135.566 123.114 135.566C129.212 135.566 134.349 130.43 134.349 124.331V113.096" fill="#619FD9"/>
<path d="M134.35 113.096V124.331C134.35 130.43 139.486 135.566 145.585 135.566C151.683 135.566 156.819 130.43 156.819 124.331V113.096" fill="#F7D289"/>
<path d="M156.818 113.096V124.331C156.818 130.43 161.954 135.566 168.053 135.566C174.152 135.566 179.288 130.43 179.288 124.331V113.096" fill="#619FD9"/>
<path d="M115.089 177.296H102.249L131.139 148.406H134.349V158.036L115.089 177.296ZM89.4094 177.296H76.5695L105.459 148.406H118.299L89.4094 177.296ZM63.7296 177.296H50.8897L79.7795 148.406H92.6194L63.7296 177.296ZM41.2598 174.086V161.246L54.0997 148.406H66.9396L41.2598 174.086Z" fill="#E4E7EA"/>
<path d="M156.818 141.986H188.918V199.766H156.818V141.986Z" fill="white"/>
<path d="M156.818 161.246H163.238V167.666H156.818V161.246Z" fill="#668796"/>
<path d="M156.818 193.346V180.506L188.918 148.406V161.246L156.818 193.346ZM179.288 199.766H166.448L188.918 177.296V190.136L179.288 199.766Z" fill="#E4E7EA"/>
</g>
</svg>
