<svg width="205" height="197" viewBox="0 0 205 197" fill="none" xmlns="http://www.w3.org/2000/svg">
<mask id="mask0_45_4629" style="mask-type:alpha" maskUnits="userSpaceOnUse" x="0" y="0" width="205" height="197">
<rect width="205" height="197" fill="#D9D9D9"/>
</mask>
<g mask="url(#mask0_45_4629)">
<path d="M34.3145 112.617L34.2968 118.893L28.6176 122.193L28.6353 115.916L31.0803 114.491L31.8148 114.068L34.3145 112.617Z" fill="#EFAC41"/>
<path d="M28.6445 115.92L28.6199 122.191L22.9072 118.888L22.9248 112.624V112.615H22.9354L25.4139 114.051L25.9776 114.38L26.1467 114.474L28.6445 115.92Z" fill="#F9BB4A"/>
<path d="M34.3184 112.622L28.6409 115.922L26.1448 114.477L25.4226 114.068L25.4067 114.061L22.9265 112.622L28.6039 109.323L34.3184 112.622Z" fill="#FED57A"/>
<path d="M31.8242 111.178L26.1468 114.477L25.4245 114.068L25.4104 114.061L31.102 110.762L31.109 110.769L31.8242 111.178Z" fill="#E4E8F4"/>
<path d="M25.4051 115.555L26.1396 115.987L26.1484 114.491V114.474L25.9828 114.382L25.4139 114.06V114.068L25.4051 115.555Z" fill="#D4DAE8"/>
<path d="M27.8361 119.526L27.6511 119.88L27.7656 119.947L28.0193 120.093L27.8361 119.526ZM27.7656 119.947L27.7639 120.648L27.903 120.727V120.028L27.7656 119.947ZM27.0751 120.313V120.463L28.0352 121.016V120.866L27.0751 120.313ZM25.3206 118.115V118.615C25.3189 118.773 25.4087 118.955 25.532 119.048L25.5285 119.497C25.4439 119.459 25.3805 119.462 25.3805 119.51L25.754 119.725C25.754 119.679 25.6905 119.601 25.606 119.542V119.092C25.6624 119.115 25.7117 119.11 25.7469 119.085C25.7927 119.054 25.8209 118.992 25.8209 118.904V118.405L25.3206 118.115ZM27.209 119.626V120.325L27.3464 120.406L27.3482 119.705L27.209 119.626ZM27.2795 119.203L27.0945 119.559L27.209 119.626L27.4626 119.771L27.2795 119.203Z" fill="#3F434F"/>
<path d="M26.3425 120.206C26.3671 120.192 26.383 120.162 26.383 120.125L26.3865 118.626C26.3846 118.59 26.3741 118.554 26.3561 118.523C26.338 118.492 26.3128 118.465 26.2826 118.446L24.9808 117.694C24.9491 117.676 24.9174 117.674 24.8927 117.688C24.8663 117.704 24.8522 117.734 24.8522 117.771L24.8469 119.268C24.8487 119.304 24.8588 119.339 24.8766 119.371C24.8943 119.402 24.9192 119.428 24.9491 119.448L26.2509 120.2C26.2669 120.21 26.285 120.216 26.3037 120.216C26.3168 120.216 26.3296 120.213 26.3407 120.206H26.3425ZM24.9526 117.741L26.2562 118.493C26.2779 118.508 26.2959 118.528 26.3091 118.551C26.3222 118.574 26.33 118.599 26.3319 118.626L26.3284 120.123C26.3284 120.14 26.3213 120.153 26.3143 120.158C26.3055 120.162 26.2932 120.162 26.2791 120.153L24.9755 119.401C24.9541 119.386 24.9363 119.367 24.9235 119.344C24.9107 119.321 24.9032 119.296 24.9015 119.27L24.9068 117.771C24.9068 117.754 24.9121 117.741 24.9192 117.736C24.9225 117.734 24.9261 117.734 24.9297 117.734C24.9378 117.735 24.9457 117.737 24.9526 117.741ZM28.2802 121.324C28.3066 121.31 28.3207 121.28 28.3207 121.243L28.3242 119.746C28.3242 119.679 28.2784 119.598 28.2203 119.564L26.9185 118.814C26.8868 118.796 26.8569 118.793 26.8304 118.807C26.804 118.823 26.7899 118.853 26.7899 118.89L26.7846 120.389C26.7862 120.424 26.7963 120.459 26.8141 120.49C26.8319 120.521 26.8568 120.547 26.8868 120.567L28.1886 121.319C28.2045 121.329 28.2227 121.334 28.2414 121.335C28.2551 121.335 28.2684 121.331 28.2802 121.324ZM26.8903 118.862L28.1939 119.612C28.2156 119.627 28.2336 119.647 28.2467 119.669C28.2598 119.692 28.2677 119.718 28.2696 119.744L28.2661 121.243C28.2661 121.261 28.2608 121.271 28.252 121.278C28.2432 121.28 28.2308 121.278 28.2168 121.271L26.9132 120.519C26.8919 120.504 26.8742 120.485 26.8613 120.462C26.8485 120.44 26.841 120.415 26.8392 120.389L26.8445 118.892C26.8445 118.874 26.8498 118.86 26.8569 118.856C26.86 118.854 26.8637 118.853 26.8674 118.853C26.8756 118.854 26.8835 118.857 26.8903 118.862Z" fill="#3F434F"/>
<path d="M41.0566 116.517L41.039 122.793L35.3581 126.093L35.3757 119.816L37.8207 118.389L38.557 117.967L41.0566 116.517Z" fill="#EFAC41"/>
<path d="M35.3848 119.82L35.3619 126.089L29.6474 122.786L29.6668 116.524V116.513H29.6756L32.1559 117.951L32.7196 118.278L32.8869 118.374L35.3848 119.82Z" fill="#F9BB4A"/>
<path d="M41.0605 116.522L35.3813 119.822L32.8852 118.377L32.163 117.967L32.1489 117.96L29.6669 116.522L35.3444 113.223L41.0605 116.522Z" fill="#FED57A"/>
<path d="M38.5664 115.076L32.8872 118.375L32.165 117.967L32.1509 117.96L37.8442 114.66L37.8512 114.667L38.5664 115.076Z" fill="#E4E8F4"/>
<path d="M32.1455 119.453L32.8818 119.887L32.8906 118.389V118.372L32.725 118.28L32.1543 117.96V117.968L32.1455 119.453Z" fill="#D4DAE8"/>
<path d="M34.5781 123.426L34.3914 123.778L34.5059 123.847L34.7613 123.991L34.5781 123.426ZM34.5059 123.847V124.546L34.6433 124.627L34.645 123.926L34.5059 123.847ZM33.8154 124.211V124.361L34.7754 124.916V124.766L33.8154 124.211ZM32.0609 122.015V122.513C32.0609 122.672 32.1507 122.855 32.2722 122.947L32.2705 123.398C32.1859 123.357 32.1208 123.362 32.1208 123.408L32.496 123.625C32.496 123.577 32.4325 123.501 32.348 123.442V122.992C32.4044 123.014 32.4519 123.008 32.4889 122.985C32.533 122.952 32.5611 122.89 32.5629 122.804V122.304L32.0609 122.015ZM33.951 123.524L33.9492 124.225L34.0884 124.306V123.605L33.951 123.524Z" fill="#3F434F"/>
<path d="M34.0219 123.103L33.8352 123.457L33.9514 123.524L34.2051 123.671L34.0219 123.103ZM33.083 124.104C33.1076 124.09 33.1235 124.06 33.1235 124.023L33.127 122.526C33.1253 122.49 33.1151 122.455 33.0974 122.424C33.0796 122.392 33.0548 122.366 33.0249 122.346L31.7213 121.594C31.6914 121.576 31.6597 121.573 31.6332 121.588C31.6086 121.603 31.5927 121.632 31.5927 121.669L31.5892 123.169C31.591 123.204 31.601 123.238 31.6185 123.269C31.6359 123.3 31.6602 123.327 31.6896 123.346L32.9931 124.099C33.0089 124.109 33.0271 124.115 33.046 124.116C33.0586 124.115 33.0726 124.111 33.083 124.104ZM31.6949 121.641L32.9967 122.393C33.0182 122.408 33.0361 122.428 33.0492 122.45C33.0623 122.473 33.0702 122.498 33.0724 122.524L33.0689 124.023C33.0689 124.04 33.0636 124.053 33.0548 124.058C33.0477 124.06 33.0337 124.06 33.0196 124.051L31.716 123.299C31.6949 123.284 31.6775 123.265 31.665 123.242C31.6524 123.219 31.6452 123.194 31.6438 123.169L31.6473 121.671C31.6473 121.654 31.6526 121.64 31.6614 121.636C31.664 121.634 31.6671 121.633 31.6702 121.632C31.6791 121.633 31.6876 121.636 31.6949 121.641Z" fill="#3F434F"/>
<path d="M35.0221 125.224C35.0468 125.208 35.0609 125.178 35.0609 125.143L35.0644 123.644C35.0662 123.577 35.0186 123.498 34.9622 123.464L33.6587 122.712C33.6288 122.695 33.597 122.691 33.5706 122.707C33.546 122.721 33.5301 122.751 33.5301 122.79L33.5266 124.287C33.5277 124.323 33.5374 124.358 33.5549 124.389C33.5724 124.42 33.5971 124.447 33.627 124.467L34.9305 125.217C34.9463 125.228 34.9645 125.234 34.9834 125.235C34.997 125.235 35.0104 125.231 35.0221 125.224ZM33.6305 122.76L34.9341 123.512C34.9558 123.527 34.9738 123.547 34.9869 123.569C35 123.592 35.0079 123.618 35.0098 123.644L35.0063 125.141C35.0063 125.159 35.001 125.171 34.9939 125.177C34.9851 125.18 34.971 125.178 34.9587 125.17L33.6552 124.419C33.6338 124.404 33.6161 124.385 33.6033 124.362C33.5905 124.34 33.5829 124.315 33.5812 124.289L33.5847 122.79C33.5847 122.772 33.59 122.76 33.5988 122.755C33.6016 122.753 33.6046 122.753 33.6076 122.753C33.6163 122.753 33.6248 122.756 33.6323 122.76H33.6305Z" fill="#3F434F"/>
<path d="M205.507 162.703L199.267 172.722L228.16 189.556L221.369 171.852L205.507 162.703Z" fill="#464957"/>
<path d="M216.676 188.078L216.67 189.557L199.946 179.902L199.95 178.423L216.676 188.078Z" fill="#3F434F"/>
<path d="M199.947 178.43V179.899L155.886 205.646C154.308 206.572 151.731 206.572 150.135 205.646C149.337 205.175 148.937 204.576 148.937 203.977V202.508C148.954 203.107 149.337 203.706 150.135 204.159C151.75 205.084 154.308 205.084 155.886 204.159L199.947 178.43ZM227.461 187.694L228.16 189.547L178.384 218.632C176.788 219.556 174.231 219.556 172.635 218.632C171.837 218.159 171.437 217.561 171.419 216.963V215.475C171.437 216.091 171.837 216.69 172.635 217.145C174.231 218.07 176.788 218.07 178.384 217.145L227.461 187.694Z" fill="#525566"/>
<path d="M227.457 187.692L178.386 217.148C176.8 218.071 174.236 218.071 172.638 217.148C171.838 216.687 171.444 216.086 171.428 215.477C171.437 214.881 171.826 214.279 172.619 213.819L216.675 188.078L199.951 178.424L155.895 204.164C154.306 205.087 151.743 205.087 150.145 204.164C149.345 203.703 148.951 203.102 148.947 202.499C148.944 201.897 149.333 201.296 150.127 200.835L199.912 171.764L227.457 187.692Z" fill="#5B5E71"/>
<path d="M172.854 174.218L172.905 186.846L209.688 208.541L209.636 195.913L172.854 174.218Z" fill="#EFAC41"/>
<path d="M201.927 196.434L201.945 201.742L206.75 204.536L206.732 199.226L201.927 196.434Z" fill="#E4E8F4"/>
<path d="M172.849 174.228L209.637 195.924L216.064 192.203L217.925 191.152L217.961 191.132L224.352 187.429L187.564 165.734L181.138 169.437L181.12 169.455L179.277 170.508L172.849 174.228Z" fill="#FED57A"/>
<path d="M179.276 170.508L216.062 192.201L217.924 191.15L217.959 191.13L181.136 169.435L181.118 169.453L179.276 170.508Z" fill="#5B5E71"/>
<path d="M178.891 184.609L178.385 185.571L178.699 185.752L179.391 186.149L178.891 184.609ZM178.699 185.752L178.694 187.658L179.072 187.877L179.078 185.971L178.699 185.752ZM176.819 186.746V187.155L179.432 188.663V188.254L176.819 186.746ZM174.043 181.808L174.04 183.167C174.04 183.595 174.286 184.093 174.616 184.347L174.612 185.569C174.381 185.464 174.207 185.474 174.207 185.601L175.225 186.189C175.225 186.061 175.052 185.851 174.822 185.691L174.825 184.467C174.975 184.526 175.105 184.512 175.207 184.449C175.327 184.361 175.405 184.194 175.405 183.956L175.41 182.598L174.043 181.808ZM177.186 184.879L177.18 186.785L177.559 187.003L177.564 185.097L177.186 184.879Z" fill="#3F434F"/>
<path d="M177.377 183.732L176.873 184.697L177.186 184.879L177.877 185.273L177.377 183.732Z" fill="#3F434F"/>
<path d="M156.172 183.751L156.225 196.38L193.008 218.075L192.957 205.448L156.172 183.751Z" fill="#EFAC41"/>
<path d="M192.957 205.448L193.008 218.075L207.719 209.583L207.668 196.954L192.957 205.448Z" fill="#F9BB4A"/>
<path d="M156.17 183.764L192.958 205.457L199.384 201.737L201.244 200.685L201.283 200.667L207.67 196.965L170.884 175.27L164.458 178.971L164.438 178.988L162.597 180.042L156.17 183.764Z" fill="#FED57A"/>
<path d="M162.596 180.042L199.382 201.737L201.242 200.685L201.281 200.667L164.456 178.971L164.437 178.988L162.596 180.042Z" fill="#5B5E71"/>
<path d="M162.213 194.143L161.706 195.106L162.019 195.286L162.711 195.682L162.213 194.143ZM162.019 195.286L162.014 197.192L162.393 197.41L162.398 195.504L162.019 195.286ZM160.14 196.281V196.688L162.75 198.196L162.752 197.789L160.14 196.281ZM157.363 191.342L157.36 192.7C157.36 193.13 157.606 193.627 157.936 193.88L157.932 195.104C157.702 194.999 157.527 195.008 157.527 195.136L158.545 195.723C158.545 195.596 158.373 195.385 158.14 195.224L158.146 194.002C158.295 194.062 158.426 194.046 158.526 193.984C158.646 193.894 158.725 193.727 158.725 193.489L158.729 192.133L157.363 191.342ZM160.506 194.412L160.501 196.318L160.879 196.537L160.885 194.631L160.506 194.412Z" fill="#3F434F"/>
<path d="M160.695 193.267L160.191 194.233L160.505 194.412L161.193 194.809L160.695 193.267Z" fill="#3F434F"/>
<path d="M170.598 168.96L170.651 181.588L194.83 195.851L194.779 183.223L170.598 168.96Z" fill="#EFAC41"/>
<path d="M187.069 183.743L187.087 189.052L191.893 191.844L191.875 186.536L187.069 183.743Z" fill="#E4E8F4"/>
<path d="M194.779 183.223L194.832 195.851L209.541 187.357L209.492 174.731L194.779 183.223Z" fill="#F9BB4A"/>
<path d="M170.596 168.97L194.782 183.233L201.208 179.513L203.068 178.46L203.103 178.442L209.494 174.739L185.308 160.476L178.884 164.179L178.865 164.197L177.024 165.25L170.596 168.97Z" fill="#FED57A"/>
<path d="M177.024 165.25L201.208 179.513L203.068 178.46L203.104 178.442L178.882 164.179L178.865 164.197L177.024 165.25Z" fill="#5B5E71"/>
<path d="M201.208 179.513L201.226 185.619L203.105 184.544L203.088 178.439L201.208 179.513Z" fill="#474B59"/>
<path d="M176.639 179.349L176.131 180.313L176.445 180.494L177.137 180.891L176.639 179.349ZM176.445 180.494L176.44 182.4L176.818 182.619L176.824 180.713L176.445 180.494ZM174.565 181.488V181.896L177.176 183.404L177.178 182.997L174.565 181.488ZM171.789 176.55L171.786 177.908C171.786 178.338 172.032 178.835 172.36 179.089L172.356 180.311C172.127 180.205 171.951 180.216 171.951 180.343L172.971 180.931C172.971 180.804 172.799 180.593 172.566 180.433L172.571 179.208C172.721 179.27 172.851 179.254 172.952 179.191C173.072 179.103 173.151 178.935 173.151 178.698L173.154 177.339L171.789 176.55ZM174.932 179.621L174.926 181.527L175.305 181.745L175.311 179.839L174.932 179.621ZM175.12 178.476L174.618 179.439L174.932 179.621L175.621 180.015L175.12 178.476Z" fill="#3F434F"/>
<path d="M204.103 185.724L204.554 186.582L204.275 186.742L203.659 187.095L204.103 185.724ZM204.275 186.742L204.28 188.439L203.942 188.633L203.939 186.936L204.275 186.742ZM205.949 187.627V187.99L203.623 189.332V188.969L205.949 187.627ZM208.418 183.233L208.422 184.442C208.415 184.643 208.366 184.84 208.278 185.021C208.19 185.201 208.065 185.361 207.911 185.49L207.913 186.58C208.119 186.485 208.272 186.494 208.274 186.609L207.367 187.132C207.367 187.017 207.52 186.831 207.726 186.688L207.723 185.599C207.589 185.652 207.474 185.64 207.383 185.582C207.277 185.504 207.206 185.354 207.206 185.143L207.203 183.935L208.418 183.233ZM205.621 185.966L205.626 187.66L205.29 187.854L205.285 186.159L205.621 185.966ZM205.452 184.944L205.901 185.804L205.621 185.966L205.008 186.318L205.452 184.944Z" fill="#4C7891"/>
<path d="M70.5143 99.6837L123.302 68.8057L201.523 54.9371L70.4245 131.124L70.5143 99.6837Z" fill="#0265C2"/>
<path d="M13.7706 66.9226L105.712 13.3912L134.135 16.4352L42.1913 69.9648L13.7706 66.9226Z" fill="#2F873B"/>
<path d="M8.76175 63.1018L100.705 9.56868L134.145 13.1587L42.201 66.6919L8.76175 63.1018Z" fill="#D4DAE8"/>
<path d="M42.1913 69.963L134.135 16.4352L162.455 46.1523L70.5116 99.6837L42.1913 69.963Z" fill="#2F873B"/>
<path d="M42.1917 69.963L70.5137 99.6855L70.4256 131.127L13.6812 98.3661L13.7692 66.9244L42.1917 69.963Z" fill="#2F87DA"/>
<path d="M75.529 101.65L167.471 48.1164L166.467 50.3536L74.5231 103.885L75.529 101.65Z" fill="#AEB7C4"/>
<path d="M42.2009 66.6883L134.144 13.1587L167.473 48.1199L75.5292 101.651L42.2009 66.6883Z" fill="#E4E8F4"/>
<path d="M137.281 138.231L229.223 84.7001L229.135 116.142L137.191 169.671L137.281 138.231Z" fill="#0265C2"/>
<path d="M229.135 116.142L137.191 169.673L229.135 116.142Z" fill="#CAD0DD"/>
<path d="M80.5377 105.47L172.481 51.939L200.879 54.967L108.935 108.498L80.5377 105.47Z" fill="#2F873B"/>
<path d="M75.5286 101.65L167.47 48.1164L200.887 51.6923L108.943 105.222L75.5286 101.65Z" fill="#D4DAE8"/>
<path d="M108.934 108.498L200.878 54.9653L229.223 84.7001L137.283 138.231L108.934 108.498Z" fill="#2F873B"/>
<path d="M108.935 108.498L137.283 138.231L137.193 169.673L80.4507 136.912L80.5388 105.47L108.935 108.498Z" fill="#2F87DA"/>
<path d="M142.295 140.197L234.238 86.6642L233.234 88.9013L141.289 142.433L142.295 140.197Z" fill="#BAC1CE"/>
<path d="M108.944 105.222L200.887 51.6923L234.238 86.6659L142.295 140.197L108.944 105.222Z" fill="#E4E8F4"/>
<path d="M42.201 66.6883L75.5293 101.65L74.5235 103.885L42.1922 69.963L9.75168 66.4875L8.7617 63.1018L42.201 66.6883Z" fill="#CAD0DD"/>
<path d="M108.944 105.222L142.295 140.197L141.291 142.433L108.935 108.498L76.5173 105.035L75.5291 101.65L108.944 105.222Z" fill="#CAD0DD"/>
<path d="M210.129 109.499V115.99L198.372 122.783L198.314 116.288L210.129 109.499ZM160.885 137.934V144.425L149.072 151.212V144.723L160.885 137.934Z" fill="#E4E8F4"/>
<path d="M198.374 122.783L210.13 115.99L212.691 117.003L198.397 125.265L198.374 122.783Z" fill="#0265C2"/>
<path d="M185.508 123.716V130.208L173.695 136.995V130.505L185.508 123.716Z" fill="#E4E8F4"/>
<path d="M185.507 123.716L188.07 122.245V131.219L185.507 130.208V123.716Z" fill="#2F87DA"/>
<path d="M185.507 130.208L188.07 131.219L173.696 139.48V136.997L185.507 130.208Z" fill="#0265C2"/>
<path d="M160.886 137.934L163.449 136.461V145.436L160.886 144.425V137.934Z" fill="#2F87DA"/>
<path d="M160.886 144.425L163.449 145.436L149.073 153.698V151.214L160.886 144.425Z" fill="#0265C2"/>
<path d="M96.3519 146.107L117.718 158.45L117.814 134.453L96.4505 122.159L96.3519 146.107Z" fill="#E4E8F4"/>
<path d="M26.5839 105.812L26.679 81.8728L48.043 94.1771L26.8693 105.907L26.5839 105.812Z" fill="#37617B"/>
<path d="M47.9639 118.111V115.575L48.0132 109.085V101.185L48.0625 99.0372V94.1595L46.3538 95.0861L43.7696 96.5499L43.0386 96.941L40.4527 98.4031L39.7692 98.7448V98.7941H39.7216L39.6723 98.8434L39.4292 98.9897H39.3799L39.3306 99.0372L39.1368 99.1359H39.0875L38.9888 99.1834L38.7951 99.2821V99.3296H38.7457L38.6471 99.379L38.404 99.5252L37.185 100.209L36.2091 100.744L35.4781 101.135L35.3794 101.232H35.3319L32.8921 102.599L32.2087 102.939L32.0624 103.038L31.9656 103.087L31.7225 103.233L31.6238 103.281L31.3807 103.427L31.2821 103.476H31.2345L31.0883 103.623H31.039L30.9404 103.672L30.7466 103.769H30.6973L27.6727 105.477H27.6234L26.8923 105.916L47.9639 118.111Z" fill="#4C7891"/>
<path d="M34.5641 94.2723L34.5852 100.771L40.4688 104.188L40.4476 97.6914L34.5641 94.2723Z" fill="#EFAC41"/>
<path d="M35.2476 95.5141V96.5411L35.2529 96.6468V97.6509L39.7871 100.288V99.9092L39.7818 99.6397V98.7765L39.7765 98.5017V98.1512L35.2476 95.5141Z" fill="#E4E8F4"/>
<path d="M40.447 97.6914L40.4664 104.19L46.3887 100.771L46.3675 94.2723L40.447 97.6914Z" fill="#F9BB4A"/>
<path d="M34.5635 94.2775L40.447 97.6949L43.0347 96.1976L43.7834 95.7748L43.7992 95.766L46.3711 94.2775L40.4858 90.8584L37.8999 92.3487L37.8911 92.3557L37.1512 92.7785L34.5635 94.2775Z" fill="#FED57A"/>
<path d="M37.1508 92.7802L43.0343 96.1976L43.783 95.7748L43.7988 95.766L37.8977 92.3487L37.8906 92.3557L37.1508 92.7802Z" fill="#EFAC41"/>
<path d="M43.0343 96.1976L43.0414 98.6567L43.7988 98.2234L43.7918 95.766L43.0343 96.1976Z" fill="#EFAC41"/>
<path d="M39.1371 101.324L38.9327 101.711L39.0596 101.783L39.3379 101.942L39.1371 101.324Z" fill="#3F434F"/>
<path d="M39.0593 101.783L39.0576 102.551L39.2091 102.64L39.2108 101.872L39.0593 101.783ZM38.3019 102.183V102.349L39.3535 102.955V102.791L38.3019 102.183ZM37.1851 100.196L37.1833 100.742C37.1861 100.833 37.2081 100.923 37.2478 101.005C37.2876 101.087 37.3443 101.159 37.4141 101.218V101.711C37.3207 101.667 37.2502 101.671 37.2502 101.724L37.6607 101.96C37.6607 101.907 37.5902 101.824 37.4986 101.759V101.266C37.5603 101.29 37.6114 101.283 37.6536 101.259C37.7012 101.223 37.7329 101.156 37.7329 101.061V100.515L37.1851 100.196ZM38.4498 101.433L38.4481 102.199L38.5996 102.287L38.6013 101.521L38.4498 101.433ZM38.5256 100.971L38.323 101.359L38.4498 101.433L38.7264 101.591L38.5256 100.971Z" fill="#3F434F"/>
<path d="M35.2476 96.5411L35.2529 96.6468L39.7818 99.2609V99.1605L35.2476 96.5411ZM35.2547 96.9146V97.0255L39.7818 99.6397V99.534L35.2547 96.9146ZM35.2547 97.2933V97.4043L39.7871 100.018V99.9092L35.2547 97.2933ZM35.2476 96.1624V96.2681L39.7818 98.8875V98.7765L35.2476 96.1624ZM35.2476 95.7819V95.8876L39.7748 98.5017V98.396L35.2476 95.7819Z" fill="#A4A9B3"/>
<path d="M27.0074 98.6356L27.0286 105.132L32.9121 108.551L32.891 102.055L27.0074 98.6356Z" fill="#EFAC41"/>
<path d="M27.6912 99.8757V100.904L27.6965 101.01V102.014L32.2324 104.651V104.271L32.2254 104.003V103.14L32.2201 102.865V102.514L27.6912 99.8757Z" fill="#E4E8F4"/>
<path d="M32.8904 102.055L32.9097 108.551L38.832 105.134L38.8109 98.6338L32.8904 102.055Z" fill="#F9BB4A"/>
<path d="M27.0049 98.6391L32.8884 102.058L35.4779 100.561L36.2248 100.138L36.2407 100.129L38.8125 98.6391L32.929 95.2217L30.3395 96.7102L30.3325 96.719L29.5926 97.1418L27.0049 98.6391Z" fill="#FED57A"/>
<path d="M29.5941 97.1418L35.4777 100.559L36.2263 100.136L36.2422 100.129L30.341 96.712L30.334 96.719L29.5941 97.1418Z" fill="#EFAC41"/>
<path d="M35.4777 100.561L35.4847 103.018L36.2422 102.587L36.2351 100.128L35.4777 100.561Z" fill="#EFAC41"/>
<path d="M31.5802 105.685L31.3759 106.073L31.5027 106.147L31.781 106.305L31.5802 105.685ZM31.5027 106.147L31.5009 106.915L31.6524 107.003L31.6542 106.235L31.5027 106.147ZM30.7452 106.547V106.71L31.7969 107.318V107.154L30.7452 106.547ZM29.6284 104.56V105.106C29.631 105.197 29.6527 105.286 29.6922 105.368C29.7316 105.45 29.7879 105.523 29.8574 105.581V106.075C29.7641 106.031 29.6936 106.034 29.6936 106.085L30.104 106.323C30.104 106.27 30.0336 106.186 29.942 106.122V105.629C30.0036 105.654 30.0565 105.647 30.097 105.622C30.1445 105.587 30.1762 105.52 30.1762 105.423L30.178 104.877L29.6284 104.56ZM30.8932 105.794L30.8914 106.563L31.0429 106.651L31.0465 105.883L30.8932 105.794ZM30.9707 105.333L30.7681 105.722L30.8932 105.794L31.1715 105.953L30.9707 105.333Z" fill="#3F434F"/>
<path d="M27.6912 100.904L27.6965 101.01L32.2254 103.623V103.524L27.6912 100.904ZM27.6982 101.278V101.389L32.2254 104.003V103.897L27.6982 101.278ZM27.6982 101.657V101.768L32.2324 104.382V104.271L27.6982 101.657ZM27.6912 100.524V100.63L32.2254 103.249V103.138L27.6912 100.524ZM27.6912 100.143V100.249L32.2183 102.865V102.759L27.6912 100.143Z" fill="#A4A9B3"/>
<path d="M41.4195 98.1811L41.4407 104.679L47.3242 108.097L47.3031 101.6L41.4195 98.1811Z" fill="#EFAC41"/>
<path d="M42.1033 99.4212V100.45L42.1103 100.556V101.56L46.6445 104.197V103.816L46.6392 103.549V102.685L46.6322 102.411V102.06L42.1033 99.4212Z" fill="#E4E8F4"/>
<path d="M47.2826 101.623V103.427L47.3302 106.452V108.111L48.0137 107.72V101.185L47.2826 101.623Z" fill="#F9BB4A"/>
<path d="M41.4779 98.2093L46.1107 100.94H46.16L47.2821 101.623L48.0132 101.183L48.0625 99.0372V95.1847L47.3297 94.7444L46.3556 95.3309L44.7455 96.2575L44.0145 96.6979L43.7679 96.8423L43.0386 97.2827L41.4779 98.2093Z" fill="#FED57A"/>
<path d="M44.0145 96.6961L46.4031 98.0613L48.0625 99.0372V98.16L46.3538 97.1841L44.7455 96.2575L44.0145 96.6961Z" fill="#EFAC41"/>
<path d="M45.9943 105.233L45.7899 105.62L45.915 105.692L46.1951 105.851L45.9943 105.233ZM45.915 105.692V106.46L46.0665 106.548V105.78L45.915 105.692ZM45.1593 106.092V106.258L46.2109 106.864V106.7L45.1593 106.092ZM44.0425 104.105L44.0407 104.651C44.0435 104.742 44.0655 104.832 44.1053 104.914C44.145 104.996 44.2017 105.068 44.2715 105.127V105.62C44.1781 105.576 44.1077 105.58 44.1077 105.632L44.5181 105.868C44.5181 105.816 44.4476 105.733 44.3543 105.668L44.356 105.174C44.4159 105.199 44.4688 105.192 44.5093 105.167C44.5586 105.132 44.5903 105.065 44.5903 104.97V104.424L44.0425 104.105ZM45.3073 105.34L45.3037 106.108L45.457 106.196L45.4588 105.428L45.3073 105.34Z" fill="#3F434F"/>
<path d="M45.3832 104.88L45.1806 105.268L45.3074 105.342L45.584 105.5L45.3832 104.88Z" fill="#3F434F"/>
<path d="M42.1033 100.45L42.1103 100.556L46.6375 103.17V103.069L42.1033 100.45ZM42.1103 100.823V100.934L46.6375 103.549V103.443L42.1103 100.823ZM42.1103 101.202V101.313L46.6445 103.927V103.816L42.1103 101.202ZM42.1033 100.069V100.175L46.6392 102.796V102.685L42.1033 100.069ZM42.1033 99.6907V99.7964L46.6322 102.411V102.305L42.1033 99.6907Z" fill="#A4A9B3"/>
<path d="M33.8629 102.544L33.884 109.041L39.7676 112.46L39.7464 105.964L33.8629 102.544Z" fill="#EFAC41"/>
<path d="M34.5484 103.785V104.813L34.5537 104.919V105.921L39.0879 108.56V108.18L39.0826 107.912V107.049L39.0773 106.774V106.423L34.5484 103.785Z" fill="#E4E8F4"/>
<path d="M39.746 105.964L39.7672 112.46L45.6895 109.043L45.6683 102.543L39.746 105.964Z" fill="#F9BB4A"/>
<path d="M33.8641 102.548L39.7476 105.965L42.3353 104.468L43.084 104.045L43.0981 104.038L45.6699 102.548L39.7864 99.1306L37.1987 100.619L37.1916 100.628L36.4518 101.051L33.8641 102.548Z" fill="#FED57A"/>
<path d="M36.4496 101.051L42.3332 104.468L43.0836 104.045L43.0977 104.038L37.1983 100.621L37.1912 100.628L36.4496 101.051Z" fill="#EFAC41"/>
<path d="M42.3351 104.47L42.3422 106.927L43.0996 106.496L43.0926 104.036L42.3351 104.47Z" fill="#EFAC41"/>
<path d="M38.4379 109.594L38.2335 109.982L38.3604 110.056L38.6387 110.214L38.4379 109.594Z" fill="#3F434F"/>
<path d="M38.3601 110.056L38.3566 110.822L38.5098 110.91L38.5116 110.144L38.3601 110.056ZM37.6027 110.456V110.619L38.6543 111.227V111.063L37.6027 110.456ZM36.4858 108.468L36.4841 109.015C36.4869 109.106 36.5089 109.195 36.5486 109.277C36.5884 109.359 36.645 109.432 36.7148 109.49V109.983C36.6215 109.939 36.551 109.943 36.551 109.994L36.9615 110.232C36.9615 110.179 36.891 110.094 36.7994 110.031V109.538C36.861 109.562 36.9121 109.555 36.9544 109.531C37.002 109.495 37.0337 109.429 37.0337 109.332V108.786L36.4858 108.468ZM37.7506 109.703L37.7489 110.471L37.9004 110.559L37.9021 109.791L37.7506 109.703ZM37.8264 109.242L37.6238 109.629L37.7506 109.703L38.0272 109.862L37.8264 109.242Z" fill="#3F434F"/>
<path d="M34.5484 104.812L34.5537 104.917L39.0808 107.531V107.433L34.5484 104.812ZM34.5537 105.187V105.298L39.0808 107.912V107.806L34.5537 105.187ZM34.5537 105.565V105.676L39.0879 108.291V108.18L34.5537 105.565ZM34.5484 104.433V104.539L39.0826 107.158V107.047L34.5484 104.433ZM34.5484 104.054V104.16L39.0756 106.774V106.668L34.5484 104.054Z" fill="#A4A9B3"/>
<path d="M40.7203 106.453L40.7415 112.95L46.625 116.369L46.6039 109.872L40.7203 106.453Z" fill="#EFAC41"/>
<path d="M41.4041 107.693V108.722L41.4111 108.828V109.83L45.9453 112.469V112.088L45.94 111.821V110.958L45.933 110.683V110.33L41.4041 107.693Z" fill="#E4E8F4"/>
<path d="M46.5992 109.867L46.6485 116.353L47.9643 115.573L48.0137 109.085L46.5992 109.867Z" fill="#F9BB4A"/>
<path d="M40.7456 106.452V106.501L45.4277 109.184L46.5992 109.865L48.0137 109.037V103.818L47.2826 103.427L46.6485 103.038V103.087H46.5992L46.5498 103.135H46.5023L46.3068 103.233L46.2081 103.281L45.965 103.427L45.8681 103.476L45.6726 103.623H45.6233L44.4536 104.306L44.0625 104.549L43.3315 104.94L43.0867 105.086L42.5987 105.379L42.3556 105.476L40.7456 106.452Z" fill="#FED57A"/>
<path d="M43.3315 104.94L44.2581 105.476L44.355 105.525L45.2815 106.062L45.4771 106.208L45.6708 106.305L45.9175 106.452L46.0619 106.55L47.3302 107.281L48.0137 107.672V106.843L47.3302 106.452L46.1605 105.77L45.8188 105.574L45.6726 105.476L45.574 105.428L45.234 105.233L44.5998 104.841L44.0625 104.549L43.3315 104.94Z" fill="#EFAC41"/>
<path d="M45.295 113.503L45.0907 113.891L45.2158 113.964L45.4941 114.123L45.295 113.503ZM45.2158 113.964V114.731L45.3673 114.819V114.053L45.2158 113.964ZM44.4601 114.364V114.528L45.5117 115.136V114.972L44.4601 114.364ZM43.3415 112.377V112.923C43.3443 113.014 43.3663 113.104 43.406 113.186C43.4458 113.268 43.5025 113.341 43.5723 113.399V113.892C43.4789 113.848 43.4084 113.852 43.4084 113.903L43.8171 114.141C43.8171 114.088 43.7467 114.003 43.6551 113.94L43.6568 113.447C43.7167 113.471 43.7696 113.464 43.8101 113.44C43.8594 113.404 43.8893 113.337 43.8911 113.241V112.694L43.3415 112.377ZM44.608 113.612L44.6045 114.38L44.7578 114.468L44.7595 113.7L44.608 113.612ZM44.6838 113.151L44.4812 113.538L44.608 113.612L44.8846 113.771L44.6838 113.151Z" fill="#3F434F"/>
<path d="M41.4041 108.722L41.4111 108.828L45.9383 111.44V111.342L41.4041 108.722ZM41.4111 109.096V109.205L45.9383 111.821V111.715L41.4111 109.096ZM41.4111 109.474V109.585L45.9453 112.199V112.088L41.4111 109.474ZM41.4041 108.342V108.447L45.94 111.067V110.956L41.4041 108.342ZM41.4041 107.963V108.069L45.933 110.683V110.577L41.4041 107.963Z" fill="#A4A9B3"/>
<path d="M99.2293 119.744V113.013L100.529 113.32V119.284L99.2293 119.744Z" fill="#0265C2"/>
<path d="M100.528 119.284L117.814 129.304V130.452L99.2302 119.742L100.528 119.284Z" fill="#0265C2"/>
<path d="M100.528 113.32L108.561 115.155L117.814 123.722V129.306L100.528 119.284V113.32Z" fill="#E4E8F4"/>
<path d="M29.4637 79.4982V72.7691L30.7637 73.0757V79.0402L29.4637 79.4982Z" fill="#0265C2"/>
<path d="M30.7628 79.0402L48.0488 89.0599V90.2066L29.4628 79.5L30.7628 79.0402Z" fill="#0265C2"/>
<path d="M30.7628 73.0757L38.7937 74.9112L48.0488 83.4776V89.0616L30.7628 79.0402V73.0757Z" fill="#E4E8F4"/>
<path d="M45.2584 165.349L45.2619 166.67L108.871 203.636L108.868 202.314L45.2584 165.349Z" fill="#525566"/>
<path d="M45.2578 165.349L108.867 202.314L112.869 200.005L49.26 163.039L45.2578 165.349Z" fill="#5B5E71"/>
<path d="M31.5983 173.237L31.6018 174.558L95.2109 211.524L95.2074 210.203L31.5983 173.237Z" fill="#525566"/>
<path d="M31.5976 173.237L95.2068 210.203L99.209 207.891L35.5998 170.926L31.5976 173.237Z" fill="#5B5E71"/>
<path d="M17.903 181.143L17.9065 182.464L81.5156 219.43L81.5121 218.108L17.903 181.143Z" fill="#525566"/>
<path d="M17.9041 181.143L81.5132 218.108L85.5137 215.799L21.9045 178.833L17.9041 181.143Z" fill="#5B5E71"/>
<path d="M62.1367 167.512L62.1332 168.967L26.9359 189.422L26.9394 187.967L62.1367 167.512Z" fill="#37617B"/>
<path d="M26.9414 187.967L26.9361 189.422L22.5323 186.878L22.5358 185.423L26.9414 187.967Z" fill="#416E84"/>
<path d="M62.1367 167.512L26.9412 187.967L22.5356 185.423L57.7311 164.97L62.1367 167.512Z" fill="#4C7891"/>
<path d="M77.1719 176.193L77.1684 177.648L41.9711 198.103L41.9746 196.648L77.1719 176.193Z" fill="#37617B"/>
<path d="M41.9746 196.648L41.9711 198.103L37.5672 195.559L37.5708 194.106L41.9746 196.648Z" fill="#416E84"/>
<path d="M77.1719 176.193L41.9763 196.648L37.5707 194.106L72.7663 173.651L77.1719 176.193Z" fill="#4C7891"/>
<path d="M92.248 184.896L92.2445 186.351L57.0455 206.805L57.049 205.35L92.248 184.896Z" fill="#37617B"/>
<path d="M92.248 184.896L57.0525 205.351L52.6469 202.808L87.8424 182.354L92.248 184.896Z" fill="#4C7891"/>
<path d="M107.322 193.6L107.317 195.055L72.1214 215.508L72.125 214.055L107.322 193.6Z" fill="#37617B"/>
<path d="M107.322 193.6L72.125 214.055L67.7211 211.511L102.917 191.056L107.322 193.6Z" fill="#4C7891"/>
<path d="M63.9512 159.097L63.8983 175.479L37.0437 191.083L37.0965 174.701L63.9512 159.097Z" fill="#EFAC41"/>
<path d="M44.2871 173.022L44.2695 178.409L39.3918 181.245L39.4094 175.856L44.2871 173.022Z" fill="#E4E8F4"/>
<path d="M37.0977 174.701L37.0448 191.083L22.1158 182.464L22.1686 166.081L37.0977 174.701Z" fill="#F9BB4A"/>
<path d="M63.9551 159.107L37.0969 174.711L30.5739 170.934L28.6873 169.867L28.6486 169.849L22.1661 166.092L49.0243 150.486L55.5455 154.244L55.5631 154.261L57.4339 155.331L63.9551 159.107Z" fill="#FED57A"/>
<path d="M57.4336 155.331L30.5754 170.934L28.6888 169.867L28.6501 169.849L55.5487 154.244L55.5664 154.261L57.4336 155.331Z" fill="#EFAC41"/>
<path d="M30.5742 170.934L30.5566 177.133L28.6489 176.043L28.6665 169.846L30.5742 170.934Z" fill="#EFAC41"/>
<path d="M40.4009 183.859L40.9153 184.836L40.5964 185.02L39.8936 185.423L40.4009 183.859ZM40.5964 185.02L40.6017 186.954L40.2177 187.176L40.2124 185.242L40.5964 185.02ZM42.5042 186.029V186.443L39.8548 187.974L39.8531 187.56L42.5042 186.029ZM45.3226 181.016L45.3262 182.395C45.3262 182.83 45.076 183.336 44.7413 183.593L44.7449 184.835C44.9791 184.727 45.1553 184.736 45.1571 184.866L44.123 185.464C44.123 185.333 44.2992 185.12 44.5317 184.958L44.5282 183.714C44.3767 183.776 44.2446 183.762 44.1406 183.697C44.0191 183.607 43.9398 183.438 43.9398 183.195L43.9363 181.817L45.3226 181.016ZM42.1325 184.134L42.1378 186.068L41.7538 186.29L41.7485 184.356L42.1325 184.134Z" fill="#3F434F"/>
<path d="M41.9384 182.971L42.4492 183.949L42.1321 184.134L41.4328 184.533L41.9384 182.971Z" fill="#3F434F"/>
<path d="M84.3203 170.857L84.2675 187.239L57.4128 202.843L57.4657 186.461L84.3203 170.857Z" fill="#EFAC41"/>
<path d="M64.6543 184.782L64.6367 190.169L59.759 193.005L59.7766 187.616L64.6543 184.782Z" fill="#E4E8F4"/>
<path d="M57.4668 186.461L57.414 202.843L42.4849 194.224L42.5378 177.841L57.4668 186.461Z" fill="#F9BB4A"/>
<path d="M84.3242 170.866L57.466 186.471L50.9431 182.694L49.0564 181.627L49.0177 181.609L42.5352 177.852L69.3934 162.247L75.9146 166.004L75.9322 166.021L77.803 167.091L84.3242 170.866Z" fill="#FED57A"/>
<path d="M77.8027 167.091L50.9428 182.694L49.0562 181.627L49.0174 181.609L75.9161 166.002L75.9337 166.023L77.8027 167.091Z" fill="#EFAC41"/>
<path d="M50.9434 182.694L50.9257 188.893L49.018 187.803L49.0356 181.606L50.9434 182.694Z" fill="#EFAC41"/>
<path d="M60.7681 195.619L61.2825 196.596L60.9636 196.78L60.2608 197.181L60.7681 195.619ZM60.9636 196.78L60.9689 198.714L60.5849 198.936L60.5796 197.002L60.9636 196.78ZM62.8714 197.789V198.203L60.222 199.734L60.2203 199.32L62.8714 197.789ZM65.6898 192.777L65.6934 194.155C65.6934 194.59 65.4432 195.096 65.1085 195.353L65.112 196.595C65.3463 196.486 65.5225 196.496 65.5243 196.626L64.4902 197.224C64.4902 197.093 64.6664 196.88 64.8989 196.718L64.8954 195.474C64.7439 195.536 64.6118 195.522 64.5079 195.457C64.3863 195.367 64.307 195.198 64.307 194.955L64.3035 193.577L65.6898 192.777ZM62.4997 195.894L62.505 197.828L62.121 198.048L62.1157 196.114L62.4997 195.894ZM62.3059 194.729L62.8168 195.709L62.4997 195.894L61.8004 196.294L62.3059 194.729Z" fill="#3F434F"/>
<path d="M104.689 182.615L104.637 198.997L77.7819 214.605L77.8348 198.221L104.689 182.615Z" fill="#EFAC41"/>
<path d="M85.0234 196.542L85.0058 201.929L80.1281 204.765L80.1457 199.376L85.0234 196.542Z" fill="#E4E8F4"/>
<path d="M77.834 198.221L77.7811 214.603L62.8521 205.984L62.9049 189.601L77.834 198.221Z" fill="#F9BB4A"/>
<path d="M104.695 182.626L77.8354 198.231L71.3124 194.454L69.4258 193.387L69.387 193.369L62.9046 189.61L89.7628 174.007L96.284 177.764L96.3016 177.782L98.1723 178.851L104.695 182.626Z" fill="#FED57A"/>
<path d="M98.1719 178.849L71.3119 194.456L69.4253 193.387L69.3866 193.369L96.2853 177.762L96.3029 177.783L98.1719 178.849Z" fill="#EFAC41"/>
<path d="M71.3145 194.456L71.2968 200.653L69.3873 199.561L69.4049 193.364L71.3145 194.456Z" fill="#EFAC41"/>
<path d="M77.7988 147.679L77.746 164.061L50.8913 179.665L50.9442 163.282L77.7988 147.679Z" fill="#EFAC41"/>
<path d="M58.1328 161.604L58.1152 166.99L53.2375 169.826L53.2551 164.438L58.1328 161.604Z" fill="#E4E8F4"/>
<path d="M50.9453 163.282L50.8925 179.665L35.9634 171.045L36.0145 154.663L50.9453 163.282Z" fill="#F9BB4A"/>
<path d="M77.8027 147.687L50.9428 163.293L44.4216 159.516L42.5332 158.449L42.4962 158.431L36.012 154.672L62.8702 139.068L69.3931 142.826L69.4108 142.843L71.2798 143.912L77.8027 147.687Z" fill="#FED57A"/>
<path d="M71.2793 143.912L44.4211 159.516L42.5327 158.449L42.4958 158.431L69.3927 142.824L69.4103 142.845L71.2793 143.912Z" fill="#EFAC41"/>
<path d="M44.4219 159.516L44.4043 165.715L42.4965 164.623L42.5141 158.426L44.4219 159.516Z" fill="#EFAC41"/>
<path d="M54.2472 172.441L54.7598 173.418L54.4427 173.601L53.7381 174.003L54.2472 172.441Z" fill="#3F434F"/>
<path d="M54.4439 173.6L54.4492 175.536L54.0652 175.757L54.0599 173.823L54.4439 173.6ZM56.3516 174.609V175.025L53.7005 176.554V176.14L56.3516 174.609ZM59.1683 169.599L59.1719 170.977C59.1736 171.412 58.9217 171.917 58.5888 172.175L58.5923 173.416C58.8266 173.307 59.0028 173.318 59.0028 173.448L57.9687 174.045C57.9687 173.915 58.1449 173.702 58.3792 173.538L58.3757 172.296C58.2224 172.358 58.0903 172.344 57.9881 172.278C57.8666 172.189 57.7873 172.02 57.7873 171.776L57.782 170.399L59.1683 169.599ZM55.98 172.714L55.9852 174.649L55.6012 174.87L55.5959 172.936L55.98 172.714ZM55.7862 171.551L56.297 172.53L55.98 172.714L55.2789 173.115L55.7862 171.551Z" fill="#3F434F"/>
<path d="M98.168 159.437L98.1151 175.819L71.2605 191.425L71.3133 175.042L98.168 159.437Z" fill="#EFAC41"/>
<path d="M78.5 173.364L78.4842 178.75L73.6064 181.586L73.6241 176.196L78.5 173.364Z" fill="#E4E8F4"/>
<path d="M71.3145 175.042L71.2616 191.425L56.3326 182.805L56.3836 166.423L71.3145 175.042Z" fill="#F9BB4A"/>
<path d="M98.1719 159.447L71.3119 175.053L64.7907 171.276L62.9023 170.209L62.8653 170.191L56.3811 166.432L83.2393 150.828L89.7623 154.586L89.7799 154.603L91.6489 155.672L98.1719 159.447Z" fill="#FED57A"/>
<path d="M91.6484 155.672L64.7903 171.276L62.9019 170.209L62.8649 170.191L89.7618 154.584L89.7794 154.605L91.6484 155.672Z" fill="#EFAC41"/>
<path d="M64.791 171.276L64.7734 177.475L62.8656 176.383L62.8833 170.186L64.791 171.276Z" fill="#EFAC41"/>
<path d="M74.6156 184.199L75.1282 185.178L74.8111 185.361L74.1065 185.763L74.6156 184.199ZM74.8111 185.361L74.8164 187.296L74.4323 187.518L74.4271 185.583L74.8111 185.361ZM76.7188 186.371V186.783L74.0677 188.316V187.9L76.7188 186.371ZM79.5355 181.359L79.5391 182.737C79.5408 183.172 79.2889 183.677 78.956 183.935L78.9595 185.176C79.1938 185.067 79.3699 185.078 79.3699 185.208L78.3359 185.805C78.3359 185.675 78.5121 185.462 78.7464 185.298L78.7428 184.056C78.5896 184.118 78.4575 184.102 78.3553 184.038C78.2338 183.947 78.1545 183.778 78.1545 183.536L78.1492 182.159L79.5355 181.359ZM76.3471 184.474L76.3524 186.408L75.9684 186.63L75.9631 184.696L76.3471 184.474ZM76.1534 183.311L76.6642 184.29L76.3471 184.474L75.6461 184.875L76.1534 183.311Z" fill="#3F434F"/>
<path d="M47.7988 120.415L47.7812 126.692L42.102 129.991L42.1196 123.715L44.5646 122.29L45.2992 121.867L47.7988 120.415Z" fill="#EFAC41"/>
<path d="M42.1289 123.718L42.1042 129.987L36.3916 126.686L36.4092 120.422V120.413H36.4198L38.8982 121.849L39.4619 122.179L39.631 122.272L42.1289 123.718Z" fill="#F9BB4A"/>
<path d="M47.8027 120.421L42.1253 123.72L39.6292 122.275L38.907 121.867L38.8911 121.86L36.4109 120.421L42.0883 117.121L47.8027 120.421Z" fill="#FED57A"/>
<path d="M45.3086 118.974L39.6312 122.275L38.9089 121.867L38.8948 121.86L44.5864 118.56L44.5934 118.567L45.3086 118.974Z" fill="#E4E8F4"/>
<path d="M38.8894 123.353L39.624 123.785L39.6328 122.29V122.272L39.4672 122.18L38.8983 121.858V121.867L38.8894 123.353Z" fill="#D4DAE8"/>
<path d="M41.3205 127.324L41.1355 127.678L41.25 127.745L41.5037 127.891L41.3205 127.324ZM41.25 127.745L41.2483 128.446L41.3874 128.525V127.826L41.25 127.745ZM40.5577 128.11V128.261L41.5195 128.814V128.665L40.5577 128.11ZM38.805 125.915V126.413C38.8032 126.572 38.8931 126.753 39.0164 126.847L39.0129 127.296C38.9283 127.257 38.8649 127.261 38.8649 127.308L39.2383 127.523C39.2383 127.477 39.1749 127.4 39.0904 127.34V126.891C39.1467 126.914 39.1961 126.908 39.2313 126.884C39.2771 126.852 39.3053 126.79 39.3053 126.702V126.204L38.805 125.915ZM40.6934 127.424V128.124L40.8308 128.205L40.8325 127.504L40.6934 127.424ZM40.7638 127.003L40.5789 127.356L40.6934 127.424L40.947 127.569L40.7638 127.003Z" fill="#3F434F"/>
<path d="M39.8251 128.004C39.8515 127.99 39.8674 127.96 39.8674 127.923L39.8709 126.424C39.869 126.388 39.8585 126.353 39.8405 126.322C39.8224 126.29 39.7972 126.264 39.767 126.244L38.4652 125.492C38.4335 125.474 38.4018 125.473 38.3771 125.487C38.3507 125.501 38.3366 125.533 38.3366 125.57L38.3313 127.067C38.3331 127.103 38.3432 127.138 38.361 127.169C38.3787 127.2 38.4036 127.227 38.4335 127.246L39.7353 127.999C39.7512 128.008 39.7694 128.014 39.7881 128.015C39.8012 128.014 39.814 128.011 39.8251 128.004ZM38.437 125.54L39.7405 126.292C39.7622 126.307 39.7803 126.326 39.7934 126.349C39.8065 126.372 39.8143 126.398 39.8163 126.424L39.8128 127.921C39.8128 127.939 39.8057 127.951 39.7987 127.956C39.7899 127.96 39.7775 127.958 39.7634 127.951L38.4599 127.199C38.4385 127.184 38.4207 127.165 38.4079 127.142C38.395 127.12 38.3875 127.095 38.3859 127.069L38.3912 125.57C38.3912 125.552 38.3965 125.54 38.4035 125.534C38.4069 125.533 38.4105 125.532 38.4141 125.533C38.4222 125.533 38.4301 125.535 38.437 125.54ZM41.7646 129.123C41.791 129.108 41.8051 129.078 41.8051 129.041L41.8086 127.544C41.8086 127.477 41.7628 127.396 41.7047 127.363L40.4029 126.611C40.3712 126.593 40.3412 126.591 40.3148 126.605C40.2884 126.621 40.2743 126.651 40.2743 126.688L40.269 128.187C40.2706 128.223 40.2807 128.258 40.2985 128.289C40.3163 128.319 40.3412 128.346 40.3712 128.365L41.6729 129.117C41.6889 129.127 41.7071 129.133 41.7258 129.133C41.7394 129.133 41.7528 129.129 41.7646 129.123ZM40.3747 126.658L41.6782 127.41C41.6999 127.425 41.718 127.445 41.7311 127.468C41.7442 127.491 41.752 127.516 41.754 127.542L41.7505 129.041C41.7505 129.059 41.7452 129.07 41.7364 129.075C41.7276 129.078 41.7152 129.078 41.7011 129.07L40.3976 128.318C40.3763 128.303 40.3585 128.283 40.3457 128.261C40.3329 128.238 40.3254 128.213 40.3236 128.187L40.3289 126.688C40.3289 126.67 40.3342 126.658 40.3412 126.653C40.3447 126.652 40.3483 126.652 40.3518 126.653C40.3597 126.653 40.3676 126.655 40.3747 126.658Z" fill="#3F434F"/>
<path d="M32.8477 119.825L32.83 126.101L27.1508 129.401L27.1684 123.125L29.6135 121.699L30.348 121.277L32.8477 119.825Z" fill="#EFAC41"/>
<path d="M27.1758 123.128L27.1529 129.397L21.4402 126.094L21.4578 119.832V119.822H21.4684L23.9469 121.259L24.5106 121.588L24.6797 121.682L27.1758 123.128Z" fill="#F9BB4A"/>
<path d="M32.8516 119.83L27.1724 123.13L24.6763 121.685L23.954 121.277L23.9399 121.268L21.4579 119.83L27.1371 116.531L32.8516 119.83Z" fill="#FED57A"/>
<path d="M30.3574 118.386L24.68 121.685L23.9577 121.277L23.9419 121.268L29.6352 117.968L29.6422 117.977L30.3574 118.386Z" fill="#E4E8F4"/>
<path d="M23.9365 122.762L24.6728 123.195L24.6816 121.699V121.682L24.5161 121.588L23.9471 121.268V121.277L23.9365 122.762Z" fill="#D4DAE8"/>
<path d="M26.3695 126.734L26.1828 127.088L26.2991 127.155L26.5527 127.301L26.3695 126.734Z" fill="#3F434F"/>
<path d="M26.2987 127.155L26.2969 127.854L26.436 127.935V127.234L26.2987 127.155ZM25.6081 127.52V127.669L26.5664 128.224V128.074L25.6081 127.52ZM23.8536 125.323L23.8519 125.821C23.8519 125.98 23.9417 126.163 24.0633 126.255V126.706C23.9769 126.667 23.9135 126.67 23.9135 126.716L24.287 126.933C24.287 126.885 24.2236 126.81 24.139 126.75V126.302C24.1954 126.323 24.2447 126.32 24.2799 126.295C24.324 126.262 24.3539 126.202 24.3539 126.114V125.615L23.8536 125.323ZM25.742 126.833L25.7402 127.534L25.8794 127.615V126.914L25.742 126.833Z" fill="#3F434F"/>
<path d="M25.8129 126.412L25.6279 126.767L25.7424 126.833L25.9961 126.979L25.8129 126.412ZM24.874 127.412C24.9004 127.4 24.9145 127.37 24.9145 127.333L24.9198 125.834C24.9178 125.798 24.9074 125.763 24.8894 125.731C24.8713 125.7 24.8461 125.674 24.8159 125.654L23.5123 124.902C23.4824 124.884 23.4507 124.883 23.4242 124.897C23.3996 124.911 23.3837 124.941 23.3837 124.979L23.3802 126.477C23.3818 126.512 23.3917 126.547 23.4091 126.578C23.4265 126.61 23.451 126.636 23.4806 126.656L24.7842 127.407C24.8 127.417 24.8182 127.423 24.837 127.424C24.8495 127.424 24.8616 127.42 24.8722 127.414L24.874 127.412ZM23.4859 124.949L24.7894 125.702C24.8111 125.717 24.8292 125.736 24.8423 125.759C24.8554 125.782 24.8633 125.807 24.8652 125.834L24.8599 127.331C24.8599 127.349 24.8546 127.361 24.8476 127.366C24.8388 127.37 24.8264 127.368 24.8123 127.359L23.5088 126.609C23.4874 126.594 23.4696 126.575 23.4568 126.552C23.4439 126.53 23.4364 126.504 23.4348 126.478L23.4401 124.979C23.4401 124.962 23.4436 124.949 23.4524 124.944C23.4552 124.943 23.4582 124.942 23.4612 124.942C23.4699 124.943 23.4785 124.945 23.4859 124.949Z" fill="#3F434F"/>
<path d="M26.8134 128.532C26.838 128.517 26.8521 128.488 26.8521 128.451L26.8574 126.952C26.8574 126.887 26.8116 126.806 26.7535 126.773L25.4499 126.02C25.42 126.003 25.3883 125.999 25.3619 126.015C25.3372 126.031 25.3231 126.061 25.3231 126.098L25.3178 127.595C25.3192 127.631 25.3291 127.666 25.3469 127.698C25.3647 127.729 25.3898 127.755 25.42 127.775L26.7218 128.527C26.7379 128.536 26.7561 128.541 26.7746 128.541C26.7881 128.542 26.8015 128.539 26.8134 128.532ZM25.4235 126.068L26.7271 126.82C26.7488 126.835 26.7668 126.855 26.78 126.878C26.7931 126.901 26.8009 126.926 26.8028 126.952L26.7975 128.45C26.7975 128.467 26.794 128.48 26.7852 128.485C26.7764 128.488 26.7623 128.487 26.75 128.48L25.4464 127.727C25.4251 127.713 25.4074 127.693 25.3945 127.671C25.3817 127.648 25.3742 127.623 25.3724 127.597L25.3777 126.098C25.3777 126.08 25.3813 126.068 25.3901 126.063C25.3934 126.061 25.397 126.061 25.4006 126.061C25.4087 126.062 25.4165 126.064 25.4235 126.068Z" fill="#3F434F"/>
<path d="M39.5898 123.723L39.5722 130.002L33.893 133.301L33.9106 127.023L36.3557 125.599L37.0902 125.177L39.5898 123.723Z" fill="#EFAC41"/>
<path d="M33.9199 127.026L33.897 133.297L28.1826 129.994L28.2002 123.73V123.722H28.2108L30.6893 125.157L31.253 125.487L31.4221 125.58L33.9199 127.026Z" fill="#F9BB4A"/>
<path d="M39.5938 123.73L33.9163 127.03L31.4202 125.584L30.698 125.175L30.6821 125.168L28.2019 123.729L33.8793 120.429L39.5938 123.73Z" fill="#FED57A"/>
<path d="M37.1016 122.284L31.4224 125.584L30.7001 125.175L30.686 125.168L36.3776 121.869L36.3864 121.876L37.1016 122.284Z" fill="#E4E8F4"/>
<path d="M30.6805 126.662L31.415 127.093L31.4238 125.599V125.582L31.26 125.488L30.6893 125.166V125.177L30.6805 126.662Z" fill="#D4DAE8"/>
<path d="M33.1115 130.632L32.9265 130.986L33.041 131.053L33.2965 131.199L33.1115 130.632ZM33.041 131.053V131.754L33.1784 131.834L33.1802 131.134L33.041 131.053ZM32.3505 131.42V131.569L33.3105 132.122V131.973L32.3505 131.42ZM30.596 129.221V129.721C30.5943 129.88 30.6841 130.061 30.8074 130.155L30.8056 130.604C30.7211 130.565 30.6559 130.569 30.6559 130.616L31.0311 130.833C31.0311 130.785 30.9677 130.708 30.8814 130.65L30.8831 130.199C30.9395 130.222 30.9871 130.216 31.0241 130.192C31.0681 130.16 31.0963 130.098 31.0963 130.01L31.0981 129.512L30.596 129.221ZM32.4844 130.733V131.434L32.6218 131.513L32.6235 130.812L32.4844 130.733ZM32.5549 130.312L32.3699 130.666L32.4844 130.733L32.7381 130.877L32.5549 130.312Z" fill="#3F434F"/>
<path d="M31.6161 131.312C31.6425 131.298 31.6584 131.268 31.6584 131.231L31.6619 129.734C31.6604 129.698 31.6504 129.662 31.6326 129.631C31.6149 129.599 31.5899 129.572 31.5598 129.552L30.2562 128.802C30.2263 128.784 30.1928 128.781 30.1681 128.795C30.1417 128.811 30.1276 128.841 30.1276 128.878L30.1223 130.377C30.1244 130.412 30.1346 130.447 30.1524 130.478C30.1701 130.509 30.1948 130.535 30.2245 130.555L31.5263 131.307C31.5422 131.317 31.5605 131.322 31.5791 131.323C31.5922 131.323 31.605 131.319 31.6161 131.312ZM30.2298 128.849L31.5316 129.6C31.5533 129.615 31.5713 129.634 31.5845 129.657C31.5976 129.68 31.6054 129.706 31.6073 129.732L31.6038 131.231C31.6038 131.249 31.5985 131.259 31.5897 131.266C31.5809 131.268 31.5686 131.266 31.5545 131.259L30.2509 130.507C30.2298 130.492 30.2124 130.473 30.1999 130.45C30.1873 130.428 30.1801 130.403 30.1787 130.377L30.1822 128.879C30.1822 128.862 30.1875 128.848 30.1946 128.844C30.1977 128.842 30.2013 128.841 30.2051 128.841C30.214 128.841 30.2225 128.844 30.2298 128.849ZM33.5556 132.432C33.582 132.415 33.5961 132.387 33.5961 132.35L33.5996 130.852C33.5996 130.785 33.5538 130.704 33.4974 130.673L32.1939 129.92C32.164 129.903 32.1322 129.899 32.1058 129.915C32.0794 129.929 32.0653 129.959 32.0653 129.996L32.0618 131.495C32.0632 131.531 32.073 131.565 32.0905 131.596C32.108 131.627 32.1325 131.654 32.1622 131.673L33.4657 132.425C33.4816 132.435 33.4999 132.441 33.5186 132.441C33.5316 132.441 33.5444 132.439 33.5556 132.432ZM32.1675 129.966L33.4693 130.72C33.4907 130.735 33.5087 130.754 33.5218 130.777C33.5349 130.799 33.5428 130.825 33.545 130.851L33.5415 132.35C33.5415 132.367 33.5362 132.378 33.5274 132.385C33.5203 132.387 33.5063 132.385 33.4922 132.378L32.1886 131.626C32.1676 131.611 32.1502 131.591 32.1377 131.569C32.1252 131.546 32.1179 131.521 32.1164 131.495L32.1199 129.998C32.1199 129.98 32.1252 129.966 32.134 129.963C32.1367 129.961 32.1397 129.96 32.1428 129.959C32.1517 129.96 32.1601 129.961 32.1675 129.966Z" fill="#3F434F"/>
<path d="M137.219 124.164L159.242 111.364L159.273 106.305L137.251 119.105L137.219 124.164Z" fill="#CAD0DD"/>
<path d="M127.85 113.658L137.244 119.108L159.275 106.284L149.834 100.882L127.85 113.658Z" fill="#D4DAE8"/>
<path d="M127.829 113.665L127.819 115.55L137.218 124.164L137.25 119.105L127.829 113.665Z" fill="#BAC1CE"/>
<path d="M190.414 93.2453L212.437 80.4495L212.469 75.3903L190.446 88.1879L190.414 93.2453Z" fill="#CAD0DD"/>
<path d="M181.045 82.7395L190.441 88.1897L212.471 75.3657L203.029 69.963L181.045 82.7395Z" fill="#D4DAE8"/>
<path d="M181.025 82.7465L181.014 84.6331L190.416 93.247L190.447 88.1861L181.025 82.7465Z" fill="#BAC1CE"/>
<path d="M71.91 82.0384L93.931 69.2408L93.9609 64.1817L71.9399 76.9792L71.91 82.0384Z" fill="#CAD0DD"/>
<path d="M62.5409 71.5343L71.9352 76.9828L93.9668 64.1588L84.5249 58.7561L62.5409 71.5343Z" fill="#D4DAE8"/>
<path d="M62.5207 71.5414L62.5101 73.4262L71.9115 82.0401L71.9414 76.9792L62.5207 71.5414Z" fill="#BAC1CE"/>
<path d="M125.107 51.1198L147.13 38.324L147.16 33.2649L125.137 46.0642L125.107 51.1198Z" fill="#CAD0DD"/>
<path d="M115.738 40.6158L125.132 46.066L147.164 33.242L137.722 27.8394L115.738 40.6158Z" fill="#D4DAE8"/>
<path d="M115.716 40.6211L115.705 42.5094L125.107 51.1216L125.137 46.0625L115.716 40.6211Z" fill="#BAC1CE"/>
</g>
</svg>
