<svg width="32" height="32" viewBox="0 0 32 32" fill="none" xmlns="http://www.w3.org/2000/svg">
<path d="M30.5286 16.0011L31.9326 12.3393C32.0865 11.9354 31.9665 11.4774 31.6286 11.2034L28.5848 8.73559L27.9688 4.86185C27.9008 4.43388 27.5649 4.0999 27.1369 4.03191L23.2631 3.41595L20.7973 0.37016C20.5253 0.032183 20.0574 -0.0878088 19.6634 0.0661807L15.9996 1.47208L12.3379 0.0681805C11.9319 -0.0878088 11.478 0.0361827 11.204 0.37216L8.73614 3.41795L4.8624 4.03391C4.65437 4.06741 4.46219 4.16564 4.31319 4.31464C4.16419 4.46364 4.06596 4.65582 4.03246 4.86385L3.4165 8.73759L0.37071 11.2054C0.0347334 11.4774 -0.0872582 11.9354 0.0667312 12.3393L1.47064 16.0011L0.0667312 19.6628C-0.0892581 20.0668 0.0347334 20.5248 0.37071 20.7968L3.4165 23.2626L4.03246 27.1363C4.10045 27.5643 4.43443 27.9003 4.8624 27.9683L8.73614 28.5842L11.204 31.628C11.3365 31.7928 11.518 31.9111 11.7222 31.9657C11.9265 32.0204 12.1428 32.0086 12.3399 31.932L15.9996 30.5301L19.6614 31.934C19.7757 31.9776 19.897 32 20.0194 32C20.3133 32 20.6033 31.87 20.7973 31.628L23.2631 28.5842L27.1369 27.9683C27.3456 27.9351 27.5384 27.8367 27.6878 27.6873C27.8373 27.5379 27.9356 27.345 27.9688 27.1363L28.5848 23.2626L31.6286 20.7968C31.9665 20.5228 32.0865 20.0668 31.9326 19.6628L30.5286 16.0011Z" fill="currentColor"/>
<path d="M12.9998 14.0012C11.3459 14.0012 10 12.6553 10 11.0014C10 9.34753 11.3459 8.00163 12.9998 8.00163C14.6537 8.00163 15.9996 9.34753 15.9996 11.0014C15.9996 12.6553 14.6537 14.0012 12.9998 14.0012ZM12.9998 10.0015C12.4478 10.0015 11.9999 10.4495 11.9999 11.0014C11.9999 11.5534 12.4478 12.0014 12.9998 12.0014C13.5518 12.0014 13.9997 11.5534 13.9997 11.0014C13.9997 10.4495 13.5518 10.0015 12.9998 10.0015ZM18.9994 24.0005C17.3455 24.0005 15.9996 22.6546 15.9996 21.0007C15.9996 19.3469 17.3455 18.0009 18.9994 18.0009C20.6533 18.0009 21.9992 19.3469 21.9992 21.0007C21.9992 22.6546 20.6533 24.0005 18.9994 24.0005ZM18.9994 20.0008C18.4494 20.0008 17.9995 20.4508 17.9995 21.0007C17.9995 21.5507 18.4494 22.0007 18.9994 22.0007C19.5493 22.0007 19.9993 21.5507 19.9993 21.0007C19.9993 20.4508 19.5493 20.0008 18.9994 20.0008ZM10.9999 24.0005C10.7979 24.0005 10.596 23.9405 10.42 23.8145C9.97 23.4926 9.86601 22.8686 10.188 22.4186L20.1873 8.4196C20.5093 7.96963 21.1332 7.86564 21.5832 8.18761C22.0332 8.50759 22.1352 9.13355 21.8152 9.58152L11.8159 23.5806C11.6179 23.8545 11.3119 24.0005 10.9999 24.0005Z" fill="#ffffff"/>
</svg>
