<svg width="9" height="15" viewBox="0 0 9 15" fill="none" xmlns="http://www.w3.org/2000/svg">
<path d="M2.28672 1.05417L8.25443 7.00417C8.32526 7.075 8.37532 7.15173 8.40459 7.23437C8.43434 7.31701 8.44922 7.40555 8.44922 7.5C8.44922 7.59444 8.43434 7.68298 8.40459 7.76562C8.37532 7.84826 8.32526 7.925 8.25443 7.99583L2.28672 13.9635C2.12144 14.1288 1.91484 14.2115 1.66693 14.2115C1.41901 14.2115 1.20651 14.1229 1.02943 13.9458C0.852344 13.7687 0.763802 13.5622 0.763802 13.326C0.763802 13.0899 0.852344 12.8833 1.02943 12.7062L6.23568 7.5L1.02943 2.29375C0.864149 2.12847 0.78151 1.92494 0.78151 1.68317C0.78151 1.44092 0.870051 1.23125 1.04713 1.05417C1.22422 0.877082 1.43082 0.788541 1.66693 0.78854C1.90304 0.78854 2.10963 0.877081 2.28672 1.05417Z" fill="currentColor"/>
</svg>
