<svg width="36" height="26" viewBox="0 0 36 26" fill="none" xmlns="http://www.w3.org/2000/svg">
<rect width="36" height="26" fill="none"/>
<path d="M21.267 0C21.5862 0.0780248 21.9124 0.141863 22.2245 0.248261C24.1397 0.879553 25.4519 2.63866 25.4803 4.65312C25.5016 5.95826 25.4874 7.25631 25.4874 8.56145C25.4874 8.91611 25.2888 9.14309 24.9838 9.15018C24.6717 9.15728 24.466 8.9232 24.466 8.55436C24.466 7.33433 24.466 6.11431 24.466 4.89428C24.466 2.63156 22.8487 1.02142 20.5931 1.02142C18.983 1.02142 17.3728 1.01432 15.7627 1.02142C13.9326 1.0356 12.4289 2.27691 12.0884 4.05729C12.0388 4.30555 12.0246 4.568 12.0246 4.82335C12.0175 8.57564 12.0246 12.3208 12.0246 16.0731C12.0246 16.144 12.0246 16.2221 12.0246 16.3214C16.1741 16.3214 20.3094 16.3214 24.4731 16.3214C24.4731 16.2363 24.4731 16.144 24.4731 16.0589C24.4731 15.1084 24.4731 14.1509 24.4731 13.2004C24.4731 12.9663 24.544 12.7748 24.7568 12.6613C25.0405 12.5123 25.381 12.6613 25.4732 12.9734C25.5016 13.0585 25.5016 13.1507 25.5016 13.2429C25.5016 17.0165 25.5016 20.7901 25.5016 24.5636C25.5016 25.2871 25.1044 25.8475 24.4305 25.9468C23.9269 26.0177 23.402 26.0177 22.8984 25.9468C22.26 25.8546 21.8557 25.3084 21.8415 24.6558C21.8344 24.3508 21.8415 24.0458 21.8415 23.7195C19.4511 23.7195 17.082 23.7195 14.6632 23.7195C14.6632 24.0316 14.6703 24.3367 14.6632 24.6488C14.649 25.3013 14.2447 25.8475 13.6063 25.9397C13.1027 26.0106 12.5778 26.0106 12.0742 25.9397C11.4429 25.8546 11.0386 25.3226 11.0032 24.6842C10.9961 24.6204 11.0032 24.5494 11.0032 24.4856C11.0032 17.9386 10.9961 11.3987 11.0102 4.85173C11.0102 2.88692 11.9111 1.41863 13.656 0.510708C14.0816 0.29082 14.5781 0.205702 15.0392 0.0567453C15.103 0.0354658 15.1597 0.0212795 15.2236 0C17.2168 0 19.2383 0 21.267 0ZM24.4376 17.3924C24.388 17.3783 24.3667 17.3712 24.3454 17.3641C23.4446 17.3641 22.5366 17.357 21.6358 17.3641C21.5578 17.3641 21.4585 17.4421 21.4159 17.513C21.2102 17.8251 21.0187 18.1443 20.8272 18.4635C20.5009 18.9955 20.0327 19.2721 19.4085 19.265C18.6283 19.265 17.8481 19.265 17.0678 19.265C16.4436 19.265 15.9684 18.9955 15.6492 18.4635C15.4577 18.1514 15.2591 17.8464 15.0817 17.5272C15.0037 17.3924 14.9115 17.3499 14.7625 17.3499C13.9255 17.357 13.0885 17.3499 12.2515 17.357C12.1806 17.357 12.1097 17.3712 12.0458 17.3783C12.0317 17.4208 12.0246 17.435 12.0246 17.4492C12.0246 18.9529 12.0175 20.4496 12.0246 21.9534C12.0246 22.4002 12.3438 22.6839 12.8048 22.6839C16.4294 22.6839 20.054 22.6839 23.6786 22.6839C24.161 22.6839 24.4589 22.386 24.466 21.9037C24.4731 20.4425 24.466 18.9813 24.466 17.5272C24.4518 17.4847 24.4447 17.4492 24.4376 17.3924ZM20.281 17.3924C18.8908 17.3924 17.5501 17.3924 16.1741 17.3924C16.3088 17.6123 16.4223 17.7897 16.5287 17.9741C16.6422 18.1798 16.8195 18.2649 17.0465 18.2649C17.8339 18.2649 18.6212 18.2791 19.4085 18.2578C19.5646 18.2507 19.7561 18.1656 19.8625 18.0521C20.0257 17.8677 20.1321 17.6336 20.281 17.3924ZM12.0104 23.6273C12.0104 23.9394 12.0033 24.2941 12.0104 24.6488C12.0175 24.8403 12.1381 24.9538 12.3296 24.9608C12.6488 24.9679 12.975 24.9821 13.2942 24.9538C13.4006 24.9396 13.578 24.8119 13.5851 24.7197C13.6205 24.3863 13.5993 24.0529 13.5993 23.7266C13.0602 23.6912 12.5566 23.6628 12.0104 23.6273ZM24.4518 23.599C24.1752 23.6344 23.9127 23.6699 23.6503 23.6912C23.3878 23.7054 23.1254 23.6912 22.8487 23.6912C22.8487 24.0246 22.8487 24.3225 22.8487 24.6204C22.8487 24.8261 22.9693 24.9467 23.175 24.9538C23.4871 24.9609 23.8063 24.9609 24.1184 24.9538C24.3099 24.9467 24.4376 24.8332 24.4447 24.6488C24.4589 24.3012 24.4518 23.9465 24.4518 23.599Z" fill="currentColor"/>
<path d="M13.6138 8.62525C13.6138 7.39103 13.6138 6.15682 13.6138 4.91552C13.6138 3.51107 14.5288 2.59605 15.9332 2.59605C17.4654 2.59605 19.0046 2.59605 20.5367 2.59605C21.927 2.59605 22.842 3.51107 22.8491 4.90133C22.8491 7.39103 22.8491 9.87364 22.8491 12.3633C22.8491 13.7323 21.927 14.6615 20.558 14.6615C19.0046 14.6615 17.4583 14.6686 15.9049 14.6615C14.5501 14.6615 13.628 13.7323 13.6209 12.3775C13.6209 12.3633 13.6209 12.3421 13.6209 12.3279C13.6138 11.0937 13.6138 9.85946 13.6138 8.62525ZM14.6565 12.3917C14.6494 12.4414 14.6423 12.4839 14.6423 12.5265C14.6565 13.1649 15.153 13.633 15.8339 13.633C16.7348 13.6401 17.6427 13.633 18.5435 13.633C19.2386 13.633 19.9338 13.6401 20.6289 13.633C21.3524 13.6259 21.8702 13.0656 21.778 12.3917C19.416 12.3917 17.0469 12.3917 14.6565 12.3917ZM14.6423 6.99382C14.7345 7.00091 14.7912 7.008 14.848 7.008C17.0965 7.008 19.338 7.008 21.5865 7.0151C21.7851 7.0151 21.8277 6.94416 21.8206 6.76684C21.8064 6.56823 21.8206 6.36962 21.8206 6.17101C21.8206 5.85182 21.8206 5.85182 21.4872 5.85182C19.3167 5.85182 17.1462 5.85182 14.9757 5.85182C14.9189 5.85182 14.848 5.83763 14.8054 5.85891C14.7487 5.88728 14.6565 5.95112 14.6565 6.00077C14.6352 6.31997 14.6423 6.64625 14.6423 6.99382ZM14.6423 8.02942C14.6423 8.33443 14.6565 8.61815 14.6352 8.89478C14.621 9.11467 14.6919 9.17142 14.9118 9.17142C17.1249 9.16433 19.338 9.16433 21.551 9.16433C21.629 9.16433 21.7071 9.15723 21.7851 9.15014C21.7851 8.76002 21.7851 8.39117 21.7851 8.02233C19.4018 8.02942 17.0469 8.02942 14.6423 8.02942ZM14.6423 10.207C14.6423 10.512 14.6565 10.7816 14.6352 11.0511C14.6139 11.2994 14.7061 11.349 14.9402 11.349C17.132 11.3419 19.3167 11.3419 21.5085 11.3419C21.5652 11.3419 21.6291 11.3561 21.6787 11.3348C21.7284 11.3136 21.7993 11.2639 21.7993 11.2213C21.8064 10.888 21.8064 10.5475 21.8064 10.1999C19.416 10.207 17.0469 10.207 14.6423 10.207ZM21.8064 4.81622C21.8064 4.74528 21.8135 4.68854 21.8064 4.63179C21.7354 4.05015 21.2744 3.63166 20.6644 3.63166C19.6359 3.62456 18.6074 3.63166 17.5788 3.63166C16.9688 3.63166 16.3517 3.62456 15.7417 3.63875C15.0962 3.65294 14.5997 4.2062 14.6707 4.82331C17.0398 4.81622 19.416 4.81622 21.8064 4.81622Z" fill="currentColor"/>
<path d="M24.9621 11.3277C24.6855 11.3207 24.4585 11.1008 24.4585 10.817C24.4585 10.5404 24.6926 10.3134 24.9621 10.3134C25.2458 10.3134 25.487 10.5546 25.4799 10.8383C25.4657 11.115 25.2316 11.3348 24.9621 11.3277Z" fill="currentColor"/>
</svg>
