<svg width="36" height="26" viewBox="0 0 36 26" fill="none" xmlns="http://www.w3.org/2000/svg">
<rect width="36" height="26" fill="none"/>
<path d="M16.7101 1.00672C16.932 1.14793 17.0059 1.34965 17.0395 1.61188C17.0664 1.80688 17.174 2.02205 17.3018 2.1767C18.0011 3.0172 18.0145 4.0258 17.3152 4.85957C17.1404 5.06802 17.0328 5.28318 17.0194 5.55887C16.9992 5.88162 16.7907 6.06989 16.5083 6.04972C16.2327 6.03627 16.0578 5.82783 16.0578 5.51852C16.0646 5.06129 16.2125 4.65785 16.5083 4.3082C16.9857 3.75684 16.9857 3.30633 16.5151 2.76169C16.2596 2.46583 16.1183 2.12291 16.0646 1.73964C16.0175 1.43034 16.078 1.16138 16.3806 1C16.4949 1.00672 16.6025 1.00672 16.7101 1.00672Z" fill="currentColor"/>
<path d="M19.4935 1.00673C19.7289 1.12104 19.8096 1.30931 19.8566 1.56482C19.897 1.78672 19.9911 2.02206 20.1323 2.19016C20.798 2.97014 20.8182 4.06615 20.1458 4.83941C19.9642 5.04785 19.8566 5.27647 19.8365 5.55888C19.8096 5.89508 19.5944 6.08335 19.3053 6.04973C19.0296 6.02283 18.8682 5.80766 18.8749 5.47819C18.8884 5.04113 19.043 4.65114 19.3254 4.31494C19.8163 3.73667 19.8163 3.33323 19.3322 2.75497C19.0699 2.44567 18.9287 2.0893 18.8817 1.68586C18.848 1.37655 18.9287 1.14794 19.2179 1.00673C19.3053 1.00673 19.3994 1.00673 19.4935 1.00673Z" fill="currentColor"/>
<path d="M25.3434 20.6676C25.2493 20.6609 25.1686 20.6542 25.0947 20.6542C23.5683 20.6542 22.042 20.6542 20.5156 20.6475C20.3341 20.6475 20.2601 20.6945 20.1996 20.8693C19.9105 21.7367 19.0767 22.3217 18.1689 22.315C17.2612 22.315 16.4341 21.7233 16.1383 20.8626C16.0979 20.7416 16.0711 20.6407 15.8962 20.6407C14.3161 20.6475 12.7359 20.6475 11.1558 20.6475C11.1155 20.6475 11.0818 20.6542 10.981 20.6676C11.0684 21.0173 11.1289 21.3669 11.2499 21.6897C11.9156 23.4783 13.5361 24.6213 15.4457 24.6617C15.6474 24.6684 15.8559 24.655 16.0576 24.6684C16.3198 24.6886 16.5081 24.9105 16.4947 25.1593C16.4812 25.408 16.2929 25.603 16.0374 25.6165C14.0471 25.7241 12.3796 25.0651 11.1356 23.4715C10.4094 22.5436 10.0396 21.4745 10.0127 20.3045C9.99256 19.1346 9.99928 17.9646 10.0127 16.7879C10.0262 15.9339 10.2346 15.1203 10.6313 14.3672C11.8887 11.9802 13.1528 9.60666 14.4035 7.21964C14.5582 6.92378 14.7599 6.80275 15.0961 6.80948C17.1469 6.82292 19.1977 6.8162 21.2552 6.80948C21.578 6.80948 21.7797 6.92378 21.9276 7.20619C23.1649 9.56631 24.4088 11.9197 25.6595 14.2731C26.11 15.1136 26.3319 16.0146 26.3319 16.9627C26.3386 18.0116 26.3386 19.0539 26.3319 20.1028C26.3117 22.8596 24.4626 25.0718 21.7461 25.5492C21.2418 25.6367 20.7106 25.6098 20.1929 25.6165C19.9441 25.6165 19.7558 25.3946 19.7558 25.1458C19.7558 24.897 19.9306 24.6886 20.1861 24.6684C20.408 24.655 20.6232 24.6617 20.8451 24.6617C23.0169 24.6281 24.7988 23.1824 25.2628 21.0711C25.3031 20.95 25.3165 20.8223 25.3434 20.6676ZM13.0251 11.9399C12.9713 12.0407 12.9242 12.1214 12.8839 12.2021C12.4468 13.0224 12.0232 13.8428 11.5794 14.6564C11.2029 15.3624 10.9877 16.0953 10.9877 16.8887C10.9877 17.7427 10.9944 18.6034 10.981 19.4573C10.981 19.6321 11.0348 19.6859 11.2096 19.6859C12.7628 19.6792 14.3228 19.6792 15.8761 19.6859C16.0173 19.6859 16.0778 19.6456 16.1248 19.5044C16.4341 18.6034 17.2545 18.0116 18.1757 18.0116C19.0968 18.0116 19.9105 18.5966 20.2265 19.5044C20.2735 19.6456 20.3408 19.6792 20.4753 19.6792C22.0285 19.6725 23.5885 19.6725 25.1417 19.6792C25.3233 19.6792 25.3703 19.6187 25.3636 19.4439C25.3569 18.5966 25.3569 17.7494 25.3569 16.8955C25.3569 16.1222 25.1619 15.4027 24.8055 14.7236C24.4223 14.0041 24.039 13.278 23.6557 12.5585C23.5414 12.3433 23.4271 12.1349 23.3128 11.9197C22.4118 12.2828 21.6385 12.1483 20.9392 11.4961C20.5694 11.1532 20.018 11.1666 19.6213 11.4894C19.5003 11.5902 19.386 11.6978 19.2582 11.7852C18.4648 12.2963 17.51 12.2088 16.7972 11.5768C16.2929 11.133 15.7752 11.133 15.2843 11.5768C15.17 11.6844 15.0423 11.7785 14.9078 11.8525C14.3026 12.2223 13.684 12.2156 13.0251 11.9399ZM22.8556 11.0456C22.2975 9.98993 21.7528 8.94771 21.188 7.91221C21.1544 7.84497 21.0266 7.7979 20.9392 7.7979C19.0901 7.79118 17.2478 7.79118 15.3987 7.79118C15.2642 7.79118 15.1902 7.8248 15.123 7.95256C14.6859 8.78633 14.2421 9.62011 13.8051 10.4539C13.6975 10.6556 13.5899 10.8506 13.489 11.0456C13.8925 11.2675 14.2757 11.1935 14.6926 10.8371C15.5331 10.1177 16.5754 10.1311 17.4159 10.8371C17.5907 10.9851 17.8126 11.0927 18.0277 11.1465C18.3639 11.2271 18.6531 11.0859 18.9086 10.8573C19.4062 10.4001 19.9979 10.2185 20.6703 10.3463C21.0468 10.4203 21.3763 10.6018 21.6654 10.8573C22.0554 11.2002 22.4521 11.2608 22.8556 11.0456ZM18.1824 18.9799C17.5369 18.9799 16.9922 19.5245 16.9922 20.1633C16.9922 20.8223 17.5234 21.3468 18.1757 21.3468C18.8279 21.3468 19.3524 20.8156 19.3524 20.1566C19.3524 19.5178 18.8144 18.9799 18.1824 18.9799Z" fill="currentColor"/>
<path d="M18.1761 25.63C17.9072 25.63 17.6987 25.4215 17.6987 25.1526C17.6987 24.8836 17.9072 24.6819 18.1761 24.6752C18.4518 24.6752 18.6535 24.8769 18.6535 25.1526C18.6535 25.4215 18.4384 25.63 18.1761 25.63Z" fill="currentColor"/>
</svg>
