<svg width="36" height="26" viewBox="0 0 36 26" fill="none" xmlns="http://www.w3.org/2000/svg">
<rect width="36" height="26" fill="none"/>
<path d="M3.00801 3.65859C3.17628 3.33008 3.30448 2.96952 3.52883 2.68107C3.92946 2.18429 4.49835 2 5.12332 2C6.4534 2 7.78349 2 9.11357 2C16.1245 2 23.1355 2 30.1385 2C31.0278 2 31.733 2.3205 32.1336 3.14579C32.2538 3.40219 32.3339 3.69866 32.3339 3.9791C32.3499 5.50949 32.3419 7.03187 32.3419 8.56227C32.3419 8.94687 32.1256 9.20327 31.789 9.21128C31.4445 9.21929 31.1961 8.96289 31.1961 8.57028C31.1881 7.12802 31.1961 5.68577 31.1961 4.24351C31.1961 3.47431 30.8916 3.16983 30.1224 3.16983C21.8214 3.16983 13.5205 3.16983 5.21146 3.16983C4.44226 3.16983 4.13778 3.47431 4.13778 4.24351C4.13778 8.91482 4.13778 13.5781 4.13778 18.2494C4.13778 19.0186 4.44226 19.3231 5.21146 19.3231C13.5124 19.3231 21.8134 19.3231 30.1224 19.3231C30.8916 19.3231 31.1961 19.0106 31.1961 18.2494C31.1961 16.8072 31.1961 15.3649 31.1961 13.9227C31.1961 13.8265 31.1961 13.7384 31.2041 13.6422C31.2362 13.3137 31.4605 13.1054 31.781 13.1134C32.0935 13.1134 32.3339 13.3377 32.3419 13.6582C32.3499 15.3248 32.3659 16.9915 32.3339 18.6661C32.3179 19.6035 31.4605 20.4128 30.5311 20.4769C30.4189 20.4849 30.3067 20.4849 30.1945 20.4849C29.6577 20.4929 29.7378 20.4208 29.7218 20.9737C29.7138 21.2381 29.7298 21.5025 29.6817 21.7589C29.5295 22.464 28.9366 22.9528 28.1834 22.9768C27.4462 23.0009 26.7011 23.0089 25.9639 22.9768C25.0585 22.9368 24.4415 22.2717 24.4255 21.3663C24.4255 21.1419 24.4175 20.9176 24.4255 20.6932C24.4335 20.549 24.3694 20.4849 24.2252 20.4929C24.1691 20.5009 24.113 20.4929 24.0569 20.4929C19.8023 20.4929 15.5476 20.4929 11.293 20.4929C10.9324 20.4929 10.9324 20.4929 10.9324 20.8615C10.9244 21.158 10.9484 21.4705 10.8843 21.7589C10.7161 22.4881 10.1231 22.9608 9.36195 22.9848C8.64083 23.0009 7.9197 23.0089 7.19857 22.9848C6.27713 22.9528 5.65215 22.2958 5.62811 21.3743C5.62811 21.2301 5.62811 21.0939 5.62811 20.9496C5.6201 20.4368 5.69221 20.509 5.18742 20.4929C4.915 20.4849 4.63456 20.4689 4.38617 20.3888C3.72113 20.1724 3.28845 19.6997 3.07212 19.0346C3.05609 18.9786 3.02404 18.9145 3 18.8584C3.00801 13.7784 3.00801 8.7145 3.00801 3.65859ZM9.76258 20.4769C9.63438 20.4769 9.53823 20.4769 9.43406 20.4769C8.8171 20.4769 8.20014 20.4769 7.58317 20.4769C6.74185 20.4769 6.74185 20.4769 6.78192 21.3262C6.78993 21.6307 6.92615 21.791 7.22261 21.799C7.93572 21.815 8.64082 21.807 9.35394 21.799C9.57028 21.799 9.74656 21.6868 9.76258 21.4544C9.77861 21.1419 9.76258 20.8295 9.76258 20.4769ZM25.5954 20.4769C25.5954 20.7974 25.5873 21.0618 25.5954 21.3342C25.6034 21.6467 25.7316 21.791 26.036 21.799C26.7331 21.807 27.4382 21.807 28.1353 21.799C28.4318 21.791 28.576 21.6307 28.584 21.3342C28.592 21.1259 28.576 20.9256 28.592 20.7173C28.6001 20.533 28.5359 20.4689 28.3517 20.4769C27.951 20.4849 27.5504 20.4769 27.1498 20.4769C26.645 20.4769 26.1402 20.4769 25.5954 20.4769Z" fill="currentColor"/>
<path d="M12.3269 17.352C9.00967 17.3199 6.29343 14.5396 6.32548 11.2144C6.35753 7.88918 9.10583 5.21299 12.4471 5.25305C15.7642 5.2851 18.4484 8.04943 18.4084 11.3826C18.3763 14.6437 15.588 17.384 12.3269 17.352ZM17.2145 11.623C17.511 9.86026 16.2129 7.5847 14.4822 6.91966C14.4742 6.92767 14.4662 6.93569 14.4662 6.9437C14.4742 7.01581 14.4822 7.09594 14.4822 7.16805C14.5063 8.06545 14.5544 8.96286 14.1537 9.81219C13.9935 10.1567 14.2178 10.4852 14.5944 10.5173C15.1954 10.5654 15.7562 10.7176 16.261 11.0461C16.5735 11.2464 16.894 11.4307 17.2145 11.623ZM15.1232 15.3168C14.1617 14.8681 13.2723 14.3713 12.6554 13.4899C12.5192 13.2896 12.1025 13.3377 11.9583 13.554C11.5657 14.147 11.0449 14.5877 10.4199 14.9162C10.1555 15.0524 9.89106 15.1886 9.62664 15.3248C11.125 16.4386 13.4967 16.4946 15.1232 15.3168ZM7.53537 11.631C7.59947 11.583 7.65556 11.5429 7.71966 11.5028C8.48085 11.0221 9.23403 10.5413 10.1715 10.4612C10.6042 10.4292 10.7484 10.1327 10.5561 9.73206C10.3077 9.21926 10.1795 8.68242 10.1875 8.10552C10.1955 7.7129 10.1875 7.3283 10.1875 6.9437C8.59302 7.56868 7.24692 9.78815 7.53537 11.631ZM13.1121 9.25932C13.1361 9.21125 13.2002 9.1151 13.2082 9.01895C13.2563 8.46608 13.3204 7.9052 13.3284 7.35234C13.3284 6.83152 12.8958 6.41487 12.407 6.39885C11.8621 6.38282 11.4375 6.71935 11.3894 7.27221C11.3493 7.7129 11.3573 8.16962 11.3974 8.61031C11.4215 8.85068 11.5416 9.08305 11.5977 9.25131C12.1266 9.25932 12.5993 9.25932 13.1121 9.25932ZM10.2035 11.6471C10.2116 11.6471 10.1555 11.6471 10.0994 11.6551C9.49043 11.7192 9.00968 12.0797 8.50489 12.3762C8.01612 12.6566 7.87991 13.2576 8.15233 13.7463C8.40072 14.187 9.04173 14.3473 9.51447 14.0829C9.77888 13.9386 10.0513 13.8104 10.2917 13.6262C10.5641 13.4258 10.7965 13.1694 10.9888 12.9851C10.7003 12.5204 10.468 12.1118 10.2035 11.6471ZM13.7691 12.9932C13.7691 12.9932 13.8012 13.0493 13.8412 13.0973C14.2659 13.6342 14.8588 13.9146 15.4518 14.187C15.8684 14.3713 16.3652 14.139 16.6056 13.7303C16.8299 13.3537 16.7738 12.7688 16.4133 12.5284C15.9806 12.232 15.5078 11.9996 15.0431 11.7753C14.8668 11.6951 14.6505 11.7031 14.5303 11.6871C14.2659 12.1358 14.0335 12.5364 13.7691 12.9932ZM11.4375 11.2945C11.4375 11.8153 11.8461 12.232 12.3509 12.24C12.8717 12.248 13.3044 11.8233 13.3044 11.3025C13.3044 10.7897 12.8637 10.349 12.3589 10.357C11.8541 10.3651 11.4375 10.7897 11.4375 11.2945Z" fill="currentColor"/>
<path d="M24.7698 9.17923C23.8724 9.17923 22.975 9.17923 22.0696 9.17923C21.1561 9.17923 20.6193 8.64239 20.6193 7.72896C20.6193 7.37641 20.6113 7.01584 20.6193 6.66329C20.6353 5.87806 21.1882 5.30917 21.9734 5.30917C23.8563 5.30116 25.7393 5.30116 27.6222 5.30917C28.3995 5.30917 28.9603 5.88607 28.9764 6.66329C28.9844 7.03187 28.9764 7.39243 28.9764 7.76101C28.9683 8.62636 28.4235 9.17923 27.5501 9.17923C26.6207 9.18724 25.6912 9.17923 24.7698 9.17923ZM24.8098 8.02542C25.6992 8.02542 26.5886 8.01741 27.478 8.02542C27.7104 8.02542 27.8226 7.95331 27.8145 7.70492C27.8065 7.38442 27.8065 7.07193 27.8145 6.75143C27.8145 6.55913 27.7424 6.45496 27.5341 6.46298C25.7072 6.46298 23.8804 6.46298 22.0615 6.46298C21.8532 6.46298 21.7811 6.55913 21.7811 6.75143C21.7891 7.06392 21.7971 7.36839 21.7811 7.68088C21.7651 7.96132 21.8853 8.03343 22.1417 8.03343C23.0311 8.01741 23.9204 8.02542 24.8098 8.02542Z" fill="currentColor"/>
<path d="M24.8022 10.7497C25.98 10.7497 27.1578 10.7417 28.3357 10.7497C28.8245 10.7497 29.1129 11.1984 28.8966 11.591C28.7684 11.8314 28.544 11.9115 28.2876 11.9115C27.3341 11.9115 26.3806 11.9115 25.4271 11.9115C24.049 11.9115 22.6788 11.9115 21.3007 11.9115C20.8039 11.9115 20.5074 11.5429 20.6677 11.1263C20.7799 10.8458 20.9962 10.7417 21.2927 10.7497C22.4625 10.7497 23.6323 10.7417 24.8022 10.7497Z" fill="currentColor"/>
<path d="M24.794 14.6278C23.6162 14.6278 22.4383 14.6358 21.2605 14.6278C20.7637 14.6278 20.4833 14.1711 20.7156 13.7625C20.8438 13.5301 21.0682 13.466 21.3166 13.474C22.1419 13.474 22.9671 13.474 23.7844 13.474C25.2347 13.474 26.685 13.474 28.1352 13.474C28.2234 13.474 28.3035 13.474 28.3916 13.474C28.7442 13.498 28.9926 13.7464 28.9846 14.0669C28.9765 14.3794 28.7201 14.6278 28.3756 14.6278C27.1657 14.6278 25.9799 14.6198 24.794 14.6278Z" fill="currentColor"/>
<path d="M22.3982 17.352C22.0216 17.352 21.6531 17.36 21.2765 17.352C20.8758 17.344 20.6274 17.1036 20.6274 16.7671C20.6274 16.4225 20.8838 16.1982 21.2845 16.1982C22.0376 16.1982 22.7988 16.1982 23.552 16.1982C23.9206 16.1982 24.185 16.4386 24.185 16.7671C24.193 17.0956 23.9366 17.344 23.568 17.36C23.1834 17.36 22.7828 17.352 22.3982 17.352Z" fill="currentColor"/>
<path d="M27.2141 16.1902C27.5987 16.1902 27.9833 16.1822 28.3679 16.1902C28.7045 16.1982 28.9529 16.4226 28.9689 16.7271C28.9849 17.0396 28.7525 17.328 28.4 17.336C27.6067 17.352 26.8135 17.352 26.0122 17.336C25.6757 17.328 25.4434 17.0636 25.4514 16.7511C25.4594 16.4306 25.7078 16.1902 26.0603 16.1902C26.4449 16.1902 26.8295 16.1902 27.2141 16.1902Z" fill="currentColor"/>
<path d="M32.358 11.1103C32.35 11.4228 32.0936 11.6872 31.7891 11.6792C31.4766 11.6711 31.2202 11.4067 31.2202 11.1023C31.2202 10.7657 31.4766 10.5173 31.8051 10.5254C32.1256 10.5334 32.358 10.7898 32.358 11.1103Z" fill="currentColor"/>
</svg>
