<svg width="36" height="26" viewBox="0 0 36 26" fill="none" xmlns="http://www.w3.org/2000/svg">
<rect width="36" height="26" fill="none"/>
<path d="M9.84899 25.6438C9.58303 25.4968 9.48505 25.2729 9.50605 24.9719C9.52704 24.573 9.49205 24.1671 9.54804 23.7751C9.67402 22.9073 10.3949 22.2424 11.2697 22.1934C11.8156 22.1584 12.3615 22.1864 12.9354 22.1864C12.9354 21.7805 12.9354 21.4026 12.9354 20.9827C12.8514 20.9827 12.7674 20.9827 12.6835 20.9827C11.9976 20.9827 11.3117 20.9896 10.6188 20.9827C9.70901 20.9757 9.03014 20.3178 9.01614 19.4079C9.00214 18.4071 9.00914 17.4133 9.01614 16.4125C9.01614 16.0626 9.2191 15.8316 9.51305 15.8316C9.82099 15.8246 10.024 16.0556 10.024 16.4195C10.031 17.3573 10.024 18.3021 10.024 19.24C10.024 19.7859 10.2129 19.9818 10.7588 19.9818C15.5459 19.9818 20.333 19.9818 25.1271 19.9818C25.694 19.9818 25.876 19.7929 25.876 19.233C25.876 15.6496 25.932 12.0593 25.855 8.47597C25.799 5.52252 24.3503 3.31793 21.7678 1.8972C19.3252 0.553446 15.4829 0.602437 12.9564 2.66005C11.1367 4.13678 10.1219 6.04043 10.038 8.39899C9.99596 9.53278 10.031 10.6736 10.024 11.8144C10.024 12.1643 9.86998 12.3812 9.61103 12.4302C9.31708 12.4792 9.04413 12.2833 9.01614 11.9893C9.00214 11.8004 9.00914 11.6184 9.00914 11.4364C9.00914 10.4146 8.98115 9.38581 9.02314 8.37099C9.14212 5.71849 10.2479 3.54889 12.3125 1.8832C13.9152 0.602437 15.7559 0.0215446 17.7995 0.000548514C19.3532 -0.0134489 20.8299 0.238504 22.2017 0.980366C24.6792 2.31712 26.2049 4.36774 26.7438 7.13922C26.8488 7.68512 26.8908 8.24502 26.8908 8.79791C26.9048 12.2833 26.8978 15.7686 26.8978 19.261C26.8978 20.3458 26.2609 20.9827 25.1691 20.9827C24.4413 20.9827 23.7134 20.9827 22.9715 20.9827C22.9715 21.3816 22.9715 21.7595 22.9715 22.1724C23.3635 22.1724 23.7414 22.1584 24.1263 22.1794C24.4553 22.1934 24.8052 22.2004 25.1131 22.3054C25.897 22.5574 26.3799 23.2432 26.4009 24.0691C26.4079 24.37 26.3939 24.678 26.4079 24.9789C26.4219 25.2799 26.3309 25.5038 26.065 25.6508C20.655 25.6438 15.252 25.6438 9.84899 25.6438ZM10.4789 24.622C15.4829 24.622 20.424 24.622 25.3581 24.622C25.5261 23.7191 25.1411 23.1592 24.2243 23.1662C20.0461 23.1872 15.8609 23.1802 11.6826 23.1802C11.5917 23.1802 11.5007 23.1802 11.4097 23.1802C11.0388 23.1942 10.7378 23.3622 10.6188 23.6981C10.5209 23.9851 10.5209 24.3 10.4789 24.622ZM21.9357 20.9827C21.8168 20.9827 21.7258 20.9827 21.6348 20.9827C20.1301 20.9827 18.6254 20.9827 17.1206 20.9827C16.1618 20.9827 15.203 20.9896 14.2512 20.9757C14.0132 20.9687 13.9502 21.0526 13.9712 21.2696C13.9852 21.4656 13.9712 21.6615 13.9712 21.8575C13.9712 22.1724 13.9712 22.1724 14.2932 22.1724C16.7287 22.1724 19.1713 22.1724 21.6068 22.1724C21.6558 22.1724 21.7048 22.1724 21.7538 22.1724C21.8728 22.1794 21.9357 22.1304 21.9287 22.0045C21.9287 21.6755 21.9357 21.3466 21.9357 20.9827Z" fill="currentColor"/>
<path d="M17.9536 2.15608C21.6629 2.15608 24.6724 5.17252 24.6654 8.86784C24.6584 12.5562 21.6349 15.5656 17.9466 15.5586C14.2513 15.5586 11.2279 12.5282 11.2349 8.83284C11.2489 5.15153 14.2583 2.15608 17.9536 2.15608ZM17.9466 10.4775C18.8425 10.4775 19.5773 9.74967 19.5773 8.86084C19.5773 7.972 18.8425 7.23014 17.9536 7.23014C17.0718 7.23014 16.3299 7.972 16.3299 8.86084C16.3299 9.75667 17.0508 10.4775 17.9466 10.4775ZM13.2995 5.55745C13.8664 5.52946 14.4193 5.50846 14.9722 5.48047C15.1891 5.47347 15.3641 5.53645 15.5181 5.70442C15.784 5.99137 16.071 6.26432 16.3369 6.55127C16.4279 6.64225 16.4839 6.66325 16.6099 6.60026C16.8128 6.48828 17.0158 6.3903 17.2398 6.33431C17.4287 6.28532 17.4637 6.19433 17.4637 6.02636C17.4567 5.16552 17.4637 4.31168 17.4567 3.45084C17.4567 3.37386 17.4497 3.29687 17.4427 3.18489C15.686 3.37386 14.3353 4.18571 13.2995 5.55745ZM21.243 4.2417C21.264 4.7596 21.285 5.3055 21.313 5.8444C21.327 6.09635 21.243 6.29931 21.0541 6.47428C20.7811 6.72623 20.5291 6.99219 20.2632 7.24414C20.1582 7.34212 20.1582 7.41211 20.2212 7.53808C20.3262 7.73405 20.4242 7.93001 20.4802 8.14697C20.5222 8.32194 20.5991 8.36393 20.7671 8.35693C21.6419 8.34993 22.5168 8.35693 23.3916 8.34993C23.4616 8.34993 23.5316 8.33594 23.6016 8.32894C23.5456 6.72623 22.4678 4.96956 21.243 4.2417ZM22.6078 12.1502C22.0549 12.1712 21.509 12.1992 20.9561 12.2272C20.7321 12.2412 20.5501 12.1712 20.3892 12.0033C20.1582 11.7513 19.8923 11.5273 19.6613 11.2754C19.5073 11.1074 19.3814 11.0444 19.1714 11.1914C19.0384 11.2894 18.8635 11.3384 18.6955 11.3804C18.5205 11.4294 18.4505 11.5063 18.4505 11.7023C18.4645 12.5631 18.4575 13.417 18.4575 14.2778C18.4575 14.3548 18.4575 14.4318 18.4575 14.5368C20.2352 14.3338 21.593 13.515 22.6078 12.1502ZM14.6572 13.466C14.6362 12.9411 14.6152 12.3882 14.5873 11.8353C14.5733 11.5973 14.6642 11.4154 14.8392 11.2474C15.1122 10.9884 15.3711 10.7155 15.6441 10.4565C15.735 10.3726 15.749 10.3026 15.686 10.1836C15.5741 9.97363 15.4831 9.75667 15.4131 9.53271C15.3711 9.40674 15.3221 9.36474 15.1961 9.36474C14.2653 9.37174 13.3345 9.36474 12.4037 9.37174C12.3757 9.37174 12.3407 9.38574 12.3127 9.39274C12.3407 10.9465 13.4745 12.7871 14.6572 13.466ZM17.4567 14.5508C17.4567 14.3968 17.4567 14.3128 17.4567 14.2218C17.4567 13.48 17.4567 12.7311 17.4567 11.9893C17.4567 11.4923 17.4567 11.4923 16.9808 11.3034C16.9668 11.2964 16.9528 11.2894 16.9318 11.2824C16.7708 11.2194 16.5889 11.0724 16.4489 11.1074C16.2879 11.1494 16.19 11.3664 16.036 11.4714C15.6371 11.7513 15.5531 12.1362 15.5811 12.5981C15.6371 13.41 16.015 13.9909 16.7359 14.3408C16.9528 14.4458 17.1908 14.4738 17.4567 14.5508ZM18.4575 3.19889C18.4575 3.31087 18.4575 3.39485 18.4575 3.48584C18.4575 4.2277 18.4575 4.97656 18.4575 5.71842C18.4575 6.22233 18.4925 6.15934 18.9124 6.41829C19.3814 6.70524 19.6053 6.49528 19.9203 6.19433C20.2282 5.90039 20.3472 5.60644 20.3192 5.19352C20.2912 4.7386 20.1932 4.31868 19.9063 3.96175C19.5493 3.49983 19.0874 3.22688 18.4575 3.19889ZM12.2917 8.34993C13.3065 8.34993 14.2793 8.34993 15.2521 8.34293C15.3011 8.34293 15.3711 8.28694 15.3921 8.24495C15.5111 7.95801 15.6091 7.67106 15.756 7.27913C15.5181 7.06917 15.2381 6.82422 14.9512 6.57226C14.9092 6.53727 14.8532 6.50228 14.8042 6.50228C14.2793 6.48128 13.7544 6.46728 13.2785 6.75423C12.6836 7.10416 12.3547 7.62207 12.2917 8.34993ZM23.6086 9.40674C23.5736 9.38574 23.5596 9.37174 23.5456 9.37174C22.5868 9.37174 21.6349 9.36474 20.6761 9.37174C20.6201 9.37174 20.5361 9.42773 20.5152 9.47672C20.3962 9.76367 20.2912 10.0506 20.1652 10.3936C20.2982 10.5195 20.4942 10.6595 20.6341 10.8345C20.8861 11.1494 21.194 11.2474 21.593 11.2264C22.1319 11.1984 22.6078 11.0584 23.0067 10.6945C23.3706 10.3376 23.5806 9.91064 23.6086 9.40674Z" fill="currentColor"/>
<path d="M23.1883 15.6706C24.1051 15.6706 24.833 16.4055 24.826 17.3293C24.819 18.2321 24.0771 18.96 23.1743 18.953C22.2715 18.946 21.5366 18.2111 21.5366 17.3153C21.5366 16.4055 22.2715 15.6706 23.1883 15.6706ZM23.1673 17.9452C23.5243 17.9522 23.8042 17.6722 23.8042 17.3153C23.8042 16.9654 23.5382 16.6924 23.1883 16.6854C22.8314 16.6784 22.5444 16.9584 22.5444 17.3153C22.5514 17.6722 22.8174 17.9382 23.1673 17.9452Z" fill="currentColor"/>
<path d="M12.7323 16.8044C12.9982 16.8044 13.2712 16.7974 13.5371 16.8044C13.8591 16.8114 14.083 17.0214 14.083 17.3083C14.083 17.5953 13.8591 17.8122 13.5371 17.8192C12.9982 17.8262 12.4593 17.8262 11.9204 17.8192C11.5915 17.8122 11.3745 17.6023 11.3745 17.3153C11.3745 17.0284 11.5915 16.8184 11.9204 16.8044C11.9344 16.8044 11.9554 16.8044 11.9694 16.8044C12.2284 16.8044 12.4803 16.8044 12.7323 16.8044Z" fill="currentColor"/>
<path d="M9.52002 14.5718C9.24007 14.5718 9.01611 14.3548 9.01611 14.0819C9.01611 13.8089 9.23307 13.578 9.49902 13.571C9.77897 13.564 10.0169 13.7949 10.0169 14.0749C10.0239 14.3548 9.79997 14.5718 9.52002 14.5718Z" fill="currentColor"/>
</svg>
