<svg width="36" height="26" viewBox="0 0 36 26" fill="none" xmlns="http://www.w3.org/2000/svg">
<rect width="36" height="26" fill="none"/>
<path d="M3.0248 5.04878C3.10741 4.82572 3.18175 4.59441 3.28915 4.38788C3.75177 3.50393 4.48702 3.01652 5.48663 3.01652C8.88198 3 12.2773 3.00826 15.6727 3.00826C16.094 3.00826 16.3584 3.23131 16.3584 3.58654C16.3666 3.9583 16.094 4.18961 15.6644 4.18961C12.3517 4.18961 9.03068 4.18961 5.71794 4.18961C5.14792 4.18961 4.67703 4.3631 4.40441 4.88355C4.29702 5.09008 4.23092 5.34618 4.23092 5.57749C4.2144 7.61801 4.22267 9.65026 4.22267 11.6908C4.22267 12.5086 4.7679 13.0456 5.58576 13.0704C5.65185 13.0704 5.71794 13.0704 5.79229 13.0704C14.07 13.0704 22.356 13.0704 30.6337 13.0621C30.9146 13.0621 31.2202 13.0208 31.4763 12.9052C31.939 12.6986 32.1868 12.2938 32.1868 11.7899C32.1951 9.68331 32.2033 7.5767 32.1868 5.47836C32.1785 4.80094 31.6911 4.29701 31.0137 4.20613C30.8815 4.18961 30.7411 4.18961 30.6089 4.18961C27.4697 4.18961 24.3222 4.18961 21.1829 4.18961C21.0755 4.18961 20.9681 4.19787 20.8607 4.18135C20.5716 4.14005 20.3568 3.88395 20.3568 3.59481C20.3568 3.30566 20.5798 3.04957 20.8607 3.00826C20.9268 3 20.9929 3 21.0672 3C24.3222 3 27.5853 3 30.8402 3C32.1372 3 33.1203 3.82612 33.3599 5.09834C33.3847 5.23878 33.3847 5.38748 33.3847 5.53619C33.3847 7.60148 33.3847 9.66678 33.3847 11.7321C33.3847 13.1695 32.3025 14.2765 30.8485 14.2848C29.0476 14.3013 27.2383 14.2848 25.4374 14.2848C18.878 14.2848 12.3269 14.2683 5.76751 14.2931C4.35484 14.3013 3.27262 13.4339 3.04131 12.2443C3.04131 12.2278 3.01652 12.2195 3 12.203C3.02478 9.82375 3.0248 7.43626 3.0248 5.04878Z" fill="currentColor"/>
<path d="M10.4266 11.6412C9.35266 11.6412 8.2787 11.6412 7.19648 11.6412C6.33732 11.6412 5.84991 11.1538 5.84165 10.2864C5.83338 9.18763 5.83338 8.09715 5.84165 6.99841C5.84165 6.12272 6.33732 5.62705 7.21301 5.62705C9.35266 5.62705 11.5006 5.62705 13.6402 5.62705C14.5159 5.62705 15.0033 6.12272 15.0033 6.99841C15.0033 8.10541 15.0033 9.21241 15.0033 10.3111C15.0033 11.129 14.4994 11.6329 13.6815 11.6329C12.5993 11.6495 11.5088 11.6412 10.4266 11.6412ZM13.7641 8.01454C13.7641 7.60974 13.7641 7.23799 13.7641 6.86623C11.5254 6.86623 9.31135 6.86623 7.08082 6.86623C7.08082 7.25451 7.08082 7.62626 7.08082 8.01454C9.31135 8.01454 11.5336 8.01454 13.7641 8.01454ZM13.7724 10.4103C13.7724 10.0055 13.7724 9.63373 13.7724 9.26198C11.5254 9.26198 9.31135 9.26198 7.08909 9.26198C7.08909 9.65851 7.08909 10.0303 7.08909 10.4103C9.31962 10.4103 11.5336 10.4103 13.7724 10.4103Z" fill="currentColor"/>
<path d="M26.1559 11.6412C25.0902 11.6412 24.0245 11.6412 22.9588 11.6412C22.0997 11.6412 21.604 11.1455 21.604 10.2864C21.604 9.17937 21.604 8.07237 21.604 6.97363C21.604 6.13925 22.1079 5.63531 22.9423 5.62705C25.082 5.62705 27.2299 5.62705 29.3695 5.62705C30.2039 5.62705 30.7078 6.13098 30.7161 6.96536C30.7244 8.08063 30.7244 9.19589 30.7161 10.3111C30.7078 11.1373 30.2039 11.6329 29.386 11.6412C28.3038 11.6495 27.2299 11.6412 26.1559 11.6412ZM22.8349 8.00628C25.0572 8.00628 27.2712 8.00628 29.5017 8.00628C29.5017 7.70887 29.4852 7.43625 29.51 7.17189C29.5265 6.92406 29.4521 6.84145 29.1878 6.84145C27.1721 6.84971 25.1563 6.84971 23.1489 6.84971C23.0497 6.84971 22.9423 6.85797 22.8432 6.86623C22.8349 7.26277 22.8349 7.62626 22.8349 8.00628ZM22.8349 10.402C25.0572 10.402 27.2547 10.402 29.4769 10.402C29.4769 10.0137 29.4769 9.64199 29.4769 9.25372C27.2629 9.25372 25.0572 9.25372 22.8349 9.25372C22.8349 9.64199 22.8349 10.0137 22.8349 10.402Z" fill="currentColor"/>
<path d="M20.1418 8.65067C20.1418 9.0472 20.1501 9.44374 20.1418 9.84028C20.1088 10.8729 19.291 11.6743 18.2913 11.6577C17.2752 11.6412 16.4739 10.8234 16.4739 9.77419C16.4739 9.01416 16.4656 8.26239 16.4739 7.50236C16.4821 6.45319 17.2835 5.63533 18.2996 5.62707C19.3075 5.61881 20.1088 6.41188 20.1418 7.44453C20.1501 7.84933 20.1418 8.25413 20.1418 8.65067ZM18.9275 8.65893C18.9275 8.27065 18.9357 7.88238 18.9275 7.4941C18.9192 7.10582 18.6879 6.84973 18.3327 6.84973C17.9692 6.84147 17.6965 7.0893 17.6965 7.48584C17.6883 8.26239 17.6883 9.03894 17.6965 9.80723C17.7048 10.179 17.9774 10.4351 18.3244 10.4351C18.6714 10.4268 18.9192 10.179 18.9275 9.79071C18.9275 9.41896 18.9275 9.03894 18.9275 8.65893Z" fill="currentColor"/>
<path d="M26.8833 21.315C26.9081 20.7863 27.0898 20.3154 27.4368 19.9106C27.9077 19.3654 27.8994 18.8863 27.4285 18.3328C26.7429 17.5232 26.7016 16.3914 27.3294 15.5735C27.5938 15.2265 27.9325 15.1522 28.2299 15.3752C28.519 15.5983 28.5521 15.9287 28.3125 16.2757C27.9986 16.7301 28.0151 17.1514 28.3703 17.5727C29.2047 18.5723 29.1964 19.7041 28.3703 20.712C28.2216 20.8937 28.1473 21.1581 28.106 21.3894C28.0316 21.7777 27.8086 22.009 27.4533 21.9925C27.1064 21.9759 26.8833 21.7033 26.8833 21.315Z" fill="currentColor"/>
<path d="M7.64279 21.3233C7.66757 20.8194 7.82453 20.3733 8.14672 19.985C8.70022 19.3241 8.70848 18.9276 8.15498 18.275C7.47756 17.4819 7.50234 16.1436 8.20454 15.4414C8.37803 15.2679 8.56804 15.1935 8.80762 15.2679C9.04719 15.3422 9.20415 15.5074 9.22068 15.7388C9.22894 15.8957 9.17936 16.0857 9.09675 16.2262C8.75804 16.7797 8.77456 17.1184 9.18762 17.6223C9.94765 18.5393 9.93939 19.7041 9.19588 20.6294C9.0224 20.8442 8.92327 21.1333 8.86544 21.4059C8.78283 21.7777 8.58455 21.9925 8.22932 21.9842C7.87409 21.976 7.63452 21.7033 7.64279 21.3233Z" fill="currentColor"/>
<path d="M23.678 21.2572C23.7193 20.8442 23.8101 20.3815 24.1488 20.0346C24.6858 19.4811 24.7023 18.845 24.1571 18.2419C23.4962 17.5066 23.5375 16.2592 24.1736 15.5074C24.4132 15.2266 24.7354 15.1687 24.9997 15.3587C25.2806 15.557 25.3385 15.8874 25.1485 16.2096C24.7602 16.8623 24.785 17.1266 25.2806 17.7132C25.958 18.5145 25.9581 19.795 25.2641 20.5798C25.0411 20.8276 24.9089 21.1003 24.8676 21.4307C24.818 21.8355 24.5702 22.0338 24.2067 22.0007C23.8845 21.9594 23.6697 21.6868 23.678 21.2572Z" fill="currentColor"/>
<path d="M10.8645 21.249C10.8893 20.8442 11.0215 20.4228 11.3023 20.0593C11.9385 19.2167 11.9385 19.035 11.3106 18.2088C10.7241 17.4323 10.7241 16.3335 11.3189 15.557C11.575 15.2265 11.9137 15.1522 12.2028 15.367C12.5002 15.59 12.5333 15.9122 12.3019 16.2592C11.988 16.7136 12.0128 17.1679 12.368 17.581C13.1776 18.5228 13.1694 19.7206 12.3763 20.6789C12.2193 20.8772 12.1367 21.1498 12.0789 21.4059C11.988 21.8025 11.7815 22.0172 11.418 21.9842C11.0628 21.9677 10.8562 21.6951 10.8645 21.249Z" fill="currentColor"/>
<path d="M18.3824 4.18962C18.0354 4.19788 17.7793 3.93352 17.7793 3.59481C17.7793 3.26437 18.0354 3.01653 18.3658 3.00827C18.6963 3.00827 18.9606 3.25611 18.9772 3.57829C18.9854 3.917 18.7211 4.18962 18.3824 4.18962Z" fill="currentColor"/>
</svg>
