<svg width="22" height="22" viewBox="0 0 22 22" fill="none" xmlns="http://www.w3.org/2000/svg">
<path d="M8.89808 17.5276C8.81315 17.613 8.71217 17.6808 8.60095 17.7271C8.48972 17.7733 8.37046 17.7971 8.25 17.7971C8.12954 17.7971 8.01027 17.7733 7.89905 17.7271C7.78783 17.6808 7.68685 17.613 7.60192 17.5276L2.42642 12.3512C2.16864 12.0933 2.02383 11.7437 2.02383 11.3791C2.02383 11.0145 2.16864 10.6648 2.42642 10.4069L3.0745 9.75884C3.33235 9.50107 3.68202 9.35626 4.04662 9.35626C4.41122 9.35626 4.7609 9.50107 5.01875 9.75884L8.25 12.9901L16.9812 4.25884C17.2391 4.00107 17.5888 3.85626 17.9534 3.85626C18.318 3.85626 18.6676 4.00107 18.9255 4.25884L19.5736 4.90693C19.8314 5.16478 19.9762 5.51445 19.9762 5.87905C19.9762 6.24365 19.8314 6.59333 19.5736 6.85118L8.89808 17.5276Z" fill="#ffffff"/>
</svg>
