<svg width="21" height="22" viewBox="0 0 21 22" fill="none" xmlns="http://www.w3.org/2000/svg">
<g clip-path="url(#clip0_201_14136)">
<path fill-rule="evenodd" clip-rule="evenodd" d="M18.7294 14.5044C18.7294 11.8444 17.1894 8.57625 16.1525 6.6775L15.2294 5.11562C15.3158 5.71572 15.2816 6.32705 15.1287 6.91375C14.9281 7.42855 14.6209 7.89519 14.2275 8.28313C14.1827 6.92899 13.7829 5.61039 13.0681 4.45938C12.9325 4.25813 12.5869 3.70994 12.2019 3.22125C11.4424 2.25343 10.5036 1.44092 9.43687 0.828125C9.81024 1.60023 10.0344 2.43593 10.0975 3.29125C10.0669 4.2975 9.74749 4.90125 8.23812 6.87C6.72874 8.83875 7.10062 11.7744 7.10062 11.7744C6.98005 11.3642 6.81577 10.9682 6.61062 10.5931C6.21687 9.8275 4.61125 8.92625 4.51062 8.87375C4.55437 8.98312 5.27625 10.7812 4.29187 12.0019C3.04062 13.5638 2.03875 14.7275 2.31437 17.0638C2.66437 20.0344 6.04625 20.8656 7.59937 21.0888H7.60374C8.07187 21.1588 8.36937 21.1719 8.36937 21.1719C7.34693 20.8219 6.76418 19.5356 6.68368 18.8282C6.62114 18.4252 6.64663 18.0134 6.75841 17.6212C6.87019 17.2291 7.06559 16.8657 7.33118 16.5563C7.53943 16.271 8.30899 15.5063 8.56799 15.2438C9.24712 14.6639 9.72018 13.8797 9.91637 13.0086C10.022 12.3995 10.041 11.7785 9.97281 11.1641C10.6928 11.6209 11.3029 12.2313 11.7591 12.9517C12.1149 13.5162 12.3124 14.1659 12.3309 14.8329C12.5247 14.641 12.6759 14.4106 12.775 14.1566C12.8503 13.8657 12.8665 13.5626 12.8227 13.2654C12.8227 13.2654 14.5972 15.7154 14.5473 17.8924C14.4847 20.6206 12.7973 21.1706 12.7947 21.1736C12.8126 21.1693 18.7294 20.4316 18.7294 14.5044Z" fill="currentColor"/>
</g>
<defs>
<clipPath id="clip0_201_14136">
<rect width="21" height="21" fill="white" transform="translate(0 0.5)"/>
</clipPath>
</defs>
</svg>
