<svg width="25" height="25" viewBox="0 0 25 25" fill="none" xmlns="http://www.w3.org/2000/svg">
<path fill-rule="evenodd" clip-rule="evenodd" d="M10.2026 0.153428C5.89854 0.936209 2.22713 4.08142 0.740899 8.25927C-0.892248 12.8504 0.21651 17.811 3.65246 21.2859C9.69094 27.3925 19.8619 25.7376 23.7305 18.019C24.8506 15.784 25.2638 12.925 24.8323 10.3957C23.9453 5.19673 19.8654 1.04568 14.7664 0.154458C13.5908 -0.0510847 11.3297 -0.0515427 10.2026 0.153428ZM13.675 1.48116C18.353 2.004 22.0647 5.28456 23.2556 9.94861C23.5794 11.2169 23.5572 13.8819 23.2118 15.1999C22.8952 16.4086 22.1279 18.0289 21.4197 18.9841L20.874 19.7203L20.5625 18.8696C19.7888 16.7571 18.3488 15.118 16.3922 14.1226L15.5535 13.6959L16.1738 13.0888C16.9333 12.3456 17.543 11.1275 17.6892 10.0606C18.0022 7.77844 16.7715 5.5374 14.653 4.53155C13.9132 4.18035 13.814 4.16341 12.5006 4.16341C11.1441 4.16341 11.1111 4.1697 10.2718 4.58537C6.91956 6.24598 6.24208 10.5499 8.92126 13.1655L9.4741 13.7052L8.64936 14.1252C6.67633 15.1298 5.20815 16.7811 4.46064 18.8361L4.13903 19.7203L3.5934 18.9841C1.12362 15.6524 0.80442 10.8799 2.8059 7.20888C4.68787 3.7569 8.18963 1.60689 12.3111 1.37283C12.455 1.36459 13.0687 1.41337 13.675 1.48116ZM13.8775 5.79939C14.2765 5.93485 14.6585 6.20086 15.1444 6.68157C15.9906 7.51862 16.2767 8.22194 16.2629 9.4308C16.2467 10.8612 15.3879 12.174 14.0666 12.7882C13.1467 13.2159 11.8664 13.2159 10.9465 12.7882C8.61782 11.7056 8.00044 8.69096 9.72098 6.80409C10.8328 5.5848 12.2419 5.24414 13.8775 5.79939ZM14.6208 14.9766C16.7844 15.6499 18.6686 17.5522 19.3138 19.7149C19.4418 20.1439 19.5305 20.6288 19.5111 20.7925C19.4396 21.3921 17.1098 22.6942 15.2151 23.1935C14.2987 23.435 13.8381 23.4867 12.5637 23.4918C10.1693 23.5013 8.43389 22.9882 6.42761 21.6774L5.45126 21.0396L5.52004 20.5368C5.89248 17.813 8.40555 15.2667 11.2214 14.7602C12.095 14.6029 13.7612 14.7091 14.6208 14.9766Z" fill="currentColor"/>
</svg>
