<svg width="29" height="25" viewBox="0 0 29 25" fill="none" xmlns="http://www.w3.org/2000/svg">
<g clip-path="url(#clip0_302_1273)">
<path fill-rule="evenodd" clip-rule="evenodd" d="M1.15245 0.0403339C0.911548 0.0983291 0.604918 0.438121 0.555398 0.70201C0.493865 1.02994 0.644417 1.37238 0.925476 1.54379C1.13447 1.6712 1.33137 1.68218 3.41352 1.6824C5.5029 1.6827 5.67747 1.6925 5.71321 1.81166C5.73443 1.88255 6.40178 4.87538 7.19618 8.46231C7.99065 12.0492 8.65674 15.0398 8.67657 15.1079C8.70184 15.195 8.63449 15.2688 8.45004 15.3564C8.06964 15.5369 7.5594 16.1412 7.37694 16.6272C7.25101 16.9628 7.22492 17.166 7.24717 17.6369C7.28196 18.37 7.47702 18.8158 7.97532 19.3012C8.48232 19.795 8.96839 19.9647 10.0161 20.0137L10.8473 20.0527L10.4436 20.2167C9.61171 20.5548 9.11157 21.1594 8.92822 22.0487C8.58342 23.7218 10.0987 25.2686 11.7808 24.9606C13.1586 24.7084 14.0661 23.3924 13.7892 22.0487C13.6048 21.1542 13.1089 20.5582 12.2576 20.2081L11.8377 20.0353H17.254H22.6704L22.2592 20.2045C21.4685 20.5298 20.9736 21.0723 20.7424 21.8674C20.2503 23.5602 21.7584 25.2467 23.5121 24.9646C24.6011 24.7895 25.3782 24.025 25.576 22.9341C25.7201 22.1397 25.4768 21.3619 24.9004 20.7742C24.6122 20.4803 24.0066 20.1256 23.7389 20.0939C23.6781 20.0867 23.9676 20.0616 24.3823 20.0379C25.1111 19.9964 25.1443 19.987 25.3771 19.7541C25.5772 19.5541 25.618 19.4575 25.618 19.1844C25.618 18.9114 25.5772 18.8148 25.3771 18.6147L25.1362 18.3738L17.2711 18.337C11.0712 18.3079 9.37096 18.2802 9.24082 18.2058C9.05033 18.097 8.85321 17.7514 8.85321 17.5264C8.85321 17.3337 9.02343 16.9971 9.19123 16.8578C9.2986 16.7687 10.5164 16.747 17.1765 16.7158C24.5826 16.6811 25.0467 16.6712 25.2373 16.5463C25.3486 16.4735 25.4876 16.3077 25.5463 16.1779C25.605 16.0481 26.4026 13.3109 27.3189 10.0952C28.6139 5.5501 28.9745 4.19337 28.9386 4.00162C28.9113 3.85637 28.8001 3.67738 28.668 3.56625L28.4439 3.3776H18.1309H7.81784L7.75557 3.21179C7.7213 3.12064 7.57178 2.48225 7.42322 1.79323C7.27149 1.08963 7.09463 0.459712 7.01984 0.356249C6.77643 0.0197003 6.56287 -0.00417564 3.84218 0.000466922C2.44389 0.00289874 1.23351 0.0208793 1.15245 0.0403339ZM26.9813 5.10161C26.9813 5.17788 24.4586 14.0935 24.2111 14.8919C24.1734 15.0135 23.7791 15.0209 17.2903 15.0209C13.5058 15.0209 10.3923 14.9932 10.3715 14.9594C10.3197 14.8757 8.18998 5.26749 8.18998 5.1179C8.18998 5.00891 8.98386 4.99881 17.5856 4.99881C25.5742 4.99881 26.9813 5.01421 26.9813 5.10161ZM11.617 21.7268C11.6714 21.7268 11.8179 21.8288 11.9426 21.9535C12.2585 22.2694 12.2633 22.7247 11.9543 23.0705C11.764 23.2834 11.6954 23.3111 11.3587 23.3111C11.022 23.3111 10.9534 23.2834 10.7631 23.0705C10.5203 22.7986 10.4792 22.4422 10.6524 22.1074C10.7834 21.854 11.2051 21.6279 11.42 21.6958C11.474 21.7129 11.5626 21.7268 11.617 21.7268ZM23.6343 21.848C23.9669 22.0659 24.0523 22.5693 23.8211 22.9486C23.3967 23.6445 22.3387 23.3324 22.3387 22.5113C22.3387 22.341 22.3928 22.1246 22.4587 22.0304C22.7082 21.6743 23.2427 21.5914 23.6343 21.848Z" fill="currentColor"/>
</g>
<defs>
<clipPath id="clip0_302_1273">
<rect width="28.3992" height="25" fill="white" transform="translate(0.541748)"/>
</clipPath>
</defs>
</svg>
