<svg width="30" height="25" viewBox="0 0 30 25" fill="none" xmlns="http://www.w3.org/2000/svg">
<path fill-rule="evenodd" clip-rule="evenodd" d="M7.45598 0.173637C3.889 0.938123 1.20058 4.05507 0.960921 7.7042C0.851787 9.36523 1.18972 10.8343 2.09964 12.6546C3.91324 16.2827 7.93222 20.3393 13.2086 23.8678C14.5928 24.7935 14.979 25 15.3257 25C15.588 25 17.5522 23.7491 19.1314 22.5761C25.1545 18.1025 28.7703 13.5165 29.4524 9.48533C29.7397 7.78756 29.3205 5.64141 28.3898 4.04531C27.5707 2.64039 25.991 1.26618 24.4508 0.618399C21.6133 -0.574834 18.1186 -0.00536416 15.8696 2.01674C15.5647 2.29083 15.2809 2.51513 15.2391 2.51513C15.1973 2.51513 14.8838 2.26495 14.5423 1.95926C13.7307 1.2324 11.9977 0.380279 10.8824 0.159708C9.83641 -0.0472628 8.46056 -0.0416689 7.45598 0.173637ZM10.5214 1.91232C11.858 2.193 12.803 2.739 13.9059 3.86796C15.2092 5.2018 15.2491 5.2018 16.5622 3.86828C17.3302 3.08844 17.7183 2.78802 18.3637 2.47389C20.2846 1.53896 22.2102 1.53479 24.1612 2.46139C25.169 2.93993 26.4739 4.20424 27.0032 5.21474C27.7593 6.65816 27.9355 8.48646 27.4778 10.1381C26.6519 13.1181 23.6254 16.7923 19.0695 20.3457C17.9017 21.2565 15.3744 23.0257 15.241 23.0257C15.1133 23.0257 13.1441 21.6655 11.8661 20.6946C5.2892 15.6984 2.09405 10.8771 2.83473 7.06695C3.0926 5.74023 3.65132 4.70373 4.64339 3.71166C6.26329 2.09176 8.3433 1.45506 10.5214 1.91232Z" fill="currentColor"/>
</svg>
