<svg width="23" height="20" viewBox="0 0 23 20" fill="none" xmlns="http://www.w3.org/2000/svg">
<path d="M2.38471 11.8471C2.38471 11.8191 2.40736 11.7965 2.4353 11.7965H6.68236C6.7103 11.7965 6.73294 11.8191 6.73294 11.8471V19.2235C6.73294 19.2515 6.7103 19.2741 6.68236 19.2741H2.4353C2.40736 19.2741 2.38471 19.2515 2.38471 19.2235V11.8471ZM9.09059 5.58824C9.09059 5.5603 9.11324 5.53765 9.14118 5.53765H13.3882C13.4162 5.53765 13.4388 5.5603 13.4388 5.58824V19.2235C13.4388 19.2515 13.4162 19.2741 13.3882 19.2741H9.14118C9.11324 19.2741 9.09059 19.2515 9.09059 19.2235V5.58824ZM15.7965 0.670588C15.7965 0.642648 15.8191 0.62 15.8471 0.62H20.0941C20.1221 0.62 20.1447 0.642651 20.1447 0.670588V19.2235C20.1447 19.2515 20.1221 19.2741 20.0941 19.2741H15.8471C15.8191 19.2741 15.7965 19.2515 15.7965 19.2235V0.670588Z" stroke="#0265c2" stroke-width="1.24"/>
</svg>
