<svg width="25" height="25" viewBox="0 0 25 25" fill="none" xmlns="http://www.w3.org/2000/svg">
<path d="M24.8411 12.0137C24.6177 11.7082 19.2963 4.53296 12.4998 4.53296C5.70341 4.53296 0.381733 11.7082 0.158638 12.0134C0.0555513 12.1547 0 12.325 0 12.4998C0 12.6747 0.0555513 12.845 0.158638 12.9862C0.381733 13.2917 5.70341 20.467 12.4998 20.467C19.2963 20.467 24.6177 13.2917 24.8411 12.9865C24.9443 12.8453 24.9999 12.675 24.9999 12.5001C24.9999 12.3252 24.9443 12.1549 24.8411 12.0137ZM12.4998 18.8187C7.49355 18.8187 3.15756 14.0563 1.87402 12.4994C3.1559 10.9412 7.48281 6.1813 12.4998 6.1813C17.5059 6.1813 21.8416 10.9428 23.1257 12.5005C21.8438 14.0587 17.5169 18.8187 12.4998 18.8187Z" fill="currentColor"/>
<path d="M12.4999 7.55493C9.77322 7.55493 7.55481 9.77334 7.55481 12.5C7.55481 15.2267 9.77322 17.4451 12.4999 17.4451C15.2265 17.4451 17.4449 15.2267 17.4449 12.5C17.4449 9.77334 15.2265 7.55493 12.4999 7.55493ZM12.4999 15.7967C10.682 15.7967 9.2032 14.3178 9.2032 12.5C9.2032 10.6822 10.6821 9.20332 12.4999 9.20332C14.3177 9.20332 15.7966 10.6822 15.7966 12.5C15.7966 14.3178 14.3177 15.7967 12.4999 15.7967Z" fill="currentColor"/>
</svg>
