<svg width="32" height="32" fill="none" xmlns="http://www.w3.org/2000/svg"><path d="M30.529 16.001l1.404-3.662a1.001 1.001 0 00-.304-1.136l-3.044-2.467-.616-3.874a1 1 0 00-.832-.83l-3.874-.616L20.797.37a1.001 1.001 0 00-1.134-.304L16 1.472 12.338.068a.997.997 0 00-1.134.304L8.736 3.418l-3.874.616a1.002 1.002 0 00-.83.83l-.615 3.874L.37 11.205a1 1 0 00-.304 1.134l1.404 3.662-1.404 3.662a.998.998 0 00.304 1.134l3.046 2.466.615 3.873a1 1 0 00.83.832l3.874.616 2.468 3.044a.995.995 0 001.136.304L16 30.53l3.661 1.404a1.004 1.004 0 001.136-.306l2.466-3.044 3.874-.616a1.002 1.002 0 00.832-.832l.616-3.873 3.044-2.466a.999.999 0 00.304-1.134L30.529 16z" fill="currentColor"/><path d="M13 14.001c-1.654 0-3-1.346-3-3 0-1.653 1.346-3 3-3s3 1.347 3 3c0 1.654-1.346 3-3 3zm0-4a1 1 0 100 2.001 1 1 0 000-2zm6 14c-1.654 0-3-1.346-3-3s1.346-3 3-3c1.653 0 3 1.346 3 3s-1.347 3-3 3zm0-4c-.55 0-1 .45-1 1s.45 1 1 1 1-.45 1-1-.45-1-1-1zm-8 4a1 1 0 01-.812-1.582l10-14a1 1 0 111.627 1.163l-10 13.999c-.197.274-.503.42-.815.42z" fill="#fff"/></svg>