<svg width="36" height="26" fill="none" xmlns="http://www.w3.org/2000/svg"><path d="M0 0h36v26H0z"/><path d="M9.849 25.644c-.266-.147-.364-.371-.343-.672.021-.399-.014-.805.042-1.197a1.85 1.85 0 011.722-1.582c.546-.035 1.091-.007 1.665-.007v-1.203h-.252c-.685 0-1.371.007-2.064 0-.91-.007-1.589-.665-1.603-1.575-.014-1-.007-1.995 0-2.995 0-.35.203-.581.497-.581.308-.007.511.224.511.587.007.938 0 1.883 0 2.821 0 .546.189.742.735.742h14.368c.567 0 .749-.19.749-.749 0-3.583.056-7.174-.021-10.757-.056-2.953-1.505-5.158-4.087-6.579-2.443-1.344-6.285-1.295-8.812.763-1.82 1.477-2.834 3.38-2.918 5.739-.042 1.134-.007 2.275-.014 3.415 0 .35-.154.567-.413.616a.503.503 0 01-.595-.44c-.014-.19-.007-.372-.007-.554 0-1.021-.028-2.05.014-3.065.12-2.653 1.225-4.822 3.29-6.488C13.915.603 15.755.022 17.799.001c1.554-.014 3.03.238 4.403.98 2.477 1.336 4.003 3.387 4.542 6.158.105.546.147 1.106.147 1.659.014 3.485.007 6.97.007 10.463 0 1.085-.637 1.722-1.729 1.722h-2.198v1.19c.392 0 .77-.015 1.155.006.33.014.68.021.987.126.784.252 1.267.938 1.288 1.764.007.301-.007.609.007.91.014.3-.077.525-.343.672-5.41-.007-10.813-.007-16.216-.007zm.63-1.022h14.88c.167-.903-.218-1.463-1.135-1.456-4.178.021-8.363.014-12.541.014h-.273c-.371.014-.672.182-.791.518-.098.287-.098.602-.14.924zm11.457-3.64H17.12c-.96 0-1.918.008-2.87-.006-.238-.007-.3.077-.28.294.014.196 0 .392 0 .588 0 .314 0 .314.322.314h7.461c.119.007.182-.042.175-.168 0-.329.007-.657.007-1.021z" fill="currentColor"/><path d="M17.954 2.156c3.709 0 6.718 3.017 6.711 6.712-.007 3.688-3.03 6.698-6.718 6.69-3.696 0-6.72-3.03-6.712-6.725.014-3.681 3.023-6.677 6.719-6.677zm-.007 8.322a1.63 1.63 0 001.63-1.617 1.64 1.64 0 00-1.623-1.63c-.882 0-1.624.741-1.624 1.63 0 .896.72 1.616 1.617 1.616zM13.3 5.557c.566-.029 1.12-.05 1.672-.078a.66.66 0 01.546.224c.266.287.553.56.819.847.09.091.147.112.273.05.203-.113.406-.21.63-.267.189-.049.224-.14.224-.308-.007-.86 0-1.714-.007-2.575 0-.077-.007-.154-.014-.266-1.757.189-3.108 1-4.144 2.372zm7.943-1.316c.021.518.042 1.064.07 1.602a.753.753 0 01-.259.63c-.273.252-.525.518-.79.77-.106.098-.106.168-.043.294a2.8 2.8 0 01.26.609c.041.175.118.217.286.21.875-.007 1.75 0 2.625-.007.07 0 .14-.014.21-.021-.056-1.603-1.134-3.36-2.359-4.087zm1.365 7.908c-.553.021-1.099.05-1.652.077a.68.68 0 01-.567-.224c-.23-.252-.497-.476-.728-.728-.154-.168-.28-.23-.49-.084-.133.098-.308.147-.476.19-.175.048-.244.125-.244.321.014.861.006 1.715.006 2.576v.259c1.778-.203 3.136-1.022 4.15-2.387zm-7.95 1.316c-.022-.525-.043-1.078-.07-1.63-.015-.239.076-.42.251-.589.273-.259.532-.531.805-.79.091-.084.105-.154.042-.273a3.778 3.778 0 01-.273-.651c-.042-.126-.09-.168-.217-.168-.93.007-1.861 0-2.792.007-.028 0-.063.014-.091.02.028 1.555 1.162 3.395 2.344 4.074zm2.799 1.085v-2.562c0-.497 0-.497-.476-.686a.341.341 0 00-.05-.02c-.16-.064-.342-.21-.482-.176-.161.042-.259.26-.413.364-.399.28-.483.665-.455 1.127.056.812.434 1.393 1.155 1.743.217.105.455.133.72.21zm1-11.352v2.519c0 .504.035.441.455.7.47.287.693.077 1.008-.224.308-.294.427-.588.4-1-.029-.455-.127-.875-.414-1.232-.357-.462-.819-.735-1.448-.763zm-6.165 5.15c1.014 0 1.987 0 2.96-.006.05 0 .12-.056.14-.098.12-.287.217-.574.364-.966l-.805-.707c-.042-.035-.098-.07-.147-.07-.525-.02-1.05-.035-1.526.252-.594.35-.923.868-.986 1.596zm11.317 1.058c-.035-.021-.05-.035-.063-.035-.96 0-1.911-.007-2.87 0a.216.216 0 00-.16.105c-.12.287-.225.574-.35.917.132.126.328.265.468.44.252.315.56.413.959.392.539-.028 1.015-.168 1.414-.532.364-.356.574-.783.602-1.287zm-.421 6.264c.917 0 1.645.736 1.638 1.66a1.64 1.64 0 01-1.652 1.623 1.649 1.649 0 01-1.637-1.638c0-.91.735-1.644 1.651-1.644zm-.02 2.275a.62.62 0 00.636-.63.62.62 0 00-.616-.63.626.626 0 00-.644.63.626.626 0 00.623.63zm-10.436-1.141c.266 0 .54-.007.805 0 .322.007.546.217.546.504 0 .287-.224.504-.546.511-.539.007-1.078.007-1.617 0-.329-.007-.546-.217-.546-.504 0-.287.217-.497.546-.51h.812zM9.52 14.572a.495.495 0 01-.504-.49c0-.273.217-.504.483-.511a.51.51 0 01.518.504.486.486 0 01-.497.497z" fill="currentColor"/></svg>