<svg width="36" height="26" fill="none" xmlns="http://www.w3.org/2000/svg"><path d="M0 0h36v26H0z"/><path d="M3.025 5.049c.082-.223.157-.455.264-.661.463-.884 1.198-1.371 2.198-1.371 3.395-.017 6.79-.009 10.186-.009.421 0 .685.223.685.579.009.371-.264.603-.694.603H5.718c-.57 0-1.041.173-1.314.694a1.568 1.568 0 00-.173.693c-.017 2.041-.008 4.073-.008 6.114 0 .818.545 1.355 1.363 1.38h.206c8.278 0 16.564 0 24.842-.009.28 0 .586-.041.842-.157.463-.206.71-.611.71-1.115.01-2.107.017-4.213 0-6.312-.008-.677-.495-1.181-1.172-1.272-.133-.016-.273-.016-.405-.016h-9.426c-.107 0-.215.008-.322-.009a.595.595 0 01-.504-.586c0-.29.223-.545.504-.587.066-.008.132-.008.206-.008h9.773c1.297 0 2.28.826 2.52 2.098.025.14.025.29.025.438v6.196c0 1.438-1.082 2.545-2.536 2.553-1.801.016-3.61 0-5.412 0-6.559 0-13.11-.017-19.67.008-1.412.008-2.494-.86-2.726-2.049 0-.016-.024-.024-.041-.041.025-2.38.025-4.767.025-7.154z" fill="currentColor"/><path d="M10.427 11.641h-3.23c-.86 0-1.347-.487-1.355-1.355a200.206 200.206 0 010-3.288c0-.875.495-1.371 1.371-1.371h6.427c.876 0 1.363.496 1.363 1.371v3.313c0 .818-.504 1.322-1.322 1.322-1.082.017-2.172.008-3.254.008zm3.337-3.626V6.866H7.081v1.149h6.683zm.008 2.395V9.262H7.09v1.148h6.683zm12.384 1.231h-3.197c-.86 0-1.355-.495-1.355-1.355V6.974c0-.835.504-1.339 1.338-1.347h6.427c.835 0 1.339.504 1.347 1.338.008 1.116.008 2.23 0 3.346-.008.826-.512 1.322-1.33 1.33-1.082.008-2.156 0-3.23 0zm-3.321-3.635h6.667c0-.297-.017-.57.008-.834.016-.248-.058-.33-.322-.33-2.016.008-4.032.008-6.04.008a3.92 3.92 0 00-.305.016c-.008.397-.008.76-.008 1.14zm0 2.396h6.642V9.254h-6.642v1.148zM20.142 8.65c0 .397.008.794 0 1.19-.033 1.033-.851 1.834-1.85 1.818-1.017-.017-1.818-.835-1.818-1.884 0-.76-.008-1.512 0-2.272.008-1.049.81-1.867 1.826-1.875 1.008-.008 1.809.785 1.842 1.818.008.404 0 .81 0 1.206zm-1.215.009c0-.388.009-.777 0-1.165-.008-.388-.24-.644-.594-.644-.364-.009-.636.24-.636.636a99.763 99.763 0 000 2.321c.008.372.28.628.627.628.347-.008.595-.256.603-.644V8.659zm7.956 12.656c.025-.529.207-1 .554-1.404.47-.546.462-1.025-.009-1.578-.685-.81-.726-1.942-.099-2.76.265-.347.604-.42.9-.198.29.223.323.554.084.9-.314.455-.298.876.057 1.298.835 1 .826 2.131 0 3.139-.148.182-.223.446-.264.677-.074.389-.297.62-.653.604-.347-.017-.57-.29-.57-.678zm-19.24.008c.025-.504.182-.95.504-1.338.553-.66.561-1.057.008-1.71-.677-.793-.653-2.131.05-2.834.173-.173.363-.248.603-.173.24.074.396.24.413.47a.932.932 0 01-.124.488c-.339.554-.322.892.09 1.396.76.917.752 2.082.009 3.007-.174.215-.273.504-.33.777-.083.372-.281.587-.637.578-.355-.008-.594-.28-.586-.66zm16.035-.066c.041-.413.132-.876.47-1.222.538-.554.554-1.19.01-1.793-.662-.735-.62-1.983.016-2.735.24-.28.561-.338.826-.148.28.198.338.528.148.85-.388.653-.363.918.133 1.504.677.802.677 2.082-.017 2.867a1.51 1.51 0 00-.396.85c-.05.405-.298.604-.661.57-.323-.04-.537-.313-.529-.743zm-12.814-.008a2.15 2.15 0 01.438-1.19c.636-.842.636-1.024.009-1.85a2.206 2.206 0 01.008-2.652c.256-.33.595-.405.884-.19.297.223.33.545.099.892-.314.455-.29.909.066 1.322.81.942.801 2.14.008 3.098-.157.198-.24.47-.297.727-.091.396-.298.611-.661.578-.355-.016-.562-.289-.553-.735zM18.382 4.19a.58.58 0 01-.603-.595c0-.33.256-.578.587-.587.33 0 .595.248.611.57a.591.591 0 01-.595.612z" fill="currentColor"/></svg>