<svg width="36" height="26" fill="none" xmlns="http://www.w3.org/2000/svg"><path d="M0 0h36v26H0z"/><path d="M21.267 0c.32.078.645.142.957.248a4.714 4.714 0 013.256 4.405c.022 1.305.007 2.603.007 3.908 0 .355-.198.582-.503.59-.312.006-.518-.228-.518-.597v-3.66c0-2.262-1.617-3.873-3.873-3.873-1.61 0-3.22-.007-4.83 0-1.83.015-3.334 1.256-3.675 3.036-.05.249-.063.511-.063.766-.008 3.753 0 7.498 0 11.25v.248h12.448V13.2c0-.234.071-.425.284-.539a.501.501 0 01.716.312c.029.085.029.178.029.27v11.32c0 .724-.398 1.285-1.072 1.384-.503.07-1.028.07-1.532 0-.638-.092-1.042-.639-1.056-1.291-.008-.305 0-.61 0-.936h-7.179c0 .312.007.617 0 .929-.014.652-.418 1.198-1.057 1.29a5.46 5.46 0 01-1.532 0c-.631-.084-1.035-.616-1.07-1.255-.008-.064 0-.135 0-.198 0-6.547-.008-13.087.006-19.634 0-1.965.901-3.433 2.646-4.341.426-.22.922-.305 1.383-.454.064-.022.12-.036.185-.057h6.043zm3.17 17.392a1.825 1.825 0 01-.092-.028c-.9 0-1.808-.007-2.71 0-.077 0-.177.078-.22.149-.205.312-.396.631-.588.95-.326.532-.794.81-1.419.802h-2.34c-.624 0-1.1-.27-1.419-.802-.191-.312-.39-.617-.567-.936-.078-.135-.17-.177-.32-.177-.837.007-1.674 0-2.51.007-.071 0-.142.014-.206.021-.014.043-.021.057-.021.071 0 1.504-.008 3 0 4.504 0 .447.319.73.78.73h10.874c.482 0 .78-.297.787-.78.007-1.46 0-2.922 0-4.376a.638.638 0 01-.028-.135zm-4.156 0h-4.107c.135.22.248.398.355.582.113.206.29.29.518.29.787 0 1.574.015 2.361-.006a.727.727 0 00.454-.206c.164-.184.27-.418.419-.66zm-8.27 6.235c0 .312-.008.667 0 1.022.007.191.127.305.319.312.319.007.645.021.964-.007.107-.014.284-.142.291-.234.035-.334.014-.667.014-.993-.539-.036-1.042-.064-1.589-.1zm12.44-.028c-.276.035-.538.07-.8.092-.263.014-.526 0-.802 0v.93c0 .205.12.326.326.333.312.007.631.007.943 0 .192-.007.32-.12.327-.305.014-.348.007-.703.007-1.05z" fill="currentColor"/><path d="M13.614 8.625v-3.71c0-1.404.915-2.319 2.32-2.319h4.603c1.39 0 2.305.915 2.312 2.305v7.462c0 1.37-.922 2.299-2.291 2.299-1.553 0-3.1.007-4.653 0-1.355 0-2.277-.93-2.284-2.285v-.05c-.007-1.233-.007-2.468-.007-3.702zm1.042 3.767c-.007.05-.014.092-.014.135.014.638.511 1.106 1.192 1.106.9.007 1.809 0 2.71 0 .695 0 1.39.007 2.085 0 .723-.007 1.241-.567 1.149-1.241h-7.121zm-.014-5.398c.093.007.15.014.206.014 2.248 0 4.49 0 6.739.007.198 0 .24-.07.234-.248-.015-.199 0-.397 0-.596 0-.32 0-.32-.334-.32h-6.511c-.057 0-.128-.013-.17.008-.057.028-.15.092-.15.142-.02.319-.014.645-.014.993zm0 1.035c0 .305.014.59-.007.866-.014.22.057.276.277.276 2.213-.007 4.426-.007 6.639-.007.078 0 .156-.007.234-.014V8.022c-2.383.007-4.738.007-7.143.007zm0 2.178c0 .305.014.575-.007.844-.021.248.071.298.305.298 2.192-.007 4.377-.007 6.569-.007.056 0 .12.014.17-.007.05-.021.12-.071.12-.114.007-.333.007-.674.007-1.021-2.39.007-4.76.007-7.164.007zm7.164-5.39c0-.072.008-.128 0-.185-.07-.582-.532-1-1.142-1-1.028-.007-2.057 0-3.085 0-.61 0-1.227-.007-1.837.007-.646.014-1.142.567-1.071 1.184 2.369-.007 4.745-.007 7.135-.007zm3.156 6.511a.512.512 0 01-.503-.511.51.51 0 01.503-.504c.284 0 .525.242.518.525a.515.515 0 01-.518.49z" fill="currentColor"/></svg>