<svg width="36" height="26" fill="none" xmlns="http://www.w3.org/2000/svg"><path d="M0 0h36v26H0z"/><path d="M16.71 1.007c.222.14.296.343.33.605.026.195.134.41.262.565.7.84.713 1.849.013 2.683-.175.208-.282.423-.296.699-.02.323-.228.51-.51.49-.276-.013-.451-.221-.451-.53a1.86 1.86 0 01.45-1.21c.478-.552.478-1.003.007-1.547a1.932 1.932 0 01-.45-1.022c-.048-.31.013-.579.316-.74.114.007.221.007.33.007zm2.784 0c.235.114.316.302.363.558.04.222.134.457.275.625.666.78.686 1.876.014 2.65-.182.208-.29.436-.31.719-.026.336-.242.524-.53.49-.276-.026-.438-.241-.431-.57a1.86 1.86 0 01.45-1.164c.491-.578.491-.982.007-1.56a1.954 1.954 0 01-.45-1.07c-.034-.308.047-.537.336-.678h.276zm5.849 19.661c-.094-.007-.174-.014-.248-.014-1.527 0-3.053 0-4.58-.006-.18 0-.255.047-.315.221a2.135 2.135 0 01-2.031 1.446 2.165 2.165 0 01-2.03-1.452c-.041-.121-.068-.222-.243-.222-1.58.007-3.16.007-4.74.007-.04 0-.074.006-.175.02.087.35.148.699.269 1.022.666 1.788 2.286 2.931 4.196 2.972.201.006.41-.007.612.006a.47.47 0 01.437.491.476.476 0 01-.458.457c-1.99.108-3.657-.55-4.901-2.145a5.225 5.225 0 01-1.123-3.166c-.02-1.17-.014-2.34 0-3.517a5.326 5.326 0 01.618-2.42c1.258-2.388 2.522-4.761 3.772-7.148.155-.296.357-.417.693-.41 2.05.013 4.102.006 6.16 0 .322 0 .524.114.672.396 1.237 2.36 2.48 4.714 3.732 7.067.45.84.672 1.742.672 2.69.007 1.049.007 2.09 0 3.14-.02 2.757-1.87 4.969-4.586 5.446-.504.088-1.035.06-1.553.067-.249 0-.437-.221-.437-.47 0-.249.175-.457.43-.478.222-.013.437-.006.66-.006 2.17-.034 3.953-1.48 4.417-3.59.04-.122.053-.25.08-.404zM13.025 11.94c-.054.1-.1.181-.141.262-.437.82-.86 1.64-1.305 2.454-.376.706-.591 1.44-.591 2.233 0 .854.006 1.714-.007 2.568 0 .175.054.229.229.229a541.7 541.7 0 014.666 0c.141 0 .202-.04.249-.182.31-.9 1.13-1.492 2.05-1.492.922 0 1.735.585 2.052 1.492.046.142.114.175.248.175 1.553-.006 3.113-.006 4.667 0 .181 0 .228-.06.222-.235-.007-.847-.007-1.695-.007-2.549a4.61 4.61 0 00-.552-2.171c-.383-.72-.766-1.446-1.15-2.165-.114-.216-.228-.424-.342-.64-.901.364-1.674.23-2.374-.423-.37-.343-.921-.33-1.318-.007-.12.101-.235.209-.363.296-.793.511-1.748.424-2.46-.208-.505-.444-1.023-.444-1.514 0a1.866 1.866 0 01-.376.275c-.605.37-1.224.364-1.883.088zm9.83-.894c-.558-1.056-1.102-2.098-1.667-3.134-.034-.067-.161-.114-.249-.114-1.849-.007-3.691-.007-5.54-.007-.135 0-.209.034-.276.162-.437.833-.88 1.667-1.318 2.5-.107.203-.215.398-.316.593.403.222.787.148 1.204-.209.84-.72 1.882-.706 2.723 0 .175.148.397.256.612.31.336.08.625-.061.88-.29.498-.457 1.09-.638 1.762-.51a2.1 2.1 0 01.995.51c.39.343.787.404 1.19.189zm-4.673 7.934c-.645 0-1.19.544-1.19 1.183a1.181 1.181 0 102.36-.007 1.19 1.19 0 00-1.17-1.176z" fill="currentColor"/><path d="M18.176 25.63a.47.47 0 01-.477-.477c0-.27.208-.471.477-.478.276 0 .478.202.478.478a.475.475 0 01-.478.477z" fill="currentColor"/></svg>