<svg width="21" height="22" fill="none" xmlns="http://www.w3.org/2000/svg"><g clip-path="url(#clip0_201_14136)"><path fill-rule="evenodd" clip-rule="evenodd" d="M18.73 14.504c0-2.66-1.54-5.928-2.578-7.826l-.923-1.562c.087.6.053 1.211-.1 1.798a3.92 3.92 0 01-.902 1.37 7.733 7.733 0 00-1.159-3.825c-.136-.2-.481-.75-.866-1.238A9.582 9.582 0 009.437.828c.373.772.597 1.608.66 2.463-.03 1.007-.35 1.61-1.859 3.579-1.51 1.969-1.137 4.904-1.137 4.904a5.97 5.97 0 00-.49-1.18c-.394-.766-2-1.668-2.1-1.72.043.11.765 1.907-.22 3.128-1.25 1.562-2.252 2.725-1.977 5.062.35 2.97 3.732 3.802 5.285 4.025h.005c.468.07.765.083.765.083-1.022-.35-1.605-1.636-1.685-2.344a2.824 2.824 0 01.647-2.272c.208-.285.978-1.05 1.237-1.312a4.133 4.133 0 001.348-2.235 6.56 6.56 0 00.057-1.845 5.778 5.778 0 011.786 1.788c.356.564.553 1.214.572 1.88a1.93 1.93 0 00.444-.675c.075-.291.091-.594.048-.892 0 0 1.774 2.45 1.724 4.627-.062 2.729-1.75 3.279-1.752 3.282.018-.005 5.934-.742 5.934-6.67z" fill="currentColor"/></g><defs><clipPath id="clip0_201_14136"><path fill="#fff" transform="translate(0 .5)" d="M0 0h21v21H0z"/></clipPath></defs></svg>