<svg width="30" height="25" fill="none" xmlns="http://www.w3.org/2000/svg"><path fill-rule="evenodd" clip-rule="evenodd" d="M7.456.174C3.889.938 1.201 4.055.961 7.704c-.11 1.661.229 3.13 1.139 4.95 1.813 3.629 5.832 7.685 11.109 11.214 1.384.926 1.77 1.132 2.117 1.132.262 0 2.226-1.25 3.805-2.424 6.023-4.474 9.64-9.06 10.321-13.09.288-1.698-.132-3.845-1.062-5.44-.82-1.406-2.399-2.78-3.94-3.428-2.837-1.193-6.331-.623-8.58 1.399-.305.274-.59.498-.63.498-.043 0-.356-.25-.698-.556-.811-.727-2.544-1.579-3.66-1.8-1.046-.206-2.421-.2-3.426.015zm3.065 1.738c1.337.281 2.282.827 3.385 1.956 1.303 1.334 1.343 1.334 2.656 0 .768-.78 1.156-1.08 1.802-1.394 1.92-.935 3.846-.94 5.797-.013 1.008.479 2.313 1.743 2.842 2.754.756 1.443.933 3.271.475 4.923-.826 2.98-3.853 6.654-8.409 10.208-1.167.91-3.695 2.68-3.828 2.68-.128 0-2.097-1.36-3.375-2.331-6.577-4.997-9.772-9.818-9.031-13.628.258-1.327.816-2.363 1.808-3.355 1.62-1.62 3.7-2.257 5.878-1.8z" fill="currentColor"/></svg>