<svg width="25" height="25" fill="none" xmlns="http://www.w3.org/2000/svg"><path d="M24.841 12.014c-.223-.306-5.545-7.481-12.341-7.481-6.797 0-12.118 7.175-12.341 7.48a.825.825 0 000 .973c.223.306 5.544 7.481 12.34 7.481 6.797 0 12.119-7.175 12.342-7.48a.824.824 0 000-.973zM12.5 18.819c-5.006 0-9.342-4.763-10.626-6.32C3.156 10.941 7.483 6.181 12.5 6.181c5.006 0 9.342 4.762 10.626 6.32-1.282 1.558-5.61 6.318-10.626 6.318z" fill="currentColor"/><path d="M12.5 7.555A4.95 4.95 0 007.555 12.5a4.95 4.95 0 004.945 4.945 4.95 4.95 0 004.945-4.945A4.95 4.95 0 0012.5 7.555zm0 8.242A3.3 3.3 0 019.203 12.5 3.3 3.3 0 0112.5 9.203a3.3 3.3 0 013.297 3.297 3.3 3.3 0 01-3.297 3.297z" fill="currentColor"/></svg>