<svg width="29" height="25" fill="none" xmlns="http://www.w3.org/2000/svg"><g clip-path="url(#clip0_302_1273)"><path fill-rule="evenodd" clip-rule="evenodd" d="M1.152.04C.912.098.605.438.555.702a.819.819 0 00.37.842c.21.127.406.138 2.489.138 2.089 0 2.263.01 2.3.13.02.07.688 3.063 1.482 6.65.795 3.587 1.46 6.578 1.48 6.646.026.087-.042.16-.226.248-.38.18-.89.785-1.073 1.271-.126.336-.152.539-.13 1.01.035.733.23 1.179.728 1.664.507.494.993.664 2.041.713l.831.039-.403.164c-.832.338-1.332.942-1.516 1.832-.345 1.673 1.17 3.22 2.853 2.912 1.378-.253 2.285-1.569 2.008-2.912-.184-.895-.68-1.49-1.531-1.84l-.42-.174H22.67l-.41.17c-.792.325-1.286.867-1.518 1.662-.492 1.693 1.016 3.38 2.77 3.098 1.09-.175 1.866-.94 2.064-2.03a2.419 2.419 0 00-.676-2.16c-.288-.295-.893-.65-1.161-.681-.06-.007.229-.032.643-.056.73-.042.762-.051.995-.284.2-.2.241-.297.241-.57 0-.273-.04-.37-.24-.57l-.242-.24-7.865-.037c-6.2-.03-7.9-.057-8.03-.131-.19-.109-.388-.455-.388-.68 0-.192.17-.529.338-.668.108-.09 1.325-.111 7.986-.142 7.406-.035 7.87-.045 8.06-.17.112-.072.25-.238.31-.368.058-.13.856-2.867 1.772-6.083 1.295-4.545 1.655-5.902 1.62-6.093a.837.837 0 00-.271-.436l-.224-.188H7.818l-.062-.166c-.035-.091-.184-.73-.333-1.419C7.271 1.09 7.095.46 7.02.356 6.776.02 6.563-.004 3.842 0c-1.398.003-2.608.02-2.69.04zm25.83 5.062c0 .076-2.523 8.992-2.77 9.79-.039.122-.433.129-6.922.129-3.784 0-6.898-.028-6.918-.062-.052-.083-2.182-9.692-2.182-9.841 0-.11.794-.12 9.396-.12 7.988 0 9.395.016 9.395.104zM11.616 21.727c.054 0 .2.102.326.226.316.316.32.772.011 1.117-.19.213-.259.241-.595.241-.337 0-.406-.028-.596-.24-.243-.272-.284-.629-.11-.964.13-.253.552-.48.767-.411a.785.785 0 00.197.03zm12.017.121c.333.218.418.721.187 1.1-.424.697-1.482.384-1.482-.437 0-.17.054-.386.12-.48.25-.357.784-.44 1.175-.183z" fill="currentColor"/></g><defs><clipPath id="clip0_302_1273"><path fill="#fff" transform="translate(.542)" d="M0 0h28.399v25H0z"/></clipPath></defs></svg>