<svg width="25" height="25" fill="none" xmlns="http://www.w3.org/2000/svg"><path fill-rule="evenodd" clip-rule="evenodd" d="M10.203.153C5.899.936 2.227 4.081.74 8.26c-1.632 4.59-.523 9.551 2.912 13.026 6.039 6.106 16.21 4.452 20.078-3.267 1.12-2.235 1.534-5.094 1.102-7.623-.887-5.2-4.967-9.35-10.066-10.242-1.175-.205-3.436-.206-4.563 0zm3.472 1.328c4.678.523 8.39 3.804 9.58 8.468.324 1.268.302 3.933-.043 5.25-.317 1.21-1.084 2.83-1.792 3.785l-.546.736-.311-.85c-.774-2.113-2.214-3.752-4.17-4.747l-.84-.427.62-.607c.76-.743 1.37-1.962 1.516-3.028.313-2.283-.918-4.524-3.036-5.53-.74-.35-.839-.368-2.152-.368-1.357 0-1.39.007-2.23.422-3.351 1.661-4.029 5.965-1.35 8.58l.553.54-.825.42c-1.973 1.005-3.44 2.656-4.188 4.711l-.322.884-.546-.736C1.123 15.652.804 10.88 2.806 7.21 4.688 3.757 8.19 1.607 12.31 1.373c.144-.008.758.04 1.364.108zm.202 4.318c.4.136.781.402 1.267.883.847.837 1.133 1.54 1.119 2.749-.016 1.43-.875 2.743-2.196 3.357-.92.428-2.2.428-3.12 0C8.617 11.706 8 8.691 9.72 6.804c1.112-1.22 2.52-1.56 4.156-1.005zm.744 9.178c2.163.673 4.048 2.575 4.693 4.738.128.429.216.914.197 1.078-.071.6-2.401 1.901-4.296 2.4-.916.242-1.377.294-2.651.299-2.395.01-4.13-.504-6.136-1.815l-.977-.637.069-.503c.372-2.724 2.886-5.27 5.701-5.777.874-.157 2.54-.05 3.4.217z" fill="currentColor"/></svg>