<svg width="165" height="206" fill="none" xmlns="http://www.w3.org/2000/svg"><mask id="a" style="mask-type:alpha" maskUnits="userSpaceOnUse" x="0" y="0" width="165" height="206"><path fill="#D9D9D9" d="M0 0h165v206H0z"/></mask><g mask="url(#a)"><path d="M28.42 113.096h166.919v93.09H28.419v-93.09z" fill="#668796"/><path d="M143.979 113.096h6.419v93.09h-6.419v-93.09z" fill="#4D6877"/><path d="M41.26 148.406h93.089v28.89h-93.09v-28.89z" fill="#fff"/><path d="M28.42 193.346h118.769v12.84H28.419v-12.84z" fill="#4D6877"/><path d="M185.709 74.577v-12.84H38.049v12.84L22 106.676v6.42h179.759v-6.42l-16.05-32.1z" fill="#89B7E2"/><path d="M38.049 61.737h147.659v12.84H38.048v-12.84z" fill="#6095C8"/><path d="M111.879 20.007c-13.803-.321-25.359 10.27-25.68 24.075v2.246c0 3.852.964 7.384 2.569 10.914l23.111 39.804 23.112-39.805c1.927-3.21 2.568-7.06 2.568-10.913v-2.246c-.322-13.804-11.876-24.396-25.68-24.075z" fill="#EF4848"/><path d="M121.51 42.477a9.63 9.63 0 01-9.63 9.63c-5.318 0-9.63-4.312-9.63-9.63a9.63 9.63 0 019.63-9.63c5.32 0 9.63 4.31 9.63 9.63z" fill="#fff"/><path d="M22 113.096v11.235c0 6.099 5.136 11.235 11.235 11.235 6.099 0 11.235-5.136 11.235-11.235v-11.235" fill="#619FD9"/><path d="M66.94 113.096v11.235c0 6.099-5.136 11.235-11.234 11.235-6.1 0-11.235-5.136-11.235-11.235v-11.235" fill="#F7D289"/><path d="M89.41 113.096v11.235c0 6.099-5.137 11.235-11.236 11.235-6.099 0-11.235-5.136-11.235-11.235v-11.235" fill="#619FD9"/><path d="M111.88 113.096v11.235c0 6.099-5.136 11.235-11.235 11.235-6.099 0-11.235-5.136-11.235-11.235v-11.235" fill="#F7D289"/><path d="M111.879 113.096v11.235c0 6.099 5.136 11.235 11.235 11.235 6.098 0 11.235-5.136 11.235-11.235v-11.235" fill="#619FD9"/><path d="M134.35 113.096v11.235c0 6.099 5.136 11.235 11.235 11.235 6.098 0 11.234-5.136 11.234-11.235v-11.235" fill="#F7D289"/><path d="M156.818 113.096v11.235c0 6.099 5.136 11.235 11.235 11.235 6.099 0 11.235-5.136 11.235-11.235v-11.235" fill="#619FD9"/><path d="M115.089 177.296h-12.84l28.89-28.89h3.21v9.63l-19.26 19.26zm-25.68 0H76.57l28.89-28.89h12.84l-28.89 28.89zm-25.68 0H50.89l28.89-28.89h12.84l-28.89 28.89zm-22.47-3.21v-12.84l12.84-12.84h12.84l-25.68 25.68z" fill="#E4E7EA"/><path d="M156.818 141.986h32.1v57.78h-32.1v-57.78z" fill="#fff"/><path d="M156.818 161.246h6.42v6.42h-6.42v-6.42z" fill="#668796"/><path d="M156.818 193.346v-12.84l32.1-32.1v12.84l-32.1 32.1zm22.47 6.42h-12.84l22.47-22.47v12.84l-9.63 9.63z" fill="#E4E7EA"/></g></svg>