<svg width="205" height="197" fill="none" xmlns="http://www.w3.org/2000/svg"><mask id="a" style="mask-type:alpha" maskUnits="userSpaceOnUse" x="0" y="0" width="205" height="197"><path fill="#D9D9D9" d="M0 0h205v197H0z"/></mask><g mask="url(#a)"><path d="M34.315 112.617l-.018 6.276-5.68 3.3.018-6.277 2.445-1.425.735-.423 2.5-1.451z" fill="#EFAC41"/><path d="M28.645 115.92l-.025 6.271-5.713-3.303.018-6.264v-.009h.01l2.479 1.436.564.329.169.094 2.498 1.446z" fill="#F9BB4A"/><path d="M34.318 112.622l-5.677 3.3-2.496-1.445-.722-.409-.016-.007-2.48-1.439 5.677-3.299 5.714 3.299z" fill="#FED57A"/><path d="M31.824 111.178l-5.677 3.299-.723-.409-.014-.007 5.692-3.299.007.007.715.409z" fill="#E4E8F4"/><path d="M25.405 115.555l.735.432.008-1.496v-.017l-.165-.092-.57-.322v.008l-.008 1.487z" fill="#D4DAE8"/><path d="M27.836 119.526l-.185.354.115.067.253.146-.183-.567zm-.07.421l-.002.701.139.079v-.699l-.137-.081zm-.69.366v.15l.96.553v-.15l-.96-.553zm-1.755-2.198v.5a.576.576 0 00.211.433l-.003.449c-.085-.038-.148-.035-.148.013l.373.215c0-.046-.064-.124-.148-.183v-.45c.056.023.106.018.14-.007.047-.031.075-.093.075-.181v-.499l-.5-.29zm1.888 1.511v.699l.137.081.002-.701-.139-.079zm.07-.423l-.184.356.114.067.254.145-.184-.568z" fill="#3F434F"/><path d="M26.343 120.206c.024-.014.04-.044.04-.081l.004-1.499a.231.231 0 00-.104-.18l-1.302-.752c-.032-.018-.064-.02-.088-.006-.027.016-.04.046-.04.083l-.006 1.497a.23.23 0 00.102.18l1.302.752a.1.1 0 00.053.016.069.069 0 00.037-.01h.002zm-1.39-2.465l1.303.752a.178.178 0 01.076.133l-.004 1.497c0 .017-.007.03-.014.035-.009.004-.02.004-.035-.005l-1.303-.752a.171.171 0 01-.075-.131l.006-1.499c0-.017.005-.03.012-.035.003-.002.007-.002.01-.002a.06.06 0 01.024.007zm3.327 3.583c.027-.014.04-.044.04-.081l.004-1.497a.232.232 0 00-.104-.182l-1.301-.75c-.032-.018-.062-.021-.089-.007-.026.016-.04.046-.04.083l-.005 1.499a.224.224 0 00.102.178l1.302.752a.11.11 0 00.052.016.076.076 0 00.04-.011zm-1.39-2.462l1.304.75a.18.18 0 01.053.057.18.18 0 01.023.075l-.004 1.499c0 .018-.005.028-.014.035a.055.055 0 01-.035-.007l-1.304-.752a.173.173 0 01-.074-.13l.006-1.497c0-.018.005-.032.012-.036a.02.02 0 01.01-.003.048.048 0 01.023.009z" fill="#3F434F"/><path d="M41.057 116.517l-.018 6.276-5.68 3.3.017-6.277 2.445-1.427.736-.422 2.5-1.45z" fill="#EFAC41"/><path d="M35.385 119.82l-.023 6.269-5.715-3.303.02-6.262v-.011h.009l2.48 1.438.564.327.167.096 2.498 1.446z" fill="#F9BB4A"/><path d="M41.06 116.522l-5.679 3.3-2.496-1.445-.722-.41-.014-.007-2.482-1.438 5.677-3.299 5.716 3.299z" fill="#FED57A"/><path d="M38.566 115.076l-5.679 3.299-.722-.408-.014-.007 5.693-3.3.007.007.715.409z" fill="#E4E8F4"/><path d="M32.145 119.453l.737.434.009-1.498v-.017l-.166-.092-.57-.32v.008l-.01 1.485z" fill="#D4DAE8"/><path d="M34.578 123.426l-.187.352.115.069.255.144-.183-.565zm-.072.421v.699l.137.081.002-.701-.14-.079zm-.69.364v.15l.96.555v-.15l-.96-.555zm-1.755-2.196v.498c0 .159.09.342.211.434l-.002.451c-.084-.041-.15-.036-.15.01l.376.217c0-.048-.064-.124-.148-.183v-.45c.056.022.104.016.14-.007.045-.033.073-.095.075-.181v-.5l-.502-.289zm1.89 1.509l-.002.701.14.081v-.701l-.138-.081z" fill="#3F434F"/><path d="M34.022 123.103l-.187.354.116.067.254.147-.183-.568zm-.939 1.001c.025-.014.04-.044.04-.081l.004-1.497a.227.227 0 00-.102-.18l-1.304-.752c-.03-.018-.061-.021-.088-.006-.024.015-.04.044-.04.081l-.004 1.5a.227.227 0 00.1.177l1.304.753a.11.11 0 00.053.017.08.08 0 00.037-.012zm-1.388-2.463l1.302.752a.18.18 0 01.076.131l-.004 1.499c0 .017-.005.03-.014.035a.046.046 0 01-.035-.007l-1.304-.752a.168.168 0 01-.072-.13l.003-1.498c0-.017.006-.031.014-.035a.028.028 0 01.01-.004.054.054 0 01.024.009z" fill="#3F434F"/><path d="M35.022 125.224c.025-.016.039-.046.039-.081l.003-1.499a.226.226 0 00-.102-.18l-1.303-.752c-.03-.017-.062-.021-.088-.005-.025.014-.04.044-.04.083l-.004 1.497a.221.221 0 00.1.18l1.303.75a.101.101 0 00.053.018.076.076 0 00.04-.011zm-1.392-2.464l1.304.752a.18.18 0 01.053.057.18.18 0 01.023.075l-.004 1.497c0 .018-.005.03-.012.036-.009.003-.023.001-.035-.007l-1.304-.751a.17.17 0 01-.074-.13l.004-1.499c0-.018.005-.03.014-.035.003-.002.006-.002.009-.002.008 0 .017.003.024.007h-.002z" fill="#3F434F"/><path d="M205.507 162.703l-6.24 10.019 28.893 16.834-6.791-17.704-15.862-9.149z" fill="#464957"/><path d="M216.676 188.078l-.006 1.479-16.724-9.655.004-1.479 16.726 9.655z" fill="#3F434F"/><path d="M199.947 178.43v1.469l-44.061 25.747c-1.578.926-4.155.926-5.751 0-.798-.471-1.198-1.07-1.198-1.669v-1.469c.017.599.4 1.198 1.198 1.651 1.615.925 4.173.925 5.751 0l44.061-25.729zm27.514 9.264l.699 1.853-49.776 29.085c-1.596.924-4.153.924-5.749 0-.798-.473-1.198-1.071-1.216-1.669v-1.488c.018.616.418 1.215 1.216 1.67 1.596.925 4.153.925 5.749 0l49.077-29.451z" fill="#525566"/><path d="M227.457 187.692l-49.071 29.456c-1.586.923-4.15.923-5.748 0-.8-.461-1.194-1.062-1.21-1.671.009-.596.398-1.198 1.191-1.658l44.056-25.741-16.724-9.654-44.056 25.74c-1.589.923-4.152.923-5.75 0-.8-.461-1.194-1.062-1.198-1.665-.003-.602.386-1.203 1.18-1.664l49.785-29.071 27.545 15.928z" fill="#5B5E71"/><path d="M172.854 174.218l.051 12.628 36.783 21.695-.052-12.628-36.782-21.695z" fill="#EFAC41"/><path d="M201.927 196.434l.018 5.308 4.805 2.794-.018-5.31-4.805-2.792z" fill="#E4E8F4"/><path d="M172.849 174.228l36.788 21.696 6.427-3.721 1.861-1.051.036-.02 6.391-3.703-36.788-21.695-6.426 3.703-.018.018-1.843 1.053-6.428 3.72z" fill="#FED57A"/><path d="M179.276 170.508l36.786 21.693 1.862-1.051.035-.02-36.823-21.695-.018.018-1.842 1.055z" fill="#5B5E71"/><path d="M178.891 184.609l-.506.962.314.181.692.397-.5-1.54zm-.192 1.143l-.005 1.906.378.219.006-1.906-.379-.219zm-1.88.994v.409l2.613 1.508v-.409l-2.613-1.508zm-2.776-4.938l-.003 1.359c0 .428.246.926.576 1.18l-.004 1.222c-.231-.105-.405-.095-.405.032l1.018.588c0-.128-.173-.338-.403-.498l.003-1.224c.15.059.28.045.382-.018.12-.088.198-.255.198-.493l.005-1.358-1.367-.79zm3.143 3.071l-.006 1.906.379.218.005-1.906-.378-.218zm.191-1.147l-.504.965.313.182.691.394-.5-1.541z" fill="#3F434F"/><path d="M156.172 183.751l.053 12.629 36.783 21.695-.051-12.627-36.785-21.697z" fill="#EFAC41"/><path d="M192.957 205.448l.051 12.627 14.711-8.492-.051-12.629-14.711 8.494z" fill="#F9BB4A"/><path d="M156.17 183.764l36.788 21.693 6.426-3.72 1.86-1.052.039-.018 6.387-3.702-36.786-21.695-6.426 3.701-.02.017-1.841 1.054-6.427 3.722z" fill="#FED57A"/><path d="M162.596 180.042l36.786 21.695 1.86-1.052.039-.018-36.825-21.696-.019.017-1.841 1.054z" fill="#5B5E71"/><path d="M162.213 194.143l-.507.963.313.18.692.396-.498-1.539zm-.194 1.143l-.005 1.906.379.218.005-1.906-.379-.218zm-1.879.995v.407l2.61 1.508.002-.407-2.612-1.508zm-2.777-4.939l-.003 1.358c0 .43.246.927.576 1.18l-.004 1.224c-.23-.105-.405-.096-.405.032l1.018.587c0-.127-.172-.338-.405-.499l.006-1.222a.41.41 0 00.38-.018c.12-.09.199-.257.199-.495l.004-1.356-1.366-.791zm3.143 3.07l-.005 1.906.378.219.006-1.906-.379-.219z" fill="#3F434F"/><path d="M160.695 193.267l-.504.966.314.179.688.397-.498-1.542z" fill="#3F434F"/><path d="M170.598 168.96l.053 12.628 24.179 14.263-.051-12.628-24.181-14.263z" fill="#EFAC41"/><path d="M187.069 183.743l.018 5.309 4.806 2.792-.018-5.308-4.806-2.793z" fill="#E4E8F4"/><path d="M194.779 183.223l.053 12.628 14.709-8.494-.049-12.626-14.713 8.492z" fill="#F9BB4A"/><path d="M170.596 168.97l24.186 14.263 6.426-3.72 1.86-1.053.035-.018 6.391-3.703-24.186-14.263-6.424 3.703-.019.018-1.841 1.053-6.428 3.72z" fill="#FED57A"/><path d="M177.024 165.25l24.184 14.263 1.86-1.053.036-.018-24.222-14.263-.017.018-1.841 1.053z" fill="#5B5E71"/><path d="M201.208 179.513l.018 6.106 1.879-1.075-.017-6.105-1.88 1.074z" fill="#474B59"/><path d="M176.639 179.349l-.508.964.314.181.692.397-.498-1.542zm-.194 1.145l-.005 1.906.378.219.006-1.906-.379-.219zm-1.88.994v.408l2.611 1.508.002-.407-2.613-1.509zm-2.776-4.938l-.003 1.358c0 .43.246.927.574 1.181l-.004 1.222c-.229-.106-.405-.095-.405.032l1.02.588c0-.127-.172-.338-.405-.498l.005-1.225c.15.062.28.046.381-.017.12-.088.199-.256.199-.493l.003-1.359-1.365-.789zm3.143 3.071l-.006 1.906.379.218.006-1.906-.379-.218zm.188-1.145l-.502.963.314.182.689.394-.501-1.539z" fill="#3F434F"/><path d="M204.103 185.724l.451.858-.279.16-.616.353.444-1.371zm.172 1.018l.005 1.697-.338.194-.003-1.697.336-.194zm1.674.885v.363l-2.326 1.342v-.363l2.326-1.342zm2.469-4.394l.004 1.209a1.438 1.438 0 01-.511 1.048l.002 1.09c.206-.095.359-.086.361.029l-.907.523c0-.115.153-.301.359-.444l-.003-1.089c-.134.053-.249.041-.34-.017-.106-.078-.177-.228-.177-.439l-.003-1.208 1.215-.702zm-2.797 2.733l.005 1.694-.336.194-.005-1.695.336-.193zm-.169-1.022l.449.86-.28.162-.613.352.444-1.374z" fill="#4C7891"/><path d="M70.514 99.684l52.788-30.878 78.221-13.869-131.099 76.187.09-31.44z" fill="#0265C2"/><path d="M13.77 66.923l91.942-53.532 28.423 3.044-91.944 53.53-28.42-3.042z" fill="#2F873B"/><path d="M8.762 63.102l91.943-53.533 33.44 3.59-91.944 53.533-33.44-3.59z" fill="#D4DAE8"/><path d="M42.191 69.963l91.944-53.528 28.32 29.717-91.943 53.532-28.32-29.721z" fill="#2F873B"/><path d="M42.192 69.963l28.322 29.723-.088 31.441-56.745-32.76.088-31.443 28.423 3.039z" fill="#2F87DA"/><path d="M75.529 101.65l91.942-53.534-1.004 2.238-91.944 53.531 1.006-2.235z" fill="#AEB7C4"/><path d="M42.2 66.688l91.944-53.53 33.329 34.962-91.944 53.531-33.328-34.963z" fill="#E4E8F4"/><path d="M137.281 138.231l91.942-53.53-.088 31.441-91.944 53.529.09-31.44z" fill="#0265C2"/><path d="M229.135 116.142l-91.944 53.531 91.944-53.531z" fill="#CAD0DD"/><path d="M80.538 105.47l91.943-53.531 28.398 3.028-91.944 53.531-28.397-3.028z" fill="#2F873B"/><path d="M75.529 101.65l91.941-53.534 33.417 3.576-91.944 53.53-33.414-3.572z" fill="#D4DAE8"/><path d="M108.934 108.498l91.944-53.533L229.223 84.7l-91.94 53.531-28.349-29.733z" fill="#2F873B"/><path d="M108.935 108.498l28.348 29.733-.09 31.442-56.742-32.761.088-31.442 28.396 3.028z" fill="#2F87DA"/><path d="M142.295 140.197l91.943-53.533-1.004 2.237-91.945 53.532 1.006-2.236z" fill="#BAC1CE"/><path d="M108.944 105.222l91.943-53.53 33.351 34.974-91.943 53.531-33.351-34.975z" fill="#E4E8F4"/><path d="M42.201 66.688l33.328 34.962-1.005 2.235-32.332-33.922-32.44-3.475-.99-3.386L42.2 66.688zm66.743 38.534l33.351 34.975-1.004 2.236-32.356-33.935-32.418-3.463-.988-3.385 33.415 3.572z" fill="#CAD0DD"/><path d="M210.129 109.499v6.491l-11.757 6.793-.058-6.495 11.815-6.789zm-49.244 28.435v6.491l-11.813 6.787v-6.489l11.813-6.789z" fill="#E4E8F4"/><path d="M198.374 122.783l11.756-6.793 2.561 1.013-14.294 8.262-.023-2.482z" fill="#0265C2"/><path d="M185.508 123.716v6.492l-11.813 6.787v-6.49l11.813-6.789z" fill="#E4E8F4"/><path d="M185.507 123.716l2.563-1.471v8.974l-2.563-1.011v-6.492z" fill="#2F87DA"/><path d="M185.507 130.208l2.563 1.011-14.374 8.261v-2.483l11.811-6.789z" fill="#0265C2"/><path d="M160.886 137.934l2.563-1.473v8.975l-2.563-1.011v-6.491z" fill="#2F87DA"/><path d="M160.886 144.425l2.563 1.011-14.376 8.262v-2.484l11.813-6.789z" fill="#0265C2"/><path d="M96.352 146.107l21.366 12.343.096-23.997-21.363-12.294-.1 23.948z" fill="#E4E8F4"/><path d="M26.584 105.812l.095-23.94 21.364 12.305-21.174 11.73-.285-.095z" fill="#37617B"/><path d="M47.964 118.111v-2.536l.05-6.49v-7.9l.048-2.148V94.16l-1.708.927-2.584 1.464-.731.391-2.586 1.462-.684.342v.05h-.047l-.05.048-.243.147h-.05l-.048.047-.194.099h-.05l-.098.047-.194.1v.047h-.05l-.098.049-.243.146-1.219.684-.976.535-.73.391-.1.097h-.047l-2.44 1.367-.683.34-.147.099-.096.049-.244.146-.098.048-.243.146-.099.049h-.047l-.147.147h-.049l-.099.049-.193.097h-.05l-3.024 1.708h-.05l-.73.439 21.07 12.195z" fill="#4C7891"/><path d="M34.564 94.272l.021 6.499 5.884 3.417-.021-6.497-5.884-3.419z" fill="#EFAC41"/><path d="M35.248 95.514v1.027l.005.106v1.004l4.534 2.637v-.379l-.005-.27v-.862l-.005-.275v-.35l-4.53-2.638z" fill="#E4E8F4"/><path d="M40.447 97.691l.02 6.499 5.922-3.419-.022-6.499-5.92 3.42z" fill="#F9BB4A"/><path d="M34.563 94.278l5.884 3.417 2.588-1.497.748-.423.016-.009 2.572-1.489-5.885-3.419-2.586 1.49-.009.008-.74.422-2.588 1.5z" fill="#FED57A"/><path d="M37.15 92.78l5.884 3.418.749-.423.016-.009-5.901-3.417-.007.007-.74.424z" fill="#EFAC41"/><path d="M43.034 96.198l.007 2.459.758-.434-.007-2.457-.758.432z" fill="#EFAC41"/><path d="M39.137 101.324l-.204.387.127.072.278.159-.2-.618z" fill="#3F434F"/><path d="M39.06 101.783l-.002.768.151.089.002-.768-.152-.089zm-.758.4v.166l1.051.606v-.164l-1.051-.608zm-1.117-1.987l-.002.546a.65.65 0 00.231.476v.493c-.093-.044-.164-.04-.164.013l.41.236c0-.053-.07-.136-.161-.201v-.493a.172.172 0 00.155-.007c.047-.036.079-.103.079-.198v-.546l-.548-.319zm1.265 1.237l-.002.766.152.088.001-.766-.151-.088zm.076-.462l-.203.388.127.074.276.158-.2-.62z" fill="#3F434F"/><path d="M35.248 96.541l.005.106 4.529 2.614v-.1l-4.534-2.62zm.007.374v.11l4.527 2.615v-.106l-4.527-2.62zm0 .378v.111l4.532 2.614v-.109l-4.532-2.616zm-.007-1.13v.105l4.534 2.62v-.112l-4.534-2.614zm0-.381v.106l4.527 2.614v-.106l-4.527-2.614z" fill="#A4A9B3"/><path d="M27.007 98.636l.022 6.496 5.883 3.419-.021-6.496-5.884-3.42z" fill="#EFAC41"/><path d="M27.691 99.876v1.028l.006.106v1.004l4.535 2.637v-.38l-.007-.268v-.863l-.005-.275v-.351l-4.529-2.638z" fill="#E4E8F4"/><path d="M32.89 102.055l.02 6.496 5.922-3.417-.021-6.5-5.92 3.421z" fill="#F9BB4A"/><path d="M27.005 98.64l5.883 3.418 2.59-1.497.747-.423.016-.009 2.572-1.49-5.884-3.417-2.59 1.488-.006.009-.74.423-2.588 1.497z" fill="#FED57A"/><path d="M29.594 97.142l5.884 3.417.748-.423.016-.007-5.901-3.417-.007.007-.74.423z" fill="#EFAC41"/><path d="M35.478 100.561l.007 2.457.757-.431-.007-2.459-.757.433z" fill="#EFAC41"/><path d="M31.58 105.685l-.204.388.127.074.278.158-.2-.62zm-.077.462l-.002.768.151.088.002-.768-.151-.088zm-.758.4v.163l1.052.608v-.164l-1.052-.607zm-1.117-1.987v.546a.645.645 0 00.23.475v.494c-.094-.044-.164-.041-.164.01l.41.238c0-.053-.07-.137-.162-.201v-.493a.166.166 0 00.155-.007c.047-.035.08-.102.08-.199l.001-.546-.55-.317zm1.265 1.234l-.002.769.152.088.004-.768-.154-.089zm.078-.461l-.203.389.125.072.279.159-.201-.62z" fill="#3F434F"/><path d="M27.691 100.904l.006.106 4.528 2.613v-.099l-4.534-2.62zm.007.374v.111l4.527 2.614v-.106l-4.527-2.619zm0 .379v.111l4.534 2.614v-.111l-4.534-2.614zm-.007-1.133v.106l4.534 2.619v-.111l-4.534-2.614zm0-.381v.106l4.527 2.616v-.106l-4.527-2.616z" fill="#A4A9B3"/><path d="M41.42 98.181l.02 6.498 5.884 3.418-.02-6.497-5.885-3.419z" fill="#EFAC41"/><path d="M42.103 99.421v1.029l.007.106v1.004l4.535 2.637v-.381l-.006-.267v-.864l-.007-.274v-.351l-4.529-2.639z" fill="#E4E8F4"/><path d="M47.283 101.623v1.804l.047 3.025v1.659l.684-.391v-6.535l-.731.438z" fill="#F9BB4A"/><path d="M41.478 98.21l4.633 2.73h.049l1.122.683.731-.44.05-2.146v-3.852l-.733-.44-.974.586-1.61.926-.732.44-.246.145-.73.44-1.56.927z" fill="#FED57A"/><path d="M44.014 96.696l2.39 1.365 1.658.976v-.877l-1.708-.976-1.608-.927-.732.44z" fill="#EFAC41"/><path d="M45.994 105.233l-.204.387.125.072.28.159-.2-.618zm-.079.459v.768l.151.088v-.768l-.151-.088zm-.756.4v.166l1.052.606v-.164l-1.052-.608zm-1.117-1.987l-.001.546a.65.65 0 00.23.476v.493c-.093-.044-.163-.04-.163.012l.41.236c0-.052-.07-.135-.164-.2l.002-.494c.06.025.113.018.153-.007.05-.035.081-.102.081-.197v-.546l-.548-.319zm1.265 1.235l-.003.768.153.088.002-.768-.152-.088z" fill="#3F434F"/><path d="M45.383 104.88l-.202.388.126.074.277.158-.2-.62z" fill="#3F434F"/><path d="M42.103 100.45l.007.106 4.528 2.614v-.101l-4.535-2.619zm.007.373v.111l4.528 2.615v-.106l-4.528-2.62zm0 .379v.111l4.535 2.614v-.111l-4.535-2.614zm-.007-1.133v.106l4.536 2.621v-.111l-4.536-2.616zm0-.378v.105l4.53 2.615v-.106l-4.53-2.614z" fill="#A4A9B3"/><path d="M33.863 102.544l.021 6.497 5.884 3.419-.022-6.496-5.883-3.42z" fill="#EFAC41"/><path d="M34.548 103.785v1.028l.006.106v1.002l4.534 2.639v-.38l-.005-.268v-.863l-.006-.275v-.351l-4.529-2.638z" fill="#E4E8F4"/><path d="M39.746 105.964l.021 6.496 5.922-3.417-.02-6.5-5.923 3.421z" fill="#F9BB4A"/><path d="M33.864 102.548l5.884 3.417 2.587-1.497.749-.423.014-.007 2.572-1.49-5.884-3.417-2.587 1.488-.007.009-.74.423-2.588 1.497z" fill="#FED57A"/><path d="M36.45 101.051l5.883 3.417.75-.423.015-.007-5.9-3.417-.007.007-.741.423z" fill="#EFAC41"/><path d="M42.335 104.47l.007 2.457.758-.431-.007-2.46-.758.434z" fill="#EFAC41"/><path d="M38.438 109.594l-.205.388.127.074.279.158-.201-.62zm-.078.462l-.003.766.153.088.002-.766-.152-.088zm-.757.4v.163l1.051.608v-.164l-1.051-.607zm-1.117-1.988l-.002.547a.646.646 0 00.23.475v.493c-.093-.044-.163-.04-.163.011l.41.238c0-.053-.07-.138-.162-.201v-.493a.173.173 0 00.155-.007c.048-.036.08-.102.08-.199v-.546l-.548-.318zm1.265 1.235l-.002.768.151.088.002-.768-.151-.088zm.075-.461l-.202.387.127.074.276.159-.2-.62z" fill="#3F434F"/><path d="M34.548 104.812l.006.105 4.527 2.614v-.098l-4.533-2.621zm.006.375v.111l4.527 2.614v-.106l-4.527-2.619zm0 .378v.111l4.534 2.615v-.111l-4.534-2.615zm-.006-1.132v.106l4.535 2.619v-.111l-4.535-2.614zm0-.379v.106l4.528 2.614v-.106l-4.528-2.614z" fill="#A4A9B3"/><path d="M40.72 106.453l.022 6.497 5.883 3.419-.021-6.497-5.884-3.419z" fill="#EFAC41"/><path d="M41.404 107.693v1.029l.007.106v1.002l4.534 2.639v-.381l-.005-.267v-.863l-.007-.275v-.353l-4.529-2.637z" fill="#E4E8F4"/><path d="M46.6 109.867l.048 6.486 1.316-.78.05-6.488-1.415.782z" fill="#F9BB4A"/><path d="M40.746 106.452v.049l4.682 2.683 1.171.681 1.415-.828v-5.219l-.731-.391-.635-.389v.049H46.6l-.05.048h-.047l-.195.098-.099.048-.243.146-.097.049-.195.147h-.05l-1.17.683-.39.243-.732.391-.244.146-.488.293-.243.097-1.61.976z" fill="#FED57A"/><path d="M43.331 104.94l.927.536.097.049.927.537.195.146.194.097.246.147.145.098 1.268.731.684.391v-.829l-.684-.391-1.17-.682-.341-.196-.146-.098-.099-.048-.34-.195-.634-.392-.538-.292-.73.391z" fill="#EFAC41"/><path d="M45.295 113.503l-.204.388.125.073.278.159-.199-.62zm-.08.461v.767l.152.088v-.766l-.151-.089zm-.755.4v.164l1.052.608v-.164l-1.052-.608zm-1.118-1.987v.546a.65.65 0 00.23.476v.493c-.093-.044-.164-.04-.164.011l.41.238c0-.053-.071-.138-.163-.201l.002-.493c.06.024.113.017.153-.007.05-.036.08-.103.081-.199v-.547l-.55-.317zm1.266 1.235l-.003.768.153.088.002-.768-.152-.088zm.076-.461l-.203.387.127.074.277.159-.201-.62z" fill="#3F434F"/><path d="M41.404 108.722l.007.106 4.527 2.612v-.098l-4.534-2.62zm.007.374v.109l4.527 2.616v-.106l-4.527-2.619zm0 .378v.111l4.534 2.614v-.111l-4.534-2.614zm-.007-1.132v.105l4.536 2.62v-.111l-4.536-2.614zm0-.379v.106l4.529 2.614v-.106l-4.529-2.614z" fill="#A4A9B3"/><path d="M99.23 119.744v-6.731l1.299.307v5.964l-1.3.46z" fill="#0265C2"/><path d="M100.528 119.284l17.286 10.02v1.148l-18.584-10.71 1.298-.458z" fill="#0265C2"/><path d="M100.528 113.32l8.033 1.835 9.253 8.567v5.584l-17.286-10.022v-5.964z" fill="#E4E8F4"/><path d="M29.464 79.498V72.77l1.3.307v5.964l-1.3.458z" fill="#0265C2"/><path d="M30.763 79.04l17.286 10.02v1.147L29.463 79.5l1.3-.46z" fill="#0265C2"/><path d="M30.763 73.076l8.03 1.835 9.256 8.567v5.584L30.763 79.04v-5.964z" fill="#E4E8F4"/><path d="M45.258 165.349l.004 1.321 63.609 36.966-.003-1.322-63.61-36.965z" fill="#525566"/><path d="M45.258 165.349l63.609 36.965 4.002-2.309-63.609-36.966-4.002 2.31z" fill="#5B5E71"/><path d="M31.598 173.237l.004 1.321 63.609 36.966-.004-1.321-63.609-36.966z" fill="#525566"/><path d="M31.598 173.237l63.609 36.966 4.002-2.312-63.61-36.965-4.001 2.311z" fill="#5B5E71"/><path d="M17.903 181.143l.004 1.321 63.609 36.966-.004-1.322-63.609-36.965z" fill="#525566"/><path d="M17.904 181.143l63.61 36.965 4-2.309-63.61-36.966-4 2.31z" fill="#5B5E71"/><path d="M62.137 167.512l-.004 1.455-35.197 20.455.003-1.455 35.198-20.455z" fill="#37617B"/><path d="M26.941 187.967l-.005 1.455-4.404-2.544.004-1.455 4.405 2.544z" fill="#416E84"/><path d="M62.137 167.512L26.94 187.967l-4.405-2.544L57.73 164.97l4.406 2.542z" fill="#4C7891"/><path d="M77.172 176.193l-.004 1.455-35.197 20.455.004-1.455 35.197-20.455z" fill="#37617B"/><path d="M41.975 196.648l-.004 1.455-4.404-2.544.004-1.453 4.404 2.542z" fill="#416E84"/><path d="M77.172 176.193l-35.196 20.455-4.405-2.542 35.195-20.455 4.406 2.542z" fill="#4C7891"/><path d="M92.248 184.896l-.004 1.455-35.199 20.454.004-1.455 35.199-20.454z" fill="#37617B"/><path d="M92.248 184.896l-35.196 20.455-4.405-2.543 35.195-20.454 4.406 2.542z" fill="#4C7891"/><path d="M107.322 193.6l-.005 1.455-35.196 20.453.004-1.453 35.197-20.455z" fill="#37617B"/><path d="M107.322 193.6l-35.197 20.455-4.404-2.544 35.196-20.455 4.405 2.544z" fill="#4C7891"/><path d="M63.951 159.097l-.053 16.382-26.854 15.604.053-16.382 26.854-15.604z" fill="#EFAC41"/><path d="M44.287 173.022l-.017 5.387-4.878 2.836.017-5.389 4.878-2.834z" fill="#E4E8F4"/><path d="M37.098 174.701l-.053 16.382-14.93-8.619.054-16.383 14.929 8.62z" fill="#F9BB4A"/><path d="M63.955 159.107l-26.858 15.604-6.523-3.777-1.887-1.067-.038-.018-6.483-3.757 26.858-15.606 6.521 3.758.018.017 1.87 1.07 6.522 3.776z" fill="#FED57A"/><path d="M57.434 155.331l-26.859 15.603-1.886-1.067-.039-.018 26.899-15.605.017.017 1.868 1.07z" fill="#EFAC41"/><path d="M30.574 170.934l-.017 6.199-1.908-1.09.017-6.197 1.908 1.088z" fill="#EFAC41"/><path d="M40.4 183.859l.515.977-.319.184-.702.403.507-1.564zm.196 1.161l.006 1.934-.384.222-.006-1.934.384-.222zm1.908 1.009v.414l-2.65 1.531v-.414l2.65-1.531zm2.819-5.013l.003 1.379c0 .435-.25.941-.585 1.198l.004 1.242c.234-.108.41-.099.412.031l-1.034.598c0-.131.176-.344.409-.506l-.004-1.244c-.151.062-.283.048-.387-.017-.122-.09-.201-.259-.201-.502l-.004-1.378 1.387-.801zm-3.19 3.118l.005 1.934-.384.222-.005-1.934.383-.222z" fill="#3F434F"/><path d="M41.938 182.971l.511.978-.317.185-.7.399.506-1.562z" fill="#3F434F"/><path d="M84.32 170.857l-.052 16.382-26.855 15.604.053-16.382 26.854-15.604z" fill="#EFAC41"/><path d="M64.654 184.782l-.017 5.387-4.878 2.836.018-5.389 4.877-2.834z" fill="#E4E8F4"/><path d="M57.467 186.461l-.053 16.382-14.93-8.619.054-16.383 14.929 8.62z" fill="#F9BB4A"/><path d="M84.324 170.866l-26.858 15.605-6.523-3.777-1.887-1.067-.038-.018-6.483-3.757 26.858-15.605 6.522 3.757.017.017 1.871 1.07 6.521 3.775z" fill="#FED57A"/><path d="M77.803 167.091l-26.86 15.603-1.887-1.067-.039-.018 26.9-15.607.017.021 1.869 1.068z" fill="#EFAC41"/><path d="M50.943 182.694l-.017 6.199-1.908-1.09.018-6.197 1.907 1.088z" fill="#EFAC41"/><path d="M60.768 195.619l.514.977-.318.184-.703.401.507-1.562zm.196 1.161l.005 1.934-.384.222-.005-1.934.384-.222zm1.907 1.009v.414l-2.649 1.531-.002-.414 2.651-1.531zm2.819-5.012l.003 1.378c0 .435-.25.941-.584 1.198l.003 1.242c.234-.109.41-.099.412.031l-1.034.598c0-.131.176-.344.409-.506l-.004-1.244c-.151.062-.283.048-.387-.017-.122-.09-.201-.259-.201-.502l-.004-1.378 1.387-.8zm-3.19 3.117l.005 1.934-.384.22-.005-1.934.384-.22zm-.194-1.165l.51.98-.316.185-.7.4.506-1.565z" fill="#3F434F"/><path d="M104.689 182.615l-.052 16.382-26.855 15.608.053-16.384 26.854-15.606z" fill="#EFAC41"/><path d="M85.023 196.542l-.017 5.387-4.878 2.836.018-5.389 4.877-2.834z" fill="#E4E8F4"/><path d="M77.834 198.221l-.053 16.382-14.929-8.619.053-16.383 14.929 8.62z" fill="#F9BB4A"/><path d="M104.695 182.626l-26.86 15.605-6.523-3.777-1.886-1.067-.039-.018-6.482-3.759 26.858-15.603 6.521 3.757.018.018 1.87 1.069 6.523 3.775z" fill="#FED57A"/><path d="M98.172 178.849l-26.86 15.607-1.887-1.069-.038-.018 26.898-15.607.018.021 1.869 1.066z" fill="#EFAC41"/><path d="M71.314 194.456l-.017 6.197-1.91-1.092.018-6.197 1.91 1.092zm6.485-46.777l-.053 16.382-26.855 15.604.053-16.383L77.8 147.679z" fill="#EFAC41"/><path d="M58.133 161.604l-.018 5.386-4.878 2.836.018-5.388 4.878-2.834z" fill="#E4E8F4"/><path d="M50.945 163.282l-.053 16.383-14.929-8.62.051-16.382 14.931 8.619z" fill="#F9BB4A"/><path d="M77.803 147.687l-26.86 15.606-6.521-3.777-1.889-1.067-.037-.018-6.484-3.759 26.858-15.604 6.523 3.758.018.017 1.869 1.069 6.523 3.775z" fill="#FED57A"/><path d="M71.28 143.912l-26.86 15.604-1.888-1.067-.037-.018 26.897-15.607.017.021 1.87 1.067z" fill="#EFAC41"/><path d="M44.422 159.516l-.018 6.199-1.908-1.092.018-6.197 1.908 1.09z" fill="#EFAC41"/><path d="M54.247 172.441l.513.977-.317.183-.705.402.51-1.562z" fill="#3F434F"/><path d="M54.444 173.6l.005 1.936-.384.221-.005-1.934.384-.223zm1.908 1.009v.416l-2.651 1.529v-.414l2.65-1.531zm2.816-5.01l.004 1.378c.002.435-.25.94-.583 1.198l.003 1.241c.235-.109.41-.098.41.032l-1.033.597c0-.13.176-.343.41-.507l-.003-1.242c-.154.062-.286.048-.388-.018-.121-.089-.2-.258-.2-.502l-.006-1.377 1.386-.8zm-3.188 3.115l.005 1.935-.384.221-.005-1.934.384-.222zm-.194-1.163l.511.979-.317.184-.701.401.507-1.564z" fill="#3F434F"/><path d="M98.168 159.437l-.053 16.382-26.855 15.606.053-16.383 26.855-15.605z" fill="#EFAC41"/><path d="M78.5 173.364l-.016 5.386-4.878 2.836.018-5.39 4.876-2.832z" fill="#E4E8F4"/><path d="M71.314 175.042l-.052 16.383-14.93-8.62.052-16.382 14.93 8.619z" fill="#F9BB4A"/><path d="M98.172 159.447l-26.86 15.606-6.521-3.777-1.889-1.067-.037-.018-6.484-3.759 26.858-15.604 6.523 3.758.018.017 1.869 1.069 6.523 3.775z" fill="#FED57A"/><path d="M91.648 155.672L64.79 171.276l-1.888-1.067-.037-.018 26.897-15.607.017.021 1.87 1.067z" fill="#EFAC41"/><path d="M64.791 171.276l-.018 6.199-1.907-1.092.017-6.197 1.908 1.09z" fill="#EFAC41"/><path d="M74.616 184.199l.512.979-.317.183-.705.402.51-1.564zm.195 1.162l.005 1.935-.384.222-.005-1.935.384-.222zm1.908 1.01v.412l-2.651 1.533v-.416l2.65-1.529zm2.817-5.012l.003 1.378c.002.435-.25.94-.583 1.198l.004 1.241c.234-.109.41-.098.41.032l-1.034.597c0-.13.176-.343.41-.507l-.003-1.242a.414.414 0 01-.388-.018c-.121-.091-.2-.26-.2-.502l-.006-1.377 1.386-.8zm-3.189 3.115l.005 1.934-.384.222-.005-1.934.384-.222zm-.194-1.163l.511.979-.317.184-.7.401.506-1.564z" fill="#3F434F"/><path d="M47.799 120.415l-.018 6.277-5.679 3.299.018-6.276 2.445-1.425.734-.423 2.5-1.452z" fill="#EFAC41"/><path d="M42.129 123.718l-.025 6.269-5.712-3.301.017-6.264v-.009h.01l2.48 1.436.563.33.169.093 2.498 1.446z" fill="#F9BB4A"/><path d="M47.803 120.421l-5.678 3.299-2.496-1.445-.722-.408-.016-.007-2.48-1.439 5.677-3.3 5.715 3.3z" fill="#FED57A"/><path d="M45.309 118.974l-5.678 3.301-.722-.408-.014-.007 5.691-3.3.007.007.716.407z" fill="#E4E8F4"/><path d="M38.89 123.353l.734.432.009-1.495v-.018l-.166-.092-.569-.322v.009l-.009 1.486z" fill="#D4DAE8"/><path d="M41.32 127.324l-.184.354.114.067.254.146-.183-.567zm-.07.421l-.002.701.14.079v-.699l-.138-.081zm-.692.365v.151l.962.553v-.149l-.962-.555zm-1.753-2.195v.498a.578.578 0 00.211.434l-.003.449c-.085-.039-.148-.035-.148.012l.373.215c0-.046-.063-.123-.148-.183v-.449c.057.023.106.017.141-.007.046-.032.074-.094.074-.182v-.498l-.5-.289zm1.888 1.509v.7l.138.081.002-.701-.14-.08zm.07-.421l-.184.353.114.068.254.145-.183-.566z" fill="#3F434F"/><path d="M39.825 128.004c.026-.014.042-.044.042-.081l.004-1.499a.227.227 0 00-.104-.18l-1.302-.752c-.032-.018-.063-.019-.088-.005-.026.014-.04.046-.04.083l-.006 1.497a.228.228 0 00.102.179l1.302.753a.121.121 0 00.053.016.08.08 0 00.037-.011zm-1.388-2.464l1.303.752a.174.174 0 01.076.132l-.003 1.497c0 .018-.007.03-.014.035-.01.004-.021.002-.036-.005l-1.303-.752a.171.171 0 01-.074-.13l.005-1.499c0-.018.006-.03.013-.036a.02.02 0 01.01-.001c.008 0 .016.002.023.007zm3.328 3.583c.026-.015.04-.045.04-.082l.004-1.497a.228.228 0 00-.104-.181l-1.302-.752c-.032-.018-.062-.02-.088-.006-.027.016-.04.046-.04.083l-.006 1.499a.225.225 0 00.102.178l1.302.752a.1.1 0 00.053.016.087.087 0 00.039-.01zm-1.39-2.465l1.303.752a.177.177 0 01.076.132l-.003 1.499c0 .018-.006.029-.015.034a.043.043 0 01-.035-.005l-1.303-.752a.177.177 0 01-.074-.131l.005-1.499c0-.018.005-.03.012-.035a.02.02 0 01.01 0 .06.06 0 01.024.005z" fill="#3F434F"/><path d="M32.848 119.825l-.018 6.276-5.68 3.3.018-6.276 2.445-1.426.735-.422 2.5-1.452z" fill="#EFAC41"/><path d="M27.176 123.128l-.023 6.269-5.713-3.303.018-6.262v-.01h.01l2.479 1.437.564.329.169.094 2.496 1.446z" fill="#F9BB4A"/><path d="M32.852 119.83l-5.68 3.3-2.496-1.445-.722-.408-.014-.009-2.482-1.438 5.68-3.299 5.714 3.299z" fill="#FED57A"/><path d="M30.357 118.386l-5.677 3.299-.722-.408-.016-.009 5.693-3.3.007.009.715.409z" fill="#E4E8F4"/><path d="M23.936 122.762l.737.433.009-1.496v-.017l-.166-.094-.569-.32v.009l-.01 1.485z" fill="#D4DAE8"/><path d="M26.37 126.734l-.187.354.116.067.254.146-.184-.567zm-.071.421l-.002.699.139.081v-.701l-.137-.079zm-.69.365v.149l.957.555v-.15l-.958-.554zm-1.755-2.197l-.002.498c0 .159.09.342.211.434v.451c-.086-.039-.15-.036-.15.01l.374.217c0-.048-.063-.123-.148-.183v-.448c.056.021.106.018.14-.007.045-.033.075-.093.075-.181v-.499l-.5-.292zm1.888 1.51l-.002.701.14.081v-.701l-.138-.081z" fill="#3F434F"/><path d="M25.813 126.412l-.185.355.114.066.254.146-.183-.567zm-.939 1c.026-.012.04-.042.04-.079l.006-1.499a.236.236 0 00-.03-.103.234.234 0 00-.074-.077l-1.304-.752a.088.088 0 00-.088-.005c-.024.014-.04.044-.04.082l-.004 1.498a.229.229 0 00.1.179l1.304.751a.11.11 0 00.053.017.072.072 0 00.035-.01l.002-.002zm-1.388-2.463l1.303.753a.174.174 0 01.076.132l-.005 1.497c0 .018-.005.03-.012.035-.01.004-.022.002-.036-.007l-1.303-.75a.171.171 0 01-.074-.131l.005-1.499c0-.017.004-.03.012-.035a.027.027 0 01.01-.002.068.068 0 01.024.007z" fill="#3F434F"/><path d="M26.813 128.532c.025-.015.04-.044.04-.081l.004-1.499a.228.228 0 00-.104-.179l-1.303-.753c-.03-.017-.062-.021-.088-.005-.025.016-.039.046-.039.083l-.005 1.497a.23.23 0 00.029.103.23.23 0 00.073.077l1.302.752a.109.109 0 00.053.014.066.066 0 00.038-.009zm-1.39-2.464l1.304.752a.178.178 0 01.076.132l-.006 1.498c0 .017-.003.03-.012.035a.046.046 0 01-.035-.005l-1.304-.753a.17.17 0 01-.074-.13l.006-1.499c0-.018.003-.03.012-.035.003-.002.007-.002.01-.002a.06.06 0 01.024.007z" fill="#3F434F"/><path d="M39.59 123.723l-.018 6.279-5.679 3.299.018-6.278 2.445-1.424.734-.422 2.5-1.454z" fill="#EFAC41"/><path d="M33.92 127.026l-.023 6.271-5.714-3.303.017-6.264v-.008h.01l2.48 1.435.563.33.17.093 2.497 1.446z" fill="#F9BB4A"/><path d="M39.594 123.73l-5.678 3.3-2.496-1.446-.722-.409-.016-.007-2.48-1.439 5.677-3.3 5.715 3.301z" fill="#FED57A"/><path d="M37.102 122.284l-5.68 3.3-.722-.409-.014-.007 5.692-3.299.008.007.716.408z" fill="#E4E8F4"/><path d="M30.68 126.662l.735.431.009-1.494v-.017l-.164-.094-.57-.322v.011l-.01 1.485z" fill="#D4DAE8"/><path d="M33.111 130.632l-.184.354.114.067.256.146-.185-.567zm-.07.421v.701l.137.08.002-.7-.139-.081zm-.69.367v.149l.96.553v-.149l-.96-.553zm-1.755-2.199v.5a.578.578 0 00.211.434l-.001.449c-.085-.039-.15-.035-.15.012l.375.217c0-.048-.063-.125-.15-.183l.002-.451c.056.023.104.017.141-.007.044-.032.072-.094.072-.182l.002-.498-.502-.291zm1.888 1.512v.701l.138.079.002-.701-.14-.079zm.07-.421l-.184.354.114.067.254.144-.183-.565z" fill="#3F434F"/><path d="M31.616 131.312c.026-.014.042-.044.042-.081l.004-1.497a.227.227 0 00-.102-.182l-1.304-.75c-.03-.018-.063-.021-.088-.007-.026.016-.04.046-.04.083l-.006 1.499a.232.232 0 00.102.178l1.302.752a.11.11 0 00.053.016.07.07 0 00.037-.011zm-1.386-2.463l1.302.751a.175.175 0 01.075.132l-.003 1.499c0 .018-.005.028-.014.035a.055.055 0 01-.035-.007l-1.304-.752a.168.168 0 01-.072-.13l.003-1.498c0-.017.006-.031.013-.035a.02.02 0 01.01-.003c.009 0 .018.003.025.008zm3.326 3.583c.026-.017.04-.045.04-.082l.004-1.498a.224.224 0 00-.103-.179l-1.303-.753c-.03-.017-.062-.021-.088-.005-.027.014-.04.044-.04.081l-.004 1.499a.221.221 0 00.1.178l1.304.752a.1.1 0 00.053.016.068.068 0 00.037-.009zm-1.389-2.466l1.302.754a.176.176 0 01.076.131l-.004 1.499c0 .017-.005.028-.014.035-.007.002-.02 0-.035-.007l-1.303-.752a.176.176 0 01-.072-.131l.003-1.497c0-.018.005-.032.014-.035a.03.03 0 01.009-.004.052.052 0 01.024.007z" fill="#3F434F"/><path d="M137.219 124.164l22.023-12.8.031-5.059-22.022 12.8-.032 5.059z" fill="#CAD0DD"/><path d="M127.85 113.658l9.394 5.45 22.031-12.824-9.441-5.402-21.984 12.776z" fill="#D4DAE8"/><path d="M127.829 113.665l-.01 1.885 9.399 8.614.032-5.059-9.421-5.44z" fill="#BAC1CE"/><path d="M190.414 93.245l22.023-12.796.032-5.059-22.023 12.798-.032 5.057z" fill="#CAD0DD"/><path d="M181.045 82.74l9.396 5.45 22.03-12.824-9.442-5.403-21.984 12.777z" fill="#D4DAE8"/><path d="M181.025 82.746l-.011 1.887 9.402 8.614.031-5.06-9.422-5.44z" fill="#BAC1CE"/><path d="M71.91 82.038l22.021-12.797.03-5.06L71.94 76.98l-.03 5.06z" fill="#CAD0DD"/><path d="M62.54 71.534l9.395 5.449 22.032-12.824-9.442-5.403L62.54 71.534z" fill="#D4DAE8"/><path d="M62.52 71.541l-.01 1.885 9.402 8.614.03-5.06-9.421-5.439z" fill="#BAC1CE"/><path d="M125.107 51.12l22.023-12.796.03-5.06-22.023 12.8-.03 5.056z" fill="#CAD0DD"/><path d="M115.738 40.616l9.394 5.45 22.032-12.824-9.442-5.403-21.984 12.777z" fill="#D4DAE8"/><path d="M115.716 40.621l-.011 1.888 9.402 8.613.03-5.06-9.421-5.44z" fill="#BAC1CE"/></g></svg>